<svg width="533" height="419" viewBox="0 0 533 419" fill="none" xmlns="http://www.w3.org/2000/svg">
<path d="M45.114 335.832C44.064 332.647 43.0249 329.346 42.0258 326.022L44.4877 325.297C45.4801 328.6 46.5125 331.879 47.5556 335.043L45.114 335.832ZM485.563 331.718L483.014 331.406C483.437 328.016 483.839 324.601 484.209 321.257L486.762 321.533C486.392 324.889 485.988 328.316 485.563 331.718ZM39.1903 316.141C38.2912 312.856 37.4195 309.51 36.5989 306.196L39.0936 305.591C39.9093 308.885 40.776 312.211 41.6695 315.476L39.1903 316.141ZM487.814 311.332L485.257 311.093C485.582 307.689 485.883 304.265 486.151 300.915L488.712 301.116C488.443 304.478 488.14 307.915 487.814 311.332ZM34.2518 296.192C33.5099 292.845 32.804 289.461 32.1536 286.133L34.6755 285.651C35.3218 288.957 36.0233 292.321 36.7606 295.647L34.2518 296.192ZM489.449 290.886L486.886 290.725C487.103 287.323 487.294 283.891 487.452 280.526L490.018 280.644C489.859 284.024 489.667 287.469 489.449 290.886ZM30.3128 276.025C29.7417 272.637 29.2127 269.221 28.7412 265.871L31.2851 265.52C31.7537 268.848 32.279 272.241 32.8464 275.607L30.3128 276.025ZM490.41 270.394L487.843 270.32C487.943 266.903 488.012 263.467 488.048 260.109L490.616 260.136C490.58 263.51 490.511 266.961 490.41 270.394ZM27.4522 255.676C27.0693 252.255 26.736 248.813 26.4616 245.448L29.0218 245.243C29.2944 248.584 29.6253 252 30.0053 255.397L27.4522 255.676ZM488.059 249.898C488.028 246.479 487.963 243.045 487.863 239.691L490.431 239.617C490.531 242.987 490.597 246.439 490.627 249.876L488.059 249.898ZM25.788 235.192C25.6175 231.75 25.5046 228.294 25.4521 224.92L28.0204 224.881C28.0723 228.226 28.1844 231.654 28.3533 235.067L25.788 235.192ZM487.45 229.493C487.274 226.078 487.057 222.651 486.806 219.308L489.368 219.12C489.62 222.482 489.838 225.929 490.016 229.363L487.45 229.493ZM28.0449 214.691L25.4768 214.639C25.5484 211.188 25.6863 207.731 25.8869 204.365L28.4512 204.514C28.2522 207.848 28.1156 211.272 28.0449 214.691ZM485.915 209.144C485.572 205.729 485.183 202.319 484.76 199.007L487.309 198.689C487.735 202.022 488.126 205.456 488.471 208.892L485.915 209.144ZM29.2655 194.365L26.7097 194.111C27.0585 190.673 27.4839 187.236 27.974 183.897L30.5158 184.263C30.0313 187.565 29.6105 190.964 29.2655 194.365ZM483.322 188.91C482.788 185.517 482.201 182.137 481.578 178.863L484.103 178.393C484.73 181.692 485.322 185.099 485.86 188.518L483.322 188.91ZM179.541 188.551C175.972 187.994 173.391 186.386 169.815 183.609L171.438 181.638C174.571 184.065 176.833 185.521 179.815 186.023L179.541 188.551ZM188.453 182.502L186.165 181.346C187.341 179.066 188.381 175.904 189.255 171.945L191.764 172.488C190.83 176.719 189.747 179.994 188.453 182.502ZM162.276 176.317C160.23 174.061 158.043 171.465 155.591 168.381L157.609 166.809C160.027 169.85 162.179 172.404 164.187 174.618L162.276 176.317ZM32.2317 174.232L29.7101 173.747C30.3754 170.354 31.1285 166.97 31.9479 163.69L34.4415 164.301C33.6322 167.539 32.8885 170.88 32.2317 174.232ZM479.503 168.883C478.742 165.525 477.922 162.196 477.064 158.988L479.547 158.338C480.413 161.577 481.241 164.937 482.009 168.327L479.503 168.883ZM193.493 162.256L190.945 161.932C191.339 158.897 191.693 155.574 192.026 151.772L194.585 151.991C194.249 155.829 193.892 159.186 193.493 162.256ZM149.3 160.19C147.212 157.399 145.046 154.448 143.18 151.902L145.259 150.409C147.122 152.951 149.283 155.895 151.364 158.677L149.3 160.19ZM337.352 159.98C335.351 159.98 333.389 159.389 331.518 158.222L332.888 156.071C335.698 157.827 338.462 157.831 341.446 156.431L342.551 158.726C340.786 159.558 339.037 159.98 337.352 159.98ZM37.1736 154.503L34.7172 153.759C35.7377 150.456 36.8575 147.17 38.0453 143.994L40.4541 144.876C39.2834 148.007 38.1797 151.246 37.1736 154.503ZM350.95 152.079L349.063 150.354C351.011 148.266 353.098 145.691 355.446 142.481L357.527 143.971C355.119 147.264 352.968 149.916 350.95 152.079ZM324.215 150.33C322.553 147.792 320.905 144.803 319.179 141.192L321.5 140.105C323.178 143.612 324.77 146.505 326.37 148.947L324.215 150.33ZM474.226 149.205C473.191 145.911 472.087 142.668 470.944 139.566L473.357 138.695C474.514 141.835 475.632 145.117 476.679 148.45L474.226 149.205ZM137.093 143.613C134.743 140.434 132.785 137.824 130.93 135.4L132.977 133.865C134.841 136.301 136.807 138.921 139.166 142.112L137.093 143.613ZM195.358 141.724L192.794 141.56C192.989 138.581 193.187 135.233 193.4 131.325L195.965 131.461C195.752 135.379 195.553 138.736 195.358 141.724ZM44.3042 135.465L41.9544 134.438C43.3643 131.277 44.8671 128.173 46.4638 125.138L48.7414 126.313C47.17 129.3 45.6919 132.354 44.3042 135.465ZM363.411 135.464L361.265 134.067C363.09 131.32 364.975 128.41 366.884 125.47L369.045 126.845C367.132 129.792 365.244 132.705 363.411 135.464ZM315.044 131.704C313.881 128.816 312.678 125.664 311.369 122.07L313.785 121.207C315.085 124.775 316.277 127.901 317.43 130.763L315.044 131.704ZM467.166 130.119C465.785 126.935 464.324 123.842 462.824 120.926L465.113 119.772C466.638 122.737 468.123 125.881 469.526 129.116L467.166 130.119ZM124.588 127.344C122.257 124.48 120.088 121.932 117.955 119.552L119.877 117.865C122.036 120.275 124.232 122.854 126.588 125.749L124.588 127.344ZM196.499 121.205L193.934 121.077C194.107 117.681 194.279 114.282 194.462 110.824L197.027 110.958C196.844 114.413 196.672 117.81 196.499 121.205ZM374.676 118.258L372.533 116.856C374.679 113.642 376.599 110.861 378.401 108.356L380.493 109.831C378.708 112.312 376.805 115.068 374.676 118.258ZM53.8352 117.54L51.6702 116.172C53.6887 113.043 55.7697 110.217 57.8557 107.773L59.8179 109.413C57.8053 111.772 55.7926 114.506 53.8352 117.54ZM307.939 112.368C306.761 108.951 305.605 105.532 304.63 102.638L307.067 101.834C308.041 104.724 309.195 108.137 310.37 111.546L307.939 112.368ZM110.893 112.19C108.268 109.66 105.686 107.425 103.221 105.547L104.787 103.532C107.331 105.47 109.989 107.77 112.685 110.368L110.893 112.19ZM457.837 112.081C455.996 109.108 454.067 106.297 452.101 103.724L454.15 102.191C456.165 104.829 458.143 107.71 460.027 110.752L457.837 112.081ZM67.0226 102.496L65.4646 100.475C68.5321 98.1587 71.7244 96.4883 74.9531 95.5104L75.7049 97.9415C72.7682 98.8311 69.8471 100.363 67.0226 102.496ZM386.689 101.719L384.693 100.118C387.102 97.1755 389.385 94.644 391.672 92.3785L393.489 94.1753C391.266 96.3782 389.041 98.8457 386.689 101.719ZM197.603 100.719L195.039 100.568C195.261 96.8721 195.482 93.5159 195.714 90.3076L198.276 90.4891C198.045 93.6873 197.825 97.0334 197.603 100.719ZM94.7288 100.187C91.5236 98.6077 88.371 97.6001 85.3585 97.1916L85.7071 94.6726C88.9968 95.1188 92.4171 96.2079 95.8728 97.9104L94.7288 100.187ZM445.493 96.0766C443.021 93.5688 440.46 91.3553 437.884 89.4977L439.396 87.4426C442.089 89.384 444.759 91.6913 447.332 94.3009L445.493 96.0766ZM301.354 92.9099C300.076 89.1272 299.023 86.0427 298.04 83.2031L300.47 82.3788C301.455 85.2246 302.51 88.3148 303.79 92.1037L301.354 92.9099ZM401.176 87.6854L399.704 85.6022C402.863 83.4146 406.053 81.7945 409.187 80.7871L409.981 83.2052C407.089 84.1348 404.127 85.6422 401.176 87.6854ZM429.202 84.5707C426.021 83.2425 422.801 82.4207 419.631 82.1275L419.87 79.5959C423.301 79.9133 426.777 80.7988 430.201 82.228L429.202 84.5707ZM199.098 80.2816L196.539 80.0566C196.859 76.4895 197.207 73.0443 197.574 69.817L200.127 70.1013C199.762 73.3091 199.416 76.7341 199.098 80.2816ZM294.623 73.5329C293.382 70.1038 292.212 66.9692 291.047 63.9501L293.446 63.043C294.618 66.0785 295.793 69.2293 297.04 72.6752L294.623 73.5329ZM201.434 59.9635L198.892 59.5998C199.412 56.0403 199.983 52.6168 200.59 49.4253L203.114 49.8953C202.514 53.0519 201.949 56.4392 201.434 59.9635ZM287.231 54.4575C285.851 51.1714 284.46 48.0274 283.096 45.1127L285.427 44.0442C286.805 46.9891 288.21 50.1642 289.603 53.4815L287.231 54.4575ZM205.295 39.9461L202.803 39.3298C203.699 35.7796 204.687 32.4354 205.738 29.3903L208.169 30.2128C207.14 33.1904 206.173 36.4651 205.295 39.9461ZM278.534 35.9881C276.845 32.8389 275.119 29.8823 273.405 27.2008L275.575 25.8414C277.324 28.5772 279.083 31.5898 280.803 34.7958L278.534 35.9881ZM212.026 20.898L209.723 19.7727C211.409 16.3903 213.28 13.3994 215.282 10.8831L217.3 12.4563C215.408 14.8338 213.634 17.6739 212.026 20.898ZM267.518 18.9548C265.274 16.1699 262.957 13.7028 260.633 11.6223L262.356 9.73657C264.783 11.9091 267.195 14.477 269.526 17.3693L267.518 18.9548ZM224.466 5.86666L223.081 3.72528C226.124 1.79764 229.476 0.544214 233.045 0L233.436 2.51281C230.224 3.00279 227.206 4.13126 224.466 5.86666ZM252.529 5.86506C249.536 4.26835 246.42 3.17694 243.265 2.62083L243.715 0.117631C247.139 0.721346 250.514 1.902 253.747 3.6271L252.529 5.86506Z" fill="#D6E5D2"/>
<path d="M0.307774 350.626C0.307774 350.626 -3.04724 365.676 12.3969 369.696C33.5214 375.193 152.959 389.942 122.835 400.918C105.831 407.114 136.076 415.222 218.901 418.32C301.727 421.418 443.848 409.279 396.055 391.319C348.261 373.359 543.529 387.985 531.667 350.626H0.307774Z" fill="#D6E5D2"/>
<path d="M94.061 349.57C94.061 349.57 34.0194 181.857 79.0386 146.174C109.13 122.324 138.508 182.371 176.576 154.557C210.468 129.795 188.772 71.938 221.77 44.0442C262.355 9.73652 330.148 180.067 377.775 153.645C452.693 112.081 498.493 177.649 446.469 349.876L94.061 349.57Z" fill="#D6E5D2"/>
<path d="M503.412 278.506C482.097 275.379 484.027 322.377 453.644 322.377C425.865 322.377 411 217.373 380.516 238.729C257.964 324.587 353.317 178.484 270.912 175.629C233.651 174.337 208.822 213.664 199.665 283.295C186.393 346.244 155.613 235.283 123.937 245.6C103.805 252.157 106.11 322.377 78.3314 322.377C47.9483 322.377 49.9499 282.856 28.6348 285.984C5.68559 289.351 0.307617 350.626 0.307617 350.626H531.667C531.667 350.626 526.362 281.873 503.412 278.506Z" fill="#DCF6D5"/>
<path d="M482.965 327.813C463.356 326.476 466.556 338.552 438.604 338.552C413.048 338.552 413.75 311.488 396.648 305.736C365.154 295.144 339.19 348.753 326.98 321.848C303.789 250.456 236.153 214.654 204.95 321.848C192.74 348.753 164.186 300.744 135.281 305.736C117.489 308.809 118.882 338.552 93.3256 338.552C65.3737 338.552 68.5737 326.476 48.9645 327.813C27.8519 329.252 21.5459 350.626 21.5459 350.626H510.384C510.384 350.626 504.078 329.252 482.965 327.813Z" fill="#D6E5D2"/>
<path d="M421.058 138.501H413.159V150.473H401.424V158.532H413.159V170.504H421.058V158.532H432.793V150.473H421.058V138.501Z" fill="#4EAAB7"/>
<path d="M326.055 118.575H294.686V126.634H326.055V118.575Z" fill="#4EAAB7"/>
<path d="M63.2401 280.792H31.8711V288.851H63.2401V280.792Z" fill="#4EAAB7"/>
<path d="M63.2401 292.921H31.8711V300.98H63.2401V292.921Z" fill="#4EAAB7"/>
<path d="M384.499 315.799C386.328 310.783 386.706 306.284 384.184 303.014C381.364 299.358 377.217 301.156 377.217 301.156L377.217 301.156C377.217 301.156 375.277 296.137 371.679 296.137C369.115 296.137 364.765 298.597 363.504 303.014C362.526 306.44 357.514 306.644 357.136 312.1C356.757 317.557 361.832 319.763 359.468 324.612C357.577 328.492 360.036 331.129 365.143 332.609C370.25 334.088 383.239 333.188 387.526 327.913C391.814 322.638 382.553 321.139 384.499 315.799Z" fill="#8C4225"/>
<path d="M384.848 369.694C384.848 369.694 387.559 371.792 389.055 372.172C391.06 372.682 395.801 373.279 396.771 373.406C399.422 373.754 399.611 376.245 396.218 376.482L388.381 377.219C385.991 377.253 382.813 375.56 382.571 375.495C378.415 374.069 380.871 367.797 384.848 369.694Z" fill="#F99370"/>
<path d="M346.204 358.202C346.204 358.202 366.707 354.556 398.763 357.928C398.763 357.928 381.646 365.844 372.148 366.075C362.651 366.306 346.204 358.202 346.204 358.202Z" fill="#CADCC6"/>
<path d="M368.721 333.652C368.809 333.602 368.933 333.525 369.012 333.471C369.015 333.47 369.016 333.468 369.018 333.467C365.715 336.78 363.643 341.045 361.395 345.233C359.87 347.953 357.133 352.845 361.51 354.18C363.858 354.176 363.87 357.836 361.519 357.847C361.068 357.884 360.589 357.927 360.139 357.899C351.767 357.381 351.615 347.611 353.915 341.405C356.045 335.663 358.552 329.258 363.517 325.34C369.071 321.488 374.498 330.139 368.721 333.652Z" fill="#F99370"/>
<path d="M376.943 333.652C376.854 333.602 376.731 333.525 376.651 333.471C376.649 333.47 376.647 333.468 376.645 333.467C379.948 336.78 382.02 341.045 384.269 345.233C385.793 347.953 388.53 352.845 384.153 354.18C381.806 354.176 381.793 357.836 384.144 357.847C384.596 357.884 385.074 357.927 385.525 357.899C393.897 357.381 394.049 347.611 391.749 341.405C389.619 335.663 387.111 329.258 382.147 325.34C376.592 321.488 371.165 330.139 376.943 333.652Z" fill="#F99370"/>
<path d="M364.792 324.556L363.785 330.907L362.47 339.199L362.288 340.342C361.216 340.331 360.181 340.175 359.244 339.954C356.794 339.378 355.016 338.366 355.016 338.366C355.016 338.366 355.198 337.807 355.535 336.928C356.259 335.039 357.698 331.664 359.577 329.146C362.331 325.46 364.792 324.556 364.792 324.556Z" fill="#EB5648"/>
<path d="M391.034 338.805C391.034 338.805 389.28 339.635 386.764 340.095C385.439 340.339 383.902 340.479 382.298 340.343L382.244 339.201L382.213 338.532L381.552 324.374C381.552 324.374 387.224 325.372 390.611 337.223C390.757 337.73 390.897 338.257 391.034 338.805Z" fill="#EB5648"/>
<path d="M355.535 336.928C355.535 336.928 358.041 338.18 362.47 339.199L362.288 340.342C361.216 340.331 360.181 340.175 359.244 339.954C356.794 339.378 355.016 338.366 355.016 338.366C355.016 338.366 355.198 337.807 355.535 336.928Z" fill="#CE3932"/>
<path d="M391.034 338.805C391.034 338.805 389.281 339.635 386.764 340.095C385.439 340.339 383.902 340.479 382.298 340.343L382.245 339.201C385.442 338.753 388.417 338.101 390.612 337.223C390.757 337.73 390.898 338.257 391.034 338.805Z" fill="#CE3932"/>
<path d="M363.785 328.925V330.907L362.288 340.342C361.216 340.331 360.181 340.175 359.244 339.954C359.344 338.957 359.63 337.258 360.449 335.688C361.708 333.273 363.785 328.925 363.785 328.925Z" fill="#CE3932"/>
<path d="M386.764 340.095C385.439 340.339 383.903 340.479 382.298 340.342L382.214 338.532L382.543 328.925C382.543 328.925 383.546 332.395 385.139 335.073C386.192 336.845 386.605 338.903 386.764 340.095Z" fill="#CE3932"/>
<path d="M388.565 356.472C383.804 358.717 378.397 359.688 373.274 359.688C368.151 359.688 362.337 358.596 357.576 356.351C357.773 351.872 362.511 348.659 360.33 343.242C359.299 340.684 360.509 337.459 361.47 335.359C361.687 334.885 361.89 334.469 362.053 334.13C363.503 331.107 364.795 324.561 364.795 324.561L365.614 324.2C368.081 323.245 370.637 323.174 370.637 323.174H375.911C375.911 323.174 378.311 323.154 380.682 324.014L381.553 324.374C381.841 324.62 382.734 330.977 383.869 334.258C384.646 336.505 386.7 339.655 385.466 343.499C383.477 349.696 388.394 352.579 388.565 356.472Z" fill="#EB5648"/>
<path d="M375.912 322.514V316.818H370.636V322.553C370.636 322.553 366.997 323.664 365.614 324.2C365.663 324.29 368.83 330.082 373.274 331.81C373.274 331.81 378.88 328.628 380.682 324.013C379.402 323.549 375.912 322.514 375.912 322.514Z" fill="#F99370"/>
<path d="M381.805 311.449C381.57 312.584 380.654 313.348 379.758 313.155C378.863 312.962 378.328 311.886 378.563 310.75C378.798 309.615 379.715 308.852 380.61 309.045C381.505 309.238 382.04 310.314 381.805 311.449Z" fill="#F99370"/>
<path d="M381.051 311.985C381.039 311.985 381.026 311.984 381.013 311.979C380.945 311.958 380.906 311.884 380.927 311.814C381.16 311.035 381.152 310.499 380.903 310.264C380.628 310.004 380.077 310.143 379.888 310.219C379.821 310.245 379.746 310.212 379.72 310.144C379.694 310.076 379.727 309.999 379.794 309.973C379.827 309.959 380.63 309.645 381.08 310.07C381.411 310.383 381.443 310.996 381.175 311.892C381.158 311.949 381.107 311.985 381.051 311.985Z" fill="#C16256"/>
<path d="M379.84 311.8C379.824 311.8 379.806 311.797 379.79 311.79C379.724 311.761 379.693 311.684 379.721 311.616C379.74 311.571 380.198 310.499 381.189 310.432C381.259 310.426 381.322 310.483 381.327 310.555C381.332 310.628 381.278 310.691 381.206 310.696C380.376 310.752 379.964 311.71 379.96 311.72C379.939 311.771 379.891 311.8 379.84 311.8Z" fill="#C16256"/>
<path d="M365.055 311.449C365.29 312.584 366.207 313.348 367.102 313.155C367.997 312.962 368.532 311.886 368.297 310.75C368.062 309.615 367.146 308.852 366.25 309.045C365.355 309.238 364.82 310.314 365.055 311.449Z" fill="#F99370"/>
<path d="M365.81 311.985C365.755 311.985 365.704 311.948 365.686 311.892C365.418 310.996 365.451 310.383 365.782 310.07C366.232 309.645 367.034 309.959 367.068 309.973C367.135 309.999 367.168 310.076 367.142 310.144C367.116 310.212 367.04 310.245 366.974 310.219C366.967 310.216 366.288 309.952 365.958 310.265C365.709 310.5 365.701 311.036 365.934 311.814C365.955 311.884 365.917 311.958 365.848 311.98C365.836 311.984 365.823 311.985 365.81 311.985Z" fill="#C16256"/>
<path d="M367.021 311.8C366.971 311.8 366.923 311.77 366.902 311.72C366.897 311.711 366.486 310.752 365.655 310.696C365.584 310.691 365.53 310.628 365.534 310.555C365.539 310.483 365.602 310.426 365.672 310.432C366.663 310.499 367.121 311.571 367.14 311.616C367.168 311.684 367.138 311.761 367.072 311.79C367.055 311.797 367.038 311.8 367.021 311.8Z" fill="#C16256"/>
<path d="M375.912 321.11V318.256H370.637V321.11C370.637 321.11 373.275 322.524 375.912 321.11Z" fill="#E57D61"/>
<path d="M366.823 314.489C367.063 322.538 379.337 322.758 379.985 314.793C380.117 311.868 379.198 310.933 378.822 307.291C378.14 300.679 368.929 300.327 368.101 307.242C367.775 309.969 366.799 311.991 366.823 314.489Z" fill="#F99370"/>
<path d="M371.661 310.439C371.749 310.263 371.68 310.047 371.507 309.958C371.334 309.868 371.123 309.938 371.035 310.115C370.947 310.291 371.016 310.506 371.189 310.596C371.362 310.685 371.573 310.615 371.661 310.439Z" fill="#C16256"/>
<path d="M375.867 310.447C375.955 310.271 375.886 310.055 375.713 309.966C375.54 309.876 375.329 309.947 375.241 310.123C375.154 310.299 375.222 310.515 375.395 310.604C375.568 310.694 375.779 310.623 375.867 310.447Z" fill="#C16256"/>
<path d="M373.743 313.552C373.606 313.552 373.472 313.534 373.353 313.495C373.283 313.472 373.245 313.396 373.267 313.325C373.29 313.253 373.364 313.214 373.434 313.237C373.879 313.383 374.51 313.155 374.595 312.949C374.626 312.877 374.53 312.805 374.445 312.758C373.692 312.342 373.187 310.889 373.166 310.827C373.141 310.756 373.178 310.679 373.247 310.655C373.316 310.63 373.392 310.667 373.416 310.738C373.421 310.752 373.909 312.154 374.571 312.52C374.932 312.719 374.879 312.961 374.84 313.056C374.719 313.344 374.21 313.552 373.743 313.552Z" fill="#C16256"/>
<path d="M373.772 315.587C372.943 315.587 372.293 315.242 372.252 315.22C372.187 315.185 372.163 315.103 372.197 315.037C372.231 314.971 372.312 314.946 372.377 314.981C372.391 314.988 373.776 315.719 375.006 314.984C375.069 314.946 375.151 314.967 375.188 315.032C375.225 315.096 375.203 315.179 375.14 315.217C374.677 315.495 374.2 315.587 373.772 315.587Z" fill="#C16256"/>
<path d="M376.293 303.014C376.293 303.014 375.505 307.835 367.675 309.544C367.675 309.544 367.223 305.388 368.862 303.014C370.502 300.64 374.96 300.435 376.293 303.014Z" fill="#8C4225"/>
<path d="M376.293 303.014C376.293 303.014 375.93 307.599 379.174 309.555C379.174 309.555 380.004 304.359 376.293 303.014Z" fill="#8C4225"/>
<path d="M364.792 324.555C364.792 324.555 367.891 331.106 373.274 332.95C373.274 332.95 379.253 330.835 381.552 324.374C381.552 324.374 380.767 323.903 380.195 323.849C380.195 323.849 377.767 328.919 373.274 331.385C373.274 331.385 369.123 329.396 366.103 324.022C366.103 324.022 365.388 324.072 364.792 324.555Z" fill="#CE3932"/>
<path d="M388.838 361.59H356.371V342.223C356.371 341.785 356.719 341.429 357.149 341.429H388.059C388.489 341.429 388.838 341.785 388.838 342.223V361.59Z" fill="#163260"/>
<path d="M384.258 377.55C384.188 377.565 383.452 377.561 382.22 377.521C380.868 377.475 378.916 377.385 376.587 377.222C376.442 377.212 376.296 377.202 376.149 377.191C375.579 377.15 374.988 377.105 374.379 377.054C373.626 376.993 372.845 376.925 372.044 376.848C358.325 375.542 338.271 371.993 340.731 362.801C344.052 350.402 376.902 364.891 384.583 368.469C385.607 368.947 386.183 369.229 386.183 369.229C387.724 373.918 384.258 377.55 384.258 377.55Z" fill="#818B7E"/>
<path d="M385.355 372.594L384.682 375.168L376.148 377.191C375.578 377.151 374.987 377.105 374.378 377.055C373.625 376.993 372.844 376.925 372.043 376.848L371.396 374.892L385.355 372.594Z" fill="#CADCC6"/>
<path d="M384.258 377.55C384.187 377.565 383.452 377.562 382.22 377.521C382.22 377.521 386.028 373.81 384.582 368.47C385.606 368.947 386.183 369.23 386.183 369.23C387.723 373.918 384.258 377.55 384.258 377.55Z" fill="#CADCC6"/>
<path d="M360.663 370.851C360.663 370.851 358.161 373.204 356.708 373.728C354.759 374.432 350.097 375.49 349.143 375.711C346.537 376.316 346.582 378.814 349.982 378.719L357.852 378.687C360.235 378.487 363.239 376.491 363.474 376.402C367.477 374.578 364.443 368.574 360.663 370.851Z" fill="#F99370"/>
<path d="M364.015 378.431C362.927 378.572 362.28 378.638 362.212 378.631C362.212 378.631 358.422 375.354 359.515 370.537C359.515 370.537 360.075 370.191 361.069 369.604C368.439 365.258 399.692 347.697 404.155 359.697C408.548 371.512 372.589 377.319 364.015 378.431Z" fill="#818B7E"/>
<path d="M364.015 378.431C362.927 378.572 362.28 378.638 362.212 378.63C362.212 378.63 358.422 375.354 359.515 370.537C359.515 370.537 360.064 370.121 361.069 369.604C361.069 369.604 360.397 374.698 364.015 378.431Z" fill="#CADCC6"/>
<path d="M360.782 369.999C360.747 369.997 360.714 369.977 360.695 369.943C360.664 369.889 360.682 369.82 360.735 369.789C360.827 369.735 369.991 364.314 374.033 362.413C374.089 362.386 374.154 362.411 374.18 362.468C374.206 362.524 374.181 362.592 374.126 362.618C370.093 364.515 360.938 369.93 360.846 369.984C360.826 369.996 360.804 370.001 360.782 369.999Z" fill="#CADCC6"/>
<path d="M376.668 309.249C376.64 309.249 376.611 309.239 376.587 309.22C375.61 308.443 374.691 308.755 374.652 308.769C374.583 308.794 374.507 308.757 374.483 308.686C374.459 308.616 374.495 308.539 374.564 308.514C374.608 308.498 375.654 308.135 376.75 309.006C376.808 309.052 376.818 309.138 376.773 309.197C376.747 309.231 376.708 309.249 376.668 309.249Z" fill="#C16256"/>
<path d="M370.524 309.251C370.487 309.251 370.45 309.235 370.423 309.204C370.376 309.147 370.382 309.062 370.438 309.013C370.472 308.984 371.281 308.293 372.674 308.579C372.746 308.594 372.792 308.665 372.778 308.738C372.763 308.812 372.694 308.86 372.621 308.845C371.361 308.587 370.618 309.213 370.61 309.219C370.585 309.241 370.555 309.251 370.524 309.251Z" fill="#C16256"/>
<path d="M72.0829 242.013C52.9105 242.013 37.3125 226.1 37.3125 206.54C37.3125 186.981 52.9105 171.068 72.0829 171.068C91.2554 171.068 106.853 186.981 106.853 206.54C106.853 226.1 91.2554 242.013 72.0829 242.013ZM72.0829 173.356C54.1475 173.356 39.5558 188.243 39.5558 206.54C39.5558 224.838 54.1475 239.724 72.0829 239.724C90.0184 239.724 104.61 224.838 104.61 206.54C104.61 188.242 90.0184 173.356 72.0829 173.356Z" fill="#3DA188"/>
<path d="M72.0829 241.784C71.2287 241.784 70.3838 241.531 69.572 241.032L70.4976 239.464C71.5613 240.117 72.6242 240.113 73.6886 239.451L74.6223 241.015C73.8014 241.525 72.947 241.784 72.0829 241.784ZM66.3402 237.466C65.6394 236.299 64.9772 234.896 64.3719 233.294L66.0465 232.636C66.6127 234.134 67.2262 235.437 67.8703 236.51L66.3402 237.466ZM77.8413 237.441L76.3096 236.487C76.9525 235.412 77.5647 234.108 78.1296 232.609L79.8046 233.266C79.201 234.868 78.5405 236.272 77.8413 237.441ZM62.9959 228.951C62.6276 227.564 62.2911 226.077 61.9961 224.53L63.7577 224.18C64.0446 225.684 64.371 227.128 64.7282 228.472L62.9959 228.951ZM81.1773 228.923L79.4448 228.445C79.801 227.101 80.1268 225.657 80.4132 224.153L82.1751 224.502C81.8803 226.049 81.5447 227.537 81.1773 228.923ZM61.2778 220.067C61.0842 218.613 60.9207 217.103 60.7917 215.579L62.5798 215.421C62.7061 216.916 62.8665 218.396 63.0563 219.821L61.2778 220.067ZM82.8918 220.038L81.1133 219.793C81.3027 218.368 81.4626 216.888 81.5885 215.393L83.3766 215.55C83.248 217.075 83.0849 218.585 82.8918 220.038ZM60.5104 211.077C60.4494 209.592 60.4184 208.076 60.418 206.57L62.2126 206.569C62.213 208.05 62.2435 209.541 62.3034 211L60.5104 211.077ZM83.6565 211.048L81.8635 210.972C81.9229 209.513 81.9532 208.022 81.9532 206.54V206.482H83.7478V206.54C83.7478 208.047 83.7171 209.564 83.6565 211.048ZM62.3012 202.137L60.5081 202.062C60.5694 200.545 60.6634 199.03 60.787 197.559L62.5751 197.716C62.4537 199.16 62.3615 200.648 62.3012 202.137ZM81.8612 202.051C81.7998 200.563 81.7065 199.075 81.5837 197.63L83.3716 197.472C83.4966 198.944 83.5919 200.458 83.6545 201.974L81.8612 202.051ZM63.0486 193.316L61.2702 193.071C61.4734 191.537 61.7139 190.035 61.9853 188.607L63.7472 188.955C63.4823 190.349 63.2474 191.817 63.0486 193.316ZM81.1059 193.231C80.9056 191.731 80.6689 190.264 80.4027 188.872L82.1641 188.521C82.4371 189.948 82.6794 191.45 82.8844 192.984L81.1059 193.231ZM64.7136 184.663L62.9809 184.186C63.395 182.62 63.856 181.158 64.3508 179.842L66.0266 180.497C65.5537 181.755 65.112 183.157 64.7136 184.663ZM79.4302 184.58C79.0296 183.075 78.5852 181.674 78.1094 180.418L79.7833 179.758C80.2813 181.073 80.7452 182.534 81.162 184.1L79.4302 184.58ZM67.8422 176.617L66.309 175.666C67.2998 174.004 68.3786 172.799 69.5155 172.083L70.4572 173.642C69.5644 174.203 68.6846 175.205 67.8422 176.617ZM76.2816 176.547C75.4323 175.139 74.5464 174.149 73.6482 173.604L74.5651 172.031C75.7154 172.728 76.8072 173.925 77.8099 175.588L76.2816 176.547Z" fill="#3DA188"/>
<path d="M72.1402 218.441H72.0832C70.6049 218.441 69.1183 218.409 67.6647 218.348L67.7392 216.519C69.1681 216.579 70.6296 216.61 72.0832 216.61H72.1402V218.441ZM76.5587 218.345L76.4831 216.516C77.9433 216.453 79.4014 216.358 80.8169 216.233L80.9717 218.057C79.5299 218.184 78.0453 218.281 76.5587 218.345ZM63.2518 218.062C61.7593 217.931 60.2792 217.765 58.8523 217.568L59.093 215.753C60.491 215.946 61.9419 216.109 63.4054 216.238L63.2518 218.062ZM85.3714 217.559L85.1291 215.745C86.6 215.541 88.0377 215.299 89.4025 215.028L89.7459 216.825C88.3477 217.103 86.8759 217.35 85.3714 217.559ZM54.4768 216.836C52.9608 216.535 51.5029 216.193 50.1435 215.818L50.6121 214.05C51.9298 214.414 53.3453 214.747 54.8191 215.038L54.4768 216.836ZM94.0788 215.803L93.6081 214.036C95.0853 213.626 96.458 213.173 97.6877 212.688L98.3347 214.396C97.0473 214.903 95.6154 215.377 94.0788 215.803ZM45.8863 214.418C44.3171 213.802 42.9407 213.128 41.7948 212.415L42.7296 210.852C43.7832 211.508 45.0619 212.133 46.5301 212.709L45.8863 214.418ZM102.423 212.383L101.483 210.823C102.863 209.957 103.834 209.053 104.367 208.137L105.91 209.072C105.226 210.246 104.053 211.36 102.423 212.383ZM38.2908 209.131C37.7908 208.293 37.5373 207.422 37.5371 206.54C37.5371 205.669 37.7848 204.807 38.2736 203.979L39.8111 204.923C39.493 205.462 39.3315 206.006 39.3315 206.54C39.3315 207.081 39.497 207.632 39.8232 208.178L38.2908 209.131ZM104.331 204.882C103.78 203.971 102.799 203.073 101.414 202.214L102.346 200.65C103.976 201.661 105.157 202.761 105.858 203.921L104.331 204.882ZM42.7069 202.242L41.7692 200.681C42.9133 199.966 44.2893 199.291 45.8591 198.673L46.5045 200.382C45.0361 200.959 43.7583 201.585 42.7069 202.242ZM97.6106 200.362C96.3775 199.879 95.0039 199.428 93.5276 199.022L93.9951 197.254C95.5304 197.677 96.9629 198.147 98.2533 198.652L97.6106 200.362ZM50.5854 199.037L50.1162 197.27C51.4751 196.894 52.9328 196.551 54.449 196.25L54.792 198.047C53.318 198.34 51.9027 198.673 50.5854 199.037ZM89.3202 198.036C87.9538 197.766 86.5157 197.526 85.0459 197.323L85.2861 195.509C86.7898 195.716 88.262 195.962 89.6616 196.239L89.3202 198.036ZM59.0656 197.331L58.824 195.517C60.2498 195.319 61.7302 195.153 63.2235 195.021L63.3778 196.845C61.9132 196.974 60.4625 197.138 59.0656 197.331ZM80.7332 196.84C79.3175 196.716 77.8594 196.622 76.3992 196.561L76.4733 194.732C77.9597 194.794 79.4445 194.89 80.8864 195.016L80.7332 196.84ZM67.7116 196.563L67.6364 194.734C69.0892 194.672 70.5755 194.64 72.0545 194.64L72.0552 196.471C70.6009 196.471 69.1396 196.502 67.7116 196.563Z" fill="#3DA188"/>
<path d="M72.5318 238.465H71.4102V236.177H72.5318V238.465ZM72.5318 233.888H71.4102V231.6H72.5318V233.888ZM72.5318 229.311H71.4102V227.023H72.5318V229.311ZM72.5318 224.734H71.4102V222.446H72.5318V224.734ZM72.5318 220.157H71.4102V217.868H72.5318V220.157ZM72.5318 215.58H71.4102V213.291H72.5318V215.58ZM72.5318 211.003H71.4102V208.714H72.5318V211.003ZM72.5318 206.426H71.4102V204.137H72.5318V206.426ZM72.5318 201.849H71.4102V199.56H72.5318V201.849ZM72.5318 197.272H71.4102V194.983H72.5318V197.272ZM72.5318 192.695H71.4102V190.406H72.5318V192.695ZM72.5318 188.118H71.4102V185.829H72.5318V188.118ZM72.5318 183.54H71.4102V181.252H72.5318V183.54ZM72.5318 178.963H71.4102V176.675H72.5318V178.963ZM72.5318 174.386H71.4102V172.098H72.5318V174.386Z" fill="#3DA188"/>
<path d="M105.62 206.998H103.377V205.854H105.62V206.998ZM101.133 206.998H98.8901V205.854H101.133V206.998ZM96.6468 206.998H94.4035V205.854H96.6468V206.998ZM92.1603 206.998H89.917V205.854H92.1603V206.998ZM87.6738 206.998H85.4305V205.854H87.6738V206.998ZM83.1873 206.998H80.944V205.854H83.1873V206.998ZM78.7008 206.998H76.4575V205.854H78.7008V206.998ZM74.2143 206.998H71.971V205.854H74.2143V206.998ZM69.7277 206.998H67.4845V205.854H69.7277V206.998ZM65.2412 206.998H62.998V205.854H65.2412V206.998ZM60.7547 206.998H58.5115V205.854H60.7547V206.998ZM56.2682 206.998H54.025V205.854H56.2682V206.998ZM51.7817 206.998H49.5384V205.854H51.7817V206.998ZM47.2952 206.998H45.0519V205.854H47.2952V206.998ZM42.8087 206.998H40.5654V205.854H42.8087V206.998Z" fill="#3DA188"/>
<path d="M382.394 265.129L372.709 259.423V263.984H345.829V236.561H350.3L344.707 226.681L339.115 236.561H343.586V266.273H372.709V270.834L382.394 265.129Z" fill="#3DA188"/>
<path d="M193.54 231.841C194.578 234.805 192.56 233.303 196.984 233.583C197.911 233.642 199.86 233.577 198.888 231.636C198.102 229.408 198.78 223.225 198.275 220.92C195.988 210.612 188.251 216.739 193.54 231.841Z" fill="#ED8569"/>
<path d="M199.523 235.349C199.502 236.021 199.191 236.795 198.428 236.795L184.489 237.106C183.769 237.123 183.242 236.399 183.483 235.707C183.991 234.144 186.228 231.423 193.368 231.343C193.368 231.343 195.694 231.998 198.744 231.117C198.744 231.117 199.774 232.809 199.523 235.349Z" fill="#EB5648"/>
<path d="M187.771 235.109C187.808 235.109 187.846 235.101 187.882 235.085C188.032 235.018 188.102 234.841 188.037 234.688C187.367 233.105 186.169 232.639 186.119 232.62C185.964 232.563 185.795 232.642 185.738 232.798C185.682 232.954 185.759 233.127 185.912 233.186C185.953 233.202 186.928 233.592 187.493 234.927C187.542 235.043 187.654 235.112 187.771 235.109Z" fill="#E8C0A6"/>
<path d="M190.066 234.775C190.095 234.774 190.124 234.769 190.154 234.76C190.309 234.707 190.392 234.535 190.341 234.377C189.756 232.592 188.235 231.812 188.171 231.781C188.024 231.706 187.847 231.768 187.775 231.917C187.702 232.067 187.762 232.247 187.909 232.322C187.923 232.328 189.274 233.028 189.778 234.569C189.821 234.697 189.94 234.778 190.066 234.775Z" fill="#E8C0A6"/>
<path d="M192.679 234.388C192.711 234.388 192.744 234.381 192.776 234.369C192.93 234.311 193.007 234.137 192.95 233.981C192.291 232.177 190.874 231.251 190.814 231.212C190.676 231.124 190.494 231.165 190.406 231.306C190.319 231.447 190.36 231.633 190.498 231.723C190.511 231.731 191.807 232.585 192.395 234.192C192.44 234.316 192.556 234.391 192.679 234.388Z" fill="#E8C0A6"/>
<path d="M183.484 235.707L199.524 235.349C199.476 235.85 199.351 236.337 199.115 236.78L184.49 237.105C183.779 237.121 183.255 236.419 183.476 235.731C183.479 235.723 183.481 235.715 183.484 235.707Z" fill="#CE3932"/>
<path d="M214.104 240.711C215.616 243.287 213.685 243.975 217.121 242.695C219.374 241.668 220.123 241.407 219.277 239.309C218.601 236.795 217.84 231.95 217.344 229.397C216.071 221.611 205.931 226.787 214.104 240.711Z" fill="#F99370"/>
<path d="M221.052 243.152C221.192 243.809 221.077 244.636 220.337 244.828L206.899 248.618C206.205 248.815 205.52 248.245 205.588 247.514C205.704 245.872 206.801 242.68 214.14 240.798C214.14 240.798 216.504 240.928 219.244 239.187C219.244 239.187 220.683 240.627 221.052 243.152Z" fill="#EB5648"/>
<path d="M209.601 245.862C209.636 245.852 209.671 245.835 209.703 245.81C209.832 245.708 209.857 245.519 209.757 245.386C208.726 244.019 207.453 243.867 207.4 243.862C207.237 243.845 207.091 243.965 207.074 244.13C207.056 244.295 207.174 244.444 207.336 244.462C207.38 244.467 208.418 244.602 209.287 245.754C209.363 245.855 209.488 245.893 209.601 245.862Z" fill="#E8C0A6"/>
<path d="M211.746 244.963C211.774 244.955 211.801 244.943 211.827 244.926C211.965 244.836 212.005 244.649 211.917 244.509C210.92 242.924 209.259 242.549 209.189 242.534C209.028 242.499 208.872 242.603 208.838 242.766C208.803 242.929 208.905 243.089 209.065 243.125C209.08 243.128 210.559 243.468 211.418 244.835C211.49 244.949 211.624 244.997 211.746 244.963Z" fill="#E8C0A6"/>
<path d="M214.185 243.934C214.216 243.926 214.246 243.911 214.275 243.892C214.409 243.797 214.443 243.609 214.35 243.472C213.276 241.888 211.681 241.345 211.613 241.322C211.458 241.271 211.291 241.357 211.24 241.515C211.19 241.674 211.274 241.844 211.429 241.896C211.444 241.901 212.906 242.404 213.863 243.815C213.936 243.924 214.067 243.968 214.185 243.934Z" fill="#E8C0A6"/>
<path d="M205.588 247.514L221.052 243.152C221.125 243.649 221.122 244.153 220.999 244.641L206.9 248.618C206.215 248.812 205.538 248.262 205.586 247.54C205.587 247.531 205.588 247.523 205.588 247.514Z" fill="#CE3932"/>
<path d="M188.648 224.717C188.864 226.504 189.042 227.577 189.054 227.686C189.054 227.686 194.571 228.844 201.912 227.686C201.959 217.848 201.893 199.562 209.019 193.502C210.678 192.372 214.877 189.358 218.003 187.483C225.832 183.603 237.451 180.613 240.646 173.086C236.428 171.305 227.606 167.581 223.347 165.782C188.683 169.637 185.357 201.459 188.648 224.717Z" fill="#818B7E"/>
<path d="M202.164 216.239C203.307 200.002 204.97 194.568 218.003 187.483L224.125 173.195C207.638 178.402 193.631 195.646 202.164 216.239Z" fill="#138EA0"/>
<path d="M202.353 213.629C203.971 223.078 206.728 230.512 209.019 237.986C209.019 237.986 218.035 238.564 222.556 233.703C220.619 226.371 217.218 212.114 220.913 201.475C222.391 197.573 226.238 191.453 237.816 187.992C252.241 183.677 250.054 170.312 250.054 170.312C245.014 160.332 235.712 169.115 232.98 169.849C209.969 176.944 196.954 191.741 202.353 213.629Z" fill="#818B7E"/>
<path d="M208.154 235.225L209.019 237.986C209.019 237.986 218.035 238.564 222.556 233.703C222.556 233.703 222.268 232.628 221.858 230.978C221.858 230.978 216.862 236.499 208.154 235.225Z" fill="#138EA0"/>
<path d="M188.647 224.717C188.863 226.505 189.042 227.577 189.054 227.686C189.054 227.686 194.571 228.844 201.912 227.686C201.912 227.732 201.926 225.015 201.926 225.015C201.926 225.015 194.634 226.631 188.647 224.717Z" fill="#138EA0"/>
<path d="M247.2 141.534C264.378 130.928 269.003 114.972 265.318 95.5028C264.765 92.7749 260.718 93.3564 260.915 96.1253C260.972 111.586 253.942 123.409 238.915 128.958C238.92 128.955 239.278 145.245 247.2 141.534Z" fill="#F99370"/>
<path d="M259.933 136.406V136.409C259.933 136.409 259.933 136.406 259.93 136.409C259.753 136.635 259.569 136.861 259.38 137.085C257.067 139.859 254.621 143.287 251.555 145.503C251.553 145.506 251.553 145.506 251.55 145.506C250.469 146.289 249.31 146.92 248.054 147.32C245.921 146.294 238.523 138.844 238.556 127.802C248.171 124.511 258.705 118.361 260.88 98.3647C260.88 98.3647 263.753 99.4359 265.856 98.7313C268.411 109.526 269.044 124.95 259.933 136.406Z" fill="#38727B"/>
<path d="M266.206 100.422C263.794 101.272 260.778 100.052 260.685 100.013C260.757 99.4748 260.823 98.9244 260.881 98.364C260.881 98.364 263.754 99.4373 265.856 98.732C265.856 98.732 266.005 99.3464 266.206 100.422Z" fill="#095763"/>
<path d="M230.045 141.213C210.451 136.74 201.085 123.118 198.501 103.465C198.173 100.7 202.138 99.963 202.816 102.652C207.692 117.172 215.575 127.343 231.541 127.699C231.536 127.697 231.522 127.694 231.517 127.692C240.181 128.715 238.713 142.156 230.045 141.213Z" fill="#F99370"/>
<path d="M233.224 127.411L222.166 144.101C222.166 144.101 221.366 143.682 220.108 142.866C218.094 141.556 214.911 139.228 211.973 135.973C203.139 126.188 199.254 111.734 198.843 105.784C201.865 106.058 203.464 104.377 203.464 104.377C203.671 104.846 203.898 105.322 204.133 105.805V105.808C210.383 119.207 221.59 127.847 233.224 127.411Z" fill="#38727B"/>
<path d="M204.133 105.806L204.133 105.807C202.383 107.549 199.043 107.5 199.043 107.5C198.893 106.413 198.843 105.785 198.843 105.785C201.865 106.058 203.464 104.376 203.464 104.376C203.672 104.845 203.897 105.322 204.133 105.806Z" fill="#095763"/>
<path d="M233.228 127.408C233.106 124.455 233.858 120.253 234.381 118.553C235.347 115.177 240.59 116.899 239.464 120.204C239.299 120.081 238.307 126.254 238.565 128.007C243.464 129.908 228.043 133.829 233.228 127.408Z" fill="#F99370"/>
<path d="M239.534 119.925C239.525 119.964 239.517 120.005 239.507 120.044C239.494 120.098 239.479 120.151 239.463 120.204C239.344 120.111 238.754 123.514 238.574 126.002C236.203 126.896 233.678 126.239 233.217 126.106C233.301 123.468 233.935 120.237 234.231 119.033C234.313 118.751 234.37 118.587 234.38 118.553C234.404 118.477 234.431 118.403 234.461 118.33C234.772 117.569 235.395 117.019 236.125 116.786C236.127 116.786 236.127 116.786 236.127 116.786C236.634 116.625 237.191 116.617 237.734 116.794C238.272 116.97 238.718 117.303 239.037 117.728C239.051 117.745 239.064 117.764 239.077 117.781C239.505 118.382 239.69 119.157 239.534 119.925Z" fill="#E57D61"/>
<path d="M230.94 112.915C230.94 112.915 231.655 110.068 232.989 108.31L234.404 109.5L230.94 112.915Z" fill="#8B79F1"/>
<path d="M228.946 121.267C230.39 123.703 233.2 124.976 235.67 125.03C236.438 125.058 237.197 124.965 237.911 124.721L237.912 124.722C238.153 124.639 238.386 124.542 238.613 124.428L238.616 124.429C249.7 117.413 241.057 99.4318 232.457 111.208C229.722 114.448 225.999 115.638 228.946 121.267Z" fill="#F99370"/>
<path d="M231.182 118.471L234.665 117.605C234.665 117.605 234.449 119.377 233.111 119.549C231.831 119.712 231.182 118.471 231.182 118.471Z" fill="#F9F8F3"/>
<path d="M234.534 114.755C234.486 114.553 234.607 114.35 234.805 114.301C235.003 114.253 235.203 114.377 235.25 114.578C235.298 114.78 235.177 114.983 234.979 115.032C234.781 115.081 234.582 114.957 234.534 114.755Z" fill="#C16256"/>
<path d="M231.637 113.509C231.589 113.307 231.711 113.104 231.909 113.055C232.107 113.006 232.306 113.131 232.354 113.332C232.402 113.534 232.28 113.737 232.082 113.786C231.885 113.834 231.685 113.71 231.637 113.509Z" fill="#C16256"/>
<path d="M231.134 118.605C231.159 118.614 231.187 118.617 231.215 118.61L234.698 117.743C234.773 117.724 234.819 117.648 234.8 117.571C234.782 117.495 234.706 117.448 234.631 117.467L231.148 118.333C231.073 118.352 231.028 118.429 231.046 118.505C231.057 118.553 231.092 118.589 231.134 118.605Z" fill="#C16256"/>
<path d="M231.835 116.901C232.04 116.978 232.257 117.018 232.452 117.002C232.529 116.997 232.586 116.928 232.58 116.85C232.574 116.771 232.506 116.713 232.43 116.719C231.941 116.757 231.35 116.369 231.311 116.138C231.297 116.056 231.411 116.007 231.51 115.98C232.378 115.741 233.239 114.381 233.275 114.324C233.317 114.257 233.298 114.17 233.233 114.127C233.166 114.083 233.082 114.104 233.04 114.17C233.032 114.183 232.201 115.495 231.437 115.705C231.02 115.819 231.018 116.08 231.036 116.186C231.083 116.464 231.435 116.752 231.835 116.901Z" fill="#C16256"/>
<path d="M233.082 110.402C235.271 109.828 238.576 111.636 240.311 112.042C240.311 112.042 239.239 114.974 241.727 117.851C241.332 120.69 241.497 122.012 237.91 124.721L237.911 124.722C238.152 124.639 238.385 124.542 238.612 124.428L238.615 124.429C249.268 117.76 241.537 100.089 233.082 110.402Z" fill="#E57D61"/>
<path d="M233.016 104.025C234.655 102.051 238.252 101.633 240.463 105.103C242.166 107.774 244.547 108.334 243.974 110.574C247.913 113.69 244.565 118.12 244.565 118.12L242.414 117.316C240.372 114.615 241.164 111.566 241.164 111.566L241.164 111.566C240.594 111.457 240.006 111.288 239.512 111.024C237.982 110.204 235.62 109.413 233.622 109.658C231.624 109.902 231.183 106.232 233.016 104.025Z" fill="#8B79F1"/>
<path d="M244.456 120.016C243.946 121.117 242.828 121.671 241.958 121.252C241.089 120.834 240.797 119.602 241.306 118.501C241.816 117.399 242.934 116.846 243.804 117.264C244.673 117.683 244.965 118.915 244.456 120.016Z" fill="#F99370"/>
<path d="M242.64 117.953C242.679 117.948 243.595 117.821 243.963 118.381C244.057 118.523 244.101 118.696 244.103 118.894C244.103 118.895 244.103 118.895 244.103 118.896C244.103 118.914 244.105 118.932 244.105 118.951C244.105 118.951 244.105 118.951 244.105 118.951V118.952C244.091 119.317 243.93 119.771 243.621 120.31C243.587 120.37 243.515 120.395 243.453 120.372C243.445 120.369 243.438 120.366 243.43 120.361C243.364 120.322 243.341 120.234 243.38 120.167C243.631 119.73 243.774 119.36 243.813 119.063C242.997 119.016 242.397 119.815 242.391 119.824C242.353 119.876 242.287 119.894 242.23 119.873C242.218 119.868 242.207 119.861 242.195 119.853C242.133 119.807 242.12 119.718 242.166 119.655C242.195 119.614 242.854 118.719 243.813 118.769C243.799 118.683 243.774 118.605 243.732 118.54C243.462 118.129 242.687 118.234 242.68 118.236C242.603 118.246 242.533 118.192 242.522 118.114C242.511 118.036 242.564 117.965 242.64 117.953Z" fill="#C16256"/>
<path d="M240.853 119.949L242.169 119.24C242.179 119.184 242.194 119.128 242.22 119.074C242.373 118.757 242.749 118.627 243.06 118.784C243.371 118.94 243.498 119.323 243.345 119.64C243.196 119.948 242.837 120.077 242.532 119.94L241.217 120.649C241.115 120.703 241.001 120.707 240.901 120.67C240.814 120.638 240.738 120.574 240.692 120.484C240.591 120.291 240.663 120.051 240.853 119.949Z" fill="#FDFFDE"/>
<path d="M215.62 167.225C215.62 167.225 228.118 174.097 250.172 172.215C250.172 172.215 250.241 171.629 250.346 170.607C250.804 166.25 251.967 153.981 251.546 145.509C251.546 145.509 250.965 138.322 249.717 134.817C245.929 124.177 238.557 127.801 238.557 127.801C236.836 131.348 232.742 134.167 232.742 134.167C232.041 130.46 233.169 127.581 233.223 127.41C227.545 128.739 222.447 133.109 220.164 142.708C219.093 147.204 215.216 158.081 214.797 163.785C214.679 165.385 215.055 166.696 215.62 167.225Z" fill="#38727B"/>
<path d="M231.279 127.4C231.279 127.4 230.172 132.745 232.158 135.973C232.158 135.973 238.13 133.928 240.331 127.163C240.331 127.163 239.51 127.116 238.556 127.802C238.556 127.802 235.76 131.761 233.007 133.653C233.007 133.653 232.357 131.319 233.224 127.41C233.224 127.41 232.204 127.124 231.279 127.4Z" fill="#E8C0A6"/>
<path d="M236.67 114.365C236.608 114.36 236.55 114.321 236.522 114.259C236.048 113.174 235.041 112.875 235.031 112.872C234.938 112.846 234.883 112.747 234.909 112.652C234.935 112.556 235.032 112.5 235.125 112.526C235.172 112.54 236.3 112.868 236.844 114.112C236.883 114.203 236.843 114.309 236.755 114.349C236.727 114.362 236.698 114.367 236.67 114.365Z" fill="#C16256"/>
<path d="M233.99 112.238C233.959 112.235 233.928 112.225 233.901 112.205C233.013 111.561 232.375 111.902 232.368 111.906C232.283 111.953 232.176 111.921 232.13 111.834C232.083 111.747 232.115 111.638 232.2 111.59C232.234 111.572 233.04 111.14 234.104 111.913C234.184 111.97 234.202 112.082 234.146 112.163C234.109 112.216 234.049 112.242 233.99 112.238Z" fill="#C16256"/>
<path d="M259.931 136.409C259.753 136.635 259.569 136.861 259.38 137.085C257.067 139.859 254.622 143.287 251.555 145.504C251.553 145.506 251.553 145.506 251.55 145.506C251.548 145.508 251.546 145.508 251.546 145.508C251.462 140.777 250.25 138.085 250.176 137.92C253.627 141.913 259.791 136.532 259.931 136.409Z" fill="#095763"/>
<path d="M222.18 136.842C222.18 136.842 220.891 140.023 220.163 142.708C220.149 142.763 220.13 142.815 220.107 142.865C218.093 141.556 214.91 139.227 211.972 135.973C211.972 135.973 217.855 140.473 222.18 136.842Z" fill="#095763"/>
<path d="M159.479 103.123L225.807 19.0729L308.194 86.7394L159.479 103.123ZM228.949 48.7593L206.933 76.6581L256.296 71.2199L228.949 48.7593Z" fill="#EB5648"/>
<path d="M296.93 82.763L296.038 82.8613L296.583 88.0077L297.475 87.9094L296.93 82.763Z" fill="#CE3932"/>
<path d="M292.346 79.8361L291.454 79.9343L292.36 88.4934L293.252 88.3952L292.346 79.8361Z" fill="#CE3932"/>
<path d="M283.924 80.7421L283.032 80.8404L283.939 89.3997L284.831 89.3014L283.924 80.7421Z" fill="#CE3932"/>
<path d="M263.21 86.4729L262.318 86.5712L262.863 91.7176L263.755 91.6193L263.21 86.4729Z" fill="#CE3932"/>
<path d="M258.633 83.5289L257.741 83.6272L258.648 92.1865L259.54 92.0882L258.633 83.5289Z" fill="#CE3932"/>
<path d="M280.07 84.6215L279.178 84.7198L279.723 89.8663L280.615 89.768L280.07 84.6215Z" fill="#CE3932"/>
<path d="M275.486 81.6934L274.594 81.7916L275.499 90.3509L276.391 90.2527L275.486 81.6934Z" fill="#CE3932"/>
<path d="M246.35 88.3312L245.458 88.4295L246.003 93.5757L246.895 93.4774L246.35 88.3312Z" fill="#CE3932"/>
<path d="M241.773 85.387L240.881 85.4853L241.787 94.0446L242.679 93.9463L241.773 85.387Z" fill="#CE3932"/>
<path d="M221.057 91.1242L220.165 91.2225L220.71 96.3689L221.602 96.2706L221.057 91.1242Z" fill="#CE3932"/>
<path d="M216.483 88.1707L215.591 88.269L216.497 96.8283L217.389 96.73L216.483 88.1707Z" fill="#CE3932"/>
<path d="M195.766 93.9111L194.874 94.0095L195.419 99.1559L196.311 99.0576L195.766 93.9111Z" fill="#CE3932"/>
<path d="M191.192 90.9578L190.3 91.0562L191.206 99.6155L192.098 99.5171L191.192 90.9578Z" fill="#CE3932"/>
<path d="M229.49 90.1888L228.598 90.2871L229.143 95.4335L230.035 95.3352L229.49 90.1888Z" fill="#CE3932"/>
<path d="M224.913 87.242L224.021 87.3403L224.927 95.8994L225.819 95.801L224.913 87.242Z" fill="#CE3932"/>
<path d="M204.197 92.9816L203.305 93.08L203.85 98.2264L204.742 98.128L204.197 92.9816Z" fill="#CE3932"/>
<path d="M199.622 90.0294L198.729 90.1277L199.636 98.6868L200.528 98.5885L199.622 90.0294Z" fill="#CE3932"/>
<path d="M178.906 95.77L178.014 95.8683L178.559 101.015L179.451 100.916L178.906 95.77Z" fill="#CE3932"/>
<path d="M174.332 92.8153L173.439 92.9136L174.346 101.473L175.238 101.375L174.332 92.8153Z" fill="#CE3932"/>
<path d="M187.336 94.8399L186.444 94.9382L186.989 100.085L187.881 99.9863L187.336 94.8399Z" fill="#CE3932"/>
<path d="M182.761 91.887L181.869 91.9854L182.775 100.545L183.668 100.446L182.761 91.887Z" fill="#CE3932"/>
<path d="M288.5 83.6927L287.608 83.791L288.153 88.9374L289.045 88.8391L288.5 83.6927Z" fill="#CE3932"/>
<path d="M271.639 85.5506L270.747 85.6489L271.292 90.7953L272.184 90.697L271.639 85.5506Z" fill="#CE3932"/>
<path d="M267.063 82.6004L266.171 82.6987L267.077 91.2577L267.969 91.1594L267.063 82.6004Z" fill="#CE3932"/>
<path d="M254.781 87.4021L253.889 87.5004L254.434 92.6465L255.326 92.5482L254.781 87.4021Z" fill="#CE3932"/>
<path d="M250.203 84.457L249.311 84.5553L250.217 93.1146L251.109 93.0163L250.203 84.457Z" fill="#CE3932"/>
<path d="M237.919 89.2614L237.027 89.3597L237.572 94.5062L238.464 94.4078L237.919 89.2614Z" fill="#CE3932"/>
<path d="M233.342 86.3152L232.45 86.4135L233.357 94.9728L234.249 94.8745L233.342 86.3152Z" fill="#CE3932"/>
<path d="M212.627 92.0534L211.735 92.1517L212.28 97.2981L213.172 97.1998L212.627 92.0534Z" fill="#CE3932"/>
<path d="M208.052 89.0996L207.16 89.1979L208.066 97.7572L208.959 97.6589L208.052 89.0996Z" fill="#CE3932"/>
<path d="M170.478 96.6934L169.586 96.7917L170.131 101.938L171.023 101.84L170.478 96.6934Z" fill="#CE3932"/>
<path d="M261.028 88.8407C261.826 88.837 261.62 91.2141 262.036 91.8245L267.939 91.1741C267.663 92.7312 266.516 95.1367 265.472 96.343C264.856 97.0545 261.249 96.9938 260.916 96.1253C260.273 94.452 260.332 92.6848 260.428 92.2653C260.651 91.2956 260.166 89.2753 261.028 88.8407Z" fill="#F99370"/>
<path d="M200.538 95.6409C199.629 95.9157 200.826 98.5677 200.826 98.5677L194.984 99.2112C196.253 101.321 197.03 102.689 199.178 104.014C199.974 104.506 203.013 104.309 203.064 103.378C203.144 101.934 202.594 99.1364 202.463 98.7267C202.335 97.8864 201.459 95.3621 200.538 95.6409Z" fill="#F99370"/>
<path d="M145.263 123.628H133.537V59.2106C133.537 58.7682 133.186 58.4096 132.752 58.4096H116.53C116.27 58.4096 116.028 58.5403 115.881 58.7586L72.1632 124.047C72.0741 124.18 72.0264 124.338 72.0264 124.499V141.75C72.0264 142.193 72.3779 142.551 72.8115 142.551H113.27V162.438C113.27 162.88 113.621 163.239 114.055 163.239H132.752C133.186 163.239 133.537 162.88 133.537 162.438V142.551H145.263C145.696 142.551 146.048 142.192 146.048 141.75V124.429C146.048 123.986 145.696 123.628 145.263 123.628ZM92.3642 123.628L113.27 91.9211V123.628H92.3642Z" fill="#41AE95"/>
<path d="M472.852 238.672C466.767 232.179 459.245 228.887 450.494 228.887C446.382 228.887 442.298 229.798 438.333 231.599L440.979 216.323H476.752C477.186 216.323 477.537 215.965 477.537 215.522V197.079C477.537 196.637 477.186 196.278 476.752 196.278H425.679C425.301 196.278 424.977 196.552 424.907 196.931L415.009 250.438C414.969 250.652 415.017 250.874 415.142 251.052C415.266 251.229 415.456 251.348 415.668 251.379L431.341 253.693C431.6 253.731 431.862 253.634 432.037 253.435C436.261 248.633 441.083 246.198 446.369 246.198C450.619 246.198 453.97 247.659 456.611 250.665C459.238 253.655 460.569 258.252 460.569 264.331C460.569 270.836 459.222 275.745 456.564 278.923C453.901 282.108 450.746 283.657 446.919 283.657C443.614 283.657 440.649 282.42 438.109 279.982C435.554 277.531 433.993 274.142 433.47 269.911C433.416 269.479 433.034 269.169 432.61 269.214L413.363 271.248C413.151 271.271 412.957 271.379 412.826 271.55C412.695 271.72 412.637 271.938 412.665 272.153C413.832 280.917 417.461 287.999 423.451 293.202C429.435 298.401 437.261 301.037 446.713 301.037C458.562 301.037 467.956 296.35 474.634 287.108C479.525 280.36 482.005 272.579 482.005 263.98C482.005 253.67 478.926 245.155 472.852 238.672Z" fill="#41AE95"/>
<path d="M391.902 71.1135H343.335C343.016 71.1135 342.758 71.3771 342.758 71.7023V85.1589C342.758 85.4841 343.016 85.7477 343.335 85.7477H374.442C368.102 94.0888 362.941 103.615 359.093 114.083C355.096 124.957 352.95 135.777 352.714 146.242C352.71 146.4 352.77 146.553 352.878 146.667C352.987 146.78 353.136 146.844 353.291 146.844H366.987C367.14 146.844 367.288 146.782 367.396 146.671C367.504 146.56 367.565 146.409 367.564 146.252C367.531 139.668 368.604 132.078 370.755 123.693C372.905 115.308 376.075 107.28 380.175 99.8318C384.274 92.387 388.355 86.6027 392.307 82.6399C392.417 82.5291 392.479 82.3779 392.479 82.22V71.7021C392.48 71.3771 392.221 71.1135 391.902 71.1135Z" fill="#FEA32F"/>
<path d="M484.649 116.685H481.863V114.79H482.792V113.843H484.649V116.685Z" fill="#3DA188"/>
<path d="M477.774 116.685H473.684V114.791H477.774V116.685ZM469.595 116.685H465.505V114.791H469.595V116.685ZM461.415 116.685H457.326V114.791H461.415V116.685ZM453.236 116.685H449.146V114.791H453.236V116.685Z" fill="#3DA188"/>
<path d="M445.057 116.685H442.271V113.843H444.128V114.79H445.057V116.685Z" fill="#3DA188"/>
<path d="M444.128 109.671H442.271V105.499H444.128V109.671ZM444.128 101.327H442.271V97.1548H444.128V101.327ZM444.128 92.9823H442.271V88.8103H444.128V92.9823ZM444.128 84.6381H442.271V80.4659H444.128V84.6381Z" fill="#3DA188"/>
<path d="M444.128 76.294H442.271V73.4525H445.057V75.3467H444.128V76.294Z" fill="#3DA188"/>
<path d="M477.774 75.3467H473.684V73.4525H477.774V75.3467ZM469.594 75.3467H465.505V73.4525H469.594V75.3467ZM461.415 75.3467H457.326V73.4525H461.415V75.3467ZM453.236 75.3467H449.146V73.4525H453.236V75.3467Z" fill="#3DA188"/>
<path d="M484.649 76.294H482.792V75.3467H481.863V73.4525H484.649V76.294Z" fill="#3DA188"/>
<path d="M484.648 109.671H482.791V105.499H484.648V109.671ZM484.648 101.327H482.791V97.1548H484.648V101.327ZM484.648 92.9823H482.791V88.8103H484.648V92.9823ZM484.648 84.6381H482.791V80.4659H484.648V84.6381Z" fill="#3DA188"/>
<path d="M446.34 104.533L446.183 102.646C448.011 102.487 449.823 102.129 451.569 101.582L452.114 103.393C450.242 103.979 448.299 104.363 446.34 104.533ZM440.464 104.415C438.514 104.165 436.587 103.702 434.738 103.039L435.354 101.252C437.079 101.871 438.875 102.302 440.695 102.535L440.464 104.415ZM457.52 101.031L456.612 99.3789C458.206 98.4665 459.712 97.3767 461.087 96.1397L462.315 97.5604C460.842 98.8855 459.229 100.053 457.52 101.031ZM429.429 100.457C427.759 99.4103 426.192 98.1777 424.772 96.7938L426.055 95.4241C427.38 96.716 428.843 97.8662 430.401 98.8434L429.429 100.457ZM466.291 93.1415L464.798 92.0146C465.889 90.5108 466.825 88.8867 467.578 87.1874L469.27 87.968C468.462 89.7893 467.46 91.5299 466.291 93.1415ZM420.972 92.2174C419.868 90.5603 418.935 88.7807 418.2 86.9286L419.921 86.218C420.607 87.9459 421.477 89.606 422.508 91.1523L420.972 92.2174ZM471.109 82.2678L469.293 81.8707C469.675 80.0536 469.868 78.1804 469.868 76.3036H471.725C471.725 78.3134 471.518 80.3202 471.109 82.2678ZM416.587 81.1585C416.318 79.5662 416.181 77.9328 416.181 76.3034C416.181 75.9292 416.188 75.5495 416.202 75.1747L418.058 75.2481C418.044 75.5985 418.037 75.9535 418.037 76.3032C418.037 77.8248 418.165 79.3499 418.416 80.8358L416.587 81.1585ZM469.645 72.8136C469.405 70.9601 468.971 69.1302 468.354 67.3747L470.101 66.735C470.763 68.6173 471.229 70.5791 471.486 72.566L469.645 72.8136ZM418.85 69.7099L417.051 69.2389C417.539 67.3012 418.232 65.4102 419.113 63.6183L420.772 64.4673C419.951 66.1391 419.304 67.9029 418.85 69.7099ZM465.962 62.3376C464.995 60.7539 463.858 59.2696 462.584 57.9258L463.918 56.6089C465.283 58.0484 466.501 59.6387 467.538 61.3355L465.962 62.3376ZM423.739 59.7571L422.291 58.5707C423.52 57.0106 424.914 55.5791 426.436 54.3161L427.608 55.7853C426.187 56.9644 424.886 58.3006 423.739 59.7571ZM458.374 54.333C456.851 53.2906 455.218 52.4129 453.519 51.7243L454.205 49.964C456.025 50.7022 457.776 51.6431 459.408 52.7603L458.374 54.333ZM432.205 52.7308L431.362 51.043C433.112 50.1333 434.961 49.4138 436.857 48.9039L437.33 50.7357C435.561 51.2112 433.837 51.8824 432.205 52.7308ZM448.233 50.2237C446.438 49.9196 444.576 49.8077 442.754 49.8928L442.669 48.0004C444.621 47.91 446.614 48.0292 448.537 48.3551L448.233 50.2237Z" fill="#3DA188"/>
<path d="M252.161 198.977C252.139 199.49 251.892 204.879 250.95 214.592C250.732 216.855 250.474 219.357 250.174 222.085C248.644 235.955 245.981 255.724 241.407 280.472C237.286 302.765 230.785 322.093 222.084 337.926C218.943 343.635 214.048 350.348 209.618 355.975C204.478 362.507 194.893 362.969 189.168 356.966C189.07 356.863 188.971 356.76 188.872 356.657C184.009 351.558 183.69 343.544 188.13 338.056C191.611 333.751 195.519 328.286 198.426 322.444C202.895 313.457 209.598 298.174 213.849 275.169C218.176 251.755 220.724 232.898 222.205 219.65C222.467 217.297 222.696 215.121 222.896 213.127C223.887 203.216 224.138 197.833 224.145 197.709C224.495 189.821 231.05 183.708 238.778 184.061C246.51 184.413 252.502 191.089 252.161 198.977Z" fill="#138EA0"/>
<path d="M352.473 327.936C348.343 338.088 342.024 346.372 334.197 351.892C327.523 356.602 320.002 359.076 312.581 359.076C310.892 359.076 309.209 358.948 307.543 358.689C298.942 357.353 291.142 352.54 285.579 345.132C280.173 337.935 276.925 328.625 275.922 317.464C273.649 292.155 278.331 251.829 282.023 225.915C282.425 223.101 282.815 220.455 283.183 218.018C284.63 208.442 285.738 202.073 285.891 201.199C287.255 193.423 294.539 188.246 302.163 189.638C309.786 191.029 314.86 198.462 313.494 206.239C313.463 206.424 312.749 210.53 311.715 217.16C311.37 219.363 310.991 221.849 310.589 224.561C307.018 248.652 301.683 290.731 303.848 314.852C304.64 323.677 307.747 329.781 311.762 330.405C316.02 331.067 322.66 326.581 326.572 316.967C329.54 309.671 337.746 306.211 344.897 309.241C346.542 309.937 347.986 310.916 349.202 312.099C353.271 316.061 354.759 322.318 352.473 327.936Z" fill="#138EA0"/>
<path d="M252.162 198.977C252.139 199.49 251.892 204.879 250.95 214.592C250.733 216.855 250.475 219.357 250.174 222.085H250.172C235.707 218.258 222.205 219.65 222.205 219.65C222.468 217.297 222.696 215.121 222.896 213.127C223.888 203.216 224.139 197.833 224.145 197.709C224.495 189.821 231.05 183.708 238.778 184.061C246.511 184.413 252.502 191.089 252.162 198.977Z" fill="#38727B"/>
<path d="M313.494 206.239C313.463 206.424 312.749 210.53 311.715 217.16C311.37 219.363 310.991 221.849 310.589 224.561C301.239 225.847 291.308 226.188 282.023 225.915C282.425 223.101 282.815 220.455 283.183 218.018C284.63 208.442 285.738 202.073 285.891 201.199C287.255 193.423 294.539 188.246 302.163 189.638C309.786 191.029 314.86 198.462 313.494 206.239Z" fill="#38727B"/>
<path d="M364.497 202.106C358.907 204.753 348.307 209.772 333.154 213.47C330.029 214.23 326.711 214.937 323.203 215.553C319.452 216.212 315.623 216.75 311.715 217.16C302.608 218.121 293.083 218.404 283.183 218.018C272.833 217.61 262.074 216.468 250.95 214.592C249.452 214.338 247.949 214.072 246.439 213.793C238.146 212.257 230.281 212.038 222.896 213.127C222.032 213.251 221.178 213.397 220.33 213.56C213.916 214.786 207.88 217.027 202.256 220.279C193.543 225.318 188.98 231.115 188.94 231.17C186.185 234.928 181.968 236.91 177.699 236.91C174.778 236.91 171.833 235.983 169.314 234.06C163.111 229.33 161.843 220.366 166.48 214.038C167.256 212.981 174.462 203.465 188.428 195.389C195.73 191.169 203.608 188.068 211.89 186.152C212.909 185.916 213.934 185.697 214.964 185.498C226.532 183.255 238.805 183.303 251.441 185.642C282.073 191.306 304.894 190.091 321.523 186.777C336.604 183.774 346.591 179.044 352.686 176.156C359.71 172.831 368.048 175.941 371.31 183.106C374.571 190.274 371.521 198.778 364.497 202.106Z" fill="#138EA0"/>
<path d="M349.202 312.099C340.07 307.014 334.513 315.896 332.223 319.997C329.93 324.098 325.578 334.593 313.716 334.66C301.854 334.726 303.848 314.852 303.848 314.852C304.64 323.677 307.747 329.781 311.762 330.405C316.02 331.067 322.66 326.581 326.572 316.967C329.54 309.671 337.746 306.211 344.897 309.241C346.542 309.937 347.986 310.916 349.202 312.099Z" fill="#38727B"/>
<path d="M193.787 259.695V346.279C193.787 355.134 186.751 362.313 178.071 362.313H116.398C107.718 362.313 100.682 355.135 100.682 346.279V259.695C100.682 250.593 107.914 243.215 116.836 243.215H177.633C186.555 243.215 193.787 250.593 193.787 259.695Z" fill="#41AE95"/>
<path d="M193.787 259.127V281.575H100.682V259.127C100.682 250.339 107.665 243.215 116.279 243.215H178.19C186.804 243.215 193.787 250.339 193.787 259.127Z" fill="#38727B"/>
<path d="M174.928 273.294H119.661C113.793 273.294 109.037 268.442 109.037 262.456C109.037 256.47 113.793 251.618 119.661 251.618H174.928C180.795 251.618 185.551 256.47 185.551 262.456C185.552 268.442 180.795 273.294 174.928 273.294Z" fill="#41AE95"/>
<path d="M118.169 299.72H114.946C111.683 299.72 109.037 297.021 109.037 293.692C109.037 290.363 111.683 287.664 114.946 287.664H118.169C121.432 287.664 124.077 290.363 124.077 293.692C124.077 297.021 121.432 299.72 118.169 299.72Z" fill="#D6E5D2"/>
<path d="M118.169 317.58H114.946C111.683 317.58 109.037 314.881 109.037 311.552C109.037 308.223 111.683 305.524 114.946 305.524H118.169C121.432 305.524 124.077 308.223 124.077 311.552C124.077 314.882 121.432 317.58 118.169 317.58Z" fill="#D6E5D2"/>
<path d="M118.169 335.441H114.946C111.683 335.441 109.037 332.742 109.037 329.413C109.037 326.084 111.683 323.385 114.946 323.385H118.169C121.432 323.385 124.077 326.084 124.077 329.413C124.077 332.742 121.432 335.441 118.169 335.441Z" fill="#D6E5D2"/>
<path d="M118.169 353.301H114.946C111.683 353.301 109.037 350.603 109.037 347.273C109.037 343.944 111.683 341.245 114.946 341.245H118.169C121.432 341.245 124.077 343.944 124.077 347.273C124.077 350.603 121.432 353.301 118.169 353.301Z" fill="#D6E5D2"/>
<path d="M138.66 299.72H135.437C132.174 299.72 129.528 297.021 129.528 293.692C129.528 290.363 132.174 287.664 135.437 287.664H138.66C141.923 287.664 144.569 290.363 144.569 293.692C144.568 297.021 141.923 299.72 138.66 299.72Z" fill="#D6E5D2"/>
<path d="M138.66 317.58H135.437C132.174 317.58 129.528 314.881 129.528 311.552C129.528 308.223 132.174 305.524 135.437 305.524H138.66C141.923 305.524 144.569 308.223 144.569 311.552C144.568 314.882 141.923 317.58 138.66 317.58Z" fill="#D6E5D2"/>
<path d="M138.66 335.441H135.437C132.174 335.441 129.528 332.742 129.528 329.413C129.528 326.084 132.174 323.385 135.437 323.385H138.66C141.923 323.385 144.569 326.084 144.569 329.413C144.568 332.742 141.923 335.441 138.66 335.441Z" fill="#D6E5D2"/>
<path d="M138.66 353.301H135.437C132.174 353.301 129.528 350.603 129.528 347.273C129.528 343.944 132.174 341.245 135.437 341.245H138.66C141.923 341.245 144.569 343.944 144.569 347.273C144.568 350.603 141.923 353.301 138.66 353.301Z" fill="#D6E5D2"/>
<path d="M159.151 299.72H155.928C152.665 299.72 150.02 297.021 150.02 293.692C150.02 290.363 152.665 287.664 155.928 287.664H159.151C162.414 287.664 165.06 290.363 165.06 293.692C165.06 297.021 162.414 299.72 159.151 299.72Z" fill="#D6E5D2"/>
<path d="M159.151 317.58H155.928C152.665 317.58 150.02 314.881 150.02 311.552C150.02 308.223 152.665 305.524 155.928 305.524H159.151C162.414 305.524 165.06 308.223 165.06 311.552C165.06 314.882 162.414 317.58 159.151 317.58Z" fill="#D6E5D2"/>
<path d="M159.151 335.441H155.928C152.665 335.441 150.02 332.742 150.02 329.413C150.02 326.084 152.665 323.385 155.928 323.385H159.151C162.414 323.385 165.06 326.084 165.06 329.413C165.06 332.742 162.414 335.441 159.151 335.441Z" fill="#D6E5D2"/>
<path d="M159.151 353.301H155.928C152.665 353.301 150.02 350.603 150.02 347.273C150.02 343.944 152.665 341.245 155.928 341.245H159.151C162.414 341.245 165.06 343.944 165.06 347.273C165.06 350.603 162.414 353.301 159.151 353.301Z" fill="#D6E5D2"/>
<path d="M179.643 299.72H176.42C173.157 299.72 170.512 297.021 170.512 293.692C170.512 290.363 173.157 287.664 176.42 287.664H179.643C182.907 287.664 185.552 290.363 185.552 293.692C185.552 297.021 182.907 299.72 179.643 299.72Z" fill="#EB5648"/>
<path d="M179.643 317.58H176.42C173.157 317.58 170.512 314.881 170.512 311.552C170.512 308.223 173.157 305.524 176.42 305.524H179.643C182.907 305.524 185.552 308.223 185.552 311.552C185.552 314.882 182.907 317.58 179.643 317.58Z" fill="#38727B"/>
<path d="M179.643 335.441H176.42C173.157 335.441 170.512 332.742 170.512 329.413C170.512 326.084 173.157 323.385 176.42 323.385H179.643C182.907 323.385 185.552 326.084 185.552 329.413C185.552 332.742 182.907 335.441 179.643 335.441Z" fill="#38727B"/>
<path d="M179.643 353.301H176.42C173.157 353.301 170.512 350.603 170.512 347.273C170.512 343.944 173.157 341.245 176.42 341.245H179.643C182.907 341.245 185.552 343.944 185.552 347.273C185.552 350.603 182.907 353.301 179.643 353.301Z" fill="#38727B"/>
<path d="M291.859 379.914C288.746 379.915 111.043 379.671 115.306 379.68C103.09 379.634 103.094 355.692 115.338 355.681C117.589 355.702 284.5 355.894 291.889 355.916L291.886 357.587L291.859 379.914Z" fill="#FEA32F"/>
<path d="M124.284 379.692C122.808 379.711 116.897 379.666 115.307 379.68C106.531 380.001 103.001 364.875 109.042 358.781H109.044C112.107 354.337 119.891 355.946 124.315 355.692L124.284 379.692Z" fill="#EB5648"/>
<path d="M129.577 364.503C130.223 362.845 292.08 363.07 292.727 364.713C292.076 366.368 130.231 366.143 129.577 364.503Z" fill="#FEA32F"/>
<path d="M291.859 379.914C291.863 375.875 291.884 360.235 291.89 355.916C299.323 358.824 315.36 365.097 322.667 367.954C315.395 370.778 299.254 377.043 291.859 379.914Z" fill="#FFE7D7"/>
<path d="M310.175 372.804C309.106 369.771 309.126 366.047 310.187 363.073L322.666 367.954L310.175 372.804Z" fill="#EB5648"/>
<path d="M291.887 357.587L130.417 357.957L130.412 355.701L291.89 355.916L291.887 357.587Z" fill="#F9C0C0"/>
<path d="M122.023 379.688L115.307 379.68C106.53 380.001 103.001 364.875 109.042 358.781H109.044C109.044 358.781 108.767 374.4 122.032 374.369L122.023 379.688Z" fill="#CE3932"/>
<path d="M130.4 379.963C130.4 379.963 130.473 377.221 130.376 374.214C130.146 367.079 129.654 355.622 129.966 355.378C130.013 352.614 126.486 353.162 126.52 355.932L126.031 355.671C126.081 352.911 122.133 353.246 122.169 356.022L122.031 374.291L122.023 379.952C122.021 381.129 122.957 382.088 124.115 382.09C125.272 382.092 126.211 381.137 126.21 379.957C126.21 381.137 127.147 382.095 128.302 382.097C129.459 382.097 130.398 381.142 130.4 379.963Z" fill="#D6E5D2"/>
<path d="M291.859 379.914L130.458 379.701L130.376 374.214L291.845 373.845L291.859 379.914Z" fill="#FEA32F"/>
<path d="M291.859 379.914L291.846 373.845C291.848 373.842 322.658 367.956 322.667 367.954C315.394 370.778 299.254 377.043 291.859 379.914Z" fill="#EDD5C5"/>
<path d="M310.175 372.804C309.918 372.057 309.718 371.27 309.581 370.453L322.667 367.954L310.175 372.804Z" fill="#CE3932"/>
<path d="M131.005 379.91L131.028 355.685C130.896 354.344 130.055 353.312 129.038 353.312C127.954 353.31 127.075 354.478 127.03 355.939L127.002 355.671C126.869 354.335 126.031 353.306 125.012 353.303C123.902 353.301 123 354.527 122.998 356.044L122.975 380.272C123.107 381.607 123.946 382.639 124.965 382.642C126.076 382.645 126.979 381.417 126.979 379.902L126.999 379.657L126.999 380.274C127.131 381.616 127.972 382.648 128.989 382.648C130.101 382.65 131.003 381.424 131.005 379.91Z" fill="#138EA0"/>
</svg>
