<svg width="44" height="44" viewBox="0 0 44 44" fill="none" xmlns="http://www.w3.org/2000/svg">
<g clip-path="url(#clip0_167_1618)">
<path d="M38.0094 3.96826H5.99141C3.16629 3.96826 0.875977 6.25858 0.875977 9.08369V38.8845C0.875977 41.7097 3.16629 44 5.99141 44H38.0094C40.8346 44 43.1249 41.7097 43.1249 38.8845V9.08369C43.1249 6.25843 40.8346 3.96826 38.0094 3.96826Z" fill="#E1F0F3"/>
<path d="M43.1249 13.5796V7.38148C43.1249 4.55637 40.8346 2.26605 38.0094 2.26605H5.99141C3.16629 2.26605 0.875977 4.55637 0.875977 7.38148V13.5796H43.1249Z" fill="#89C6CF"/>
<path d="M43.1249 14.736V9.08369C43.1249 6.25858 40.8346 3.96826 38.0094 3.96826H5.99141C3.16629 3.96826 0.875977 6.25858 0.875977 9.08369V14.736H43.1249Z" fill="#138EA0"/>
<path d="M9.2551 6.71558C8.26906 6.71558 7.46973 7.51491 7.46973 8.50095C7.46973 9.48699 8.26906 10.2862 9.2551 10.2862C10.2411 10.2862 11.0403 9.48685 11.0403 8.50095C11.0405 7.51491 10.2411 6.71558 9.2551 6.71558Z" fill="#06414A"/>
<path d="M9.25495 0C9.00164 3.90094e-05 8.75872 0.100682 8.5796 0.279798C8.40049 0.458914 8.29984 0.701835 8.2998 0.955143V8.39693C8.2998 8.65025 8.40044 8.8932 8.57956 9.07232C8.75868 9.25144 9.00163 9.35208 9.25495 9.35208C9.50827 9.35208 9.75121 9.25144 9.93034 9.07232C10.1095 8.8932 10.2101 8.65025 10.2101 8.39693V0.955143C10.2101 0.701823 10.1095 0.458879 9.93034 0.279755C9.75121 0.100631 9.50827 0 9.25495 0Z" fill="#FFAB42"/>
<path d="M17.7522 6.71558C16.7661 6.71558 15.9668 7.51491 15.9668 8.50095C15.9668 9.48699 16.7661 10.2862 17.7522 10.2862C18.7382 10.2862 19.5374 9.48685 19.5374 8.50095C19.5376 7.51491 18.7382 6.71558 17.7522 6.71558Z" fill="#06414A"/>
<path d="M17.752 0C17.4987 3.90094e-05 17.2558 0.100682 17.0767 0.279798C16.8976 0.458914 16.7969 0.701835 16.7969 0.955143V8.39693C16.7969 8.52236 16.8216 8.64657 16.8696 8.76245C16.9176 8.87833 16.9879 8.98363 17.0766 9.07232C17.1653 9.16101 17.2706 9.23137 17.3865 9.27937C17.5024 9.32737 17.6266 9.35208 17.752 9.35208C17.8774 9.35208 18.0017 9.32737 18.1175 9.27937C18.2334 9.23137 18.3387 9.16101 18.4274 9.07232C18.5161 8.98363 18.5865 8.87833 18.6345 8.76245C18.6825 8.64657 18.7072 8.52236 18.7072 8.39693V0.955143C18.7071 0.701835 18.6065 0.458914 18.4274 0.279798C18.2482 0.100682 18.0053 3.90094e-05 17.752 0Z" fill="#FFAB42"/>
<path d="M26.2492 6.71558C25.2632 6.71558 24.4639 7.51491 24.4639 8.50095C24.4639 9.48699 25.2632 10.2862 26.2492 10.2862C27.2353 10.2862 28.0345 9.48685 28.0345 8.50095C28.0345 7.51491 27.2353 6.71558 26.2492 6.71558Z" fill="#06414A"/>
<path d="M26.2491 0C25.9958 3.90094e-05 25.7529 0.100682 25.5737 0.279798C25.3946 0.458914 25.294 0.701835 25.2939 0.955143V8.39693C25.2939 8.65025 25.3946 8.8932 25.5737 9.07232C25.7528 9.25144 25.9958 9.35208 26.2491 9.35208C26.5024 9.35208 26.7454 9.25144 26.9245 9.07232C27.1036 8.8932 27.2042 8.65025 27.2042 8.39693V0.955143C27.2042 0.701835 27.1035 0.458914 26.9244 0.279798C26.7453 0.100682 26.5024 3.90094e-05 26.2491 0Z" fill="#FFAB42"/>
<path d="M34.7463 6.71558C33.7603 6.71558 32.9609 7.51491 32.9609 8.50095C32.9609 9.48699 33.7603 10.2862 34.7463 10.2862C35.7324 10.2862 36.5315 9.48685 36.5315 8.50095C36.5315 7.51491 35.7322 6.71558 34.7463 6.71558Z" fill="#06414A"/>
<path d="M34.7462 0C34.4929 3.90094e-05 34.2499 0.100682 34.0708 0.279798C33.8917 0.458914 33.7911 0.701835 33.791 0.955143V8.39693C33.791 8.65025 33.8916 8.8932 34.0708 9.07232C34.2499 9.25144 34.4928 9.35208 34.7462 9.35208C34.9995 9.35208 35.2424 9.25144 35.4215 9.07232C35.6007 8.8932 35.7013 8.65025 35.7013 8.39693V0.955143C35.7013 0.701823 35.6007 0.458879 35.4215 0.279755C35.2424 0.100631 34.9995 0 34.7462 0Z" fill="#FFAB42"/>
<path d="M17.7503 37.6952C16.6139 37.6952 15.763 37.3906 15.197 36.7814C14.6316 36.1723 14.3486 35.3487 14.3486 34.31V28.8924C14.3486 27.8378 14.6354 27.0098 15.209 26.4089C15.7827 25.808 16.6297 25.5072 17.7497 25.5072C18.8696 25.5072 19.7237 25.8061 20.2948 26.4044C20.8658 27.0028 21.1514 27.8321 21.1514 28.8918V34.3093C21.1514 35.3639 20.8658 36.192 20.2948 36.7929C19.7237 37.3938 18.8753 37.6945 17.7497 37.6945L17.7503 37.6952ZM17.7503 36.105C18.362 36.105 18.8036 35.9451 19.0739 35.6253C19.3442 35.3055 19.4794 34.8671 19.4794 34.31V28.8924C19.4794 28.3296 19.3442 27.8898 19.0739 27.5726C18.8036 27.256 18.362 27.0973 17.7503 27.0973C17.1386 27.0973 16.697 27.256 16.4267 27.5726C16.1564 27.8898 16.0212 28.3296 16.0212 28.8924V34.31C16.0212 34.8671 16.1564 35.3055 16.4267 35.6253C16.697 35.9451 17.1386 36.105 17.7503 36.105ZM23.43 37.5721V36.1215L27.5855 30.5809C27.8259 30.2642 28.0131 29.9362 28.147 29.5973C28.2809 29.2585 28.3475 28.9387 28.3475 28.6386V28.6221C28.3475 28.1468 28.2079 27.7782 27.9294 27.5155C27.6508 27.2534 27.2542 27.1221 26.7409 27.1221C26.2599 27.1221 25.8678 27.2655 25.5645 27.5523C25.2612 27.8391 25.0765 28.2452 25.0112 28.7693V28.7775H23.2815V28.7693C23.4293 27.742 23.8031 26.9457 24.4046 26.3803C25.0055 25.8149 25.779 25.5319 26.7244 25.5319C27.7955 25.5319 28.6229 25.8023 29.2079 26.3435C29.7923 26.8848 30.0848 27.6494 30.0848 28.6386V28.6468C30.0848 29.0675 29.9973 29.5085 29.8228 29.9704C29.6477 30.4324 29.4046 30.8734 29.0931 31.2941L25.6425 35.9826H30.1508V37.5727H23.43V37.5721Z" fill="#0E6A78"/>
<path d="M8.29004 21.965V17.5372H8.9109V21.965H8.29004ZM8.71 21.965V21.3741H9.71174C10.039 21.3741 10.2917 21.2896 10.4717 21.1196C10.6517 20.9505 10.7407 20.7114 10.7407 20.4024V19.0989C10.7407 18.7907 10.6508 18.5516 10.4717 18.3816C10.2917 18.2126 10.039 18.1271 9.71174 18.1271H8.71V17.5363H9.69356C10.2299 17.5363 10.6444 17.6744 10.938 17.9517C11.2316 18.2289 11.378 18.6189 11.378 19.1225V20.3769C11.378 20.7124 11.3116 20.9978 11.1798 21.2341C11.048 21.4705 10.8562 21.6514 10.6044 21.7759C10.3526 21.9004 10.0481 21.9632 9.69083 21.9632H8.71V21.965ZM13.616 22.0104C13.1751 22.0104 12.8342 21.8877 12.5924 21.6423C12.3506 21.3968 12.2297 21.0478 12.2297 20.5951V20.2388C12.2297 19.7679 12.3461 19.4034 12.5788 19.1452C12.8115 18.8871 13.1387 18.7589 13.5605 18.7589C13.9587 18.7589 14.2668 18.9052 14.485 19.197C14.7031 19.4897 14.8122 19.8997 14.8122 20.4269V20.6342H12.6806V20.1351H14.2214C14.2032 19.8797 14.1368 19.6797 14.0223 19.5352C13.9078 19.3906 13.7541 19.3188 13.5605 19.3188C13.3269 19.3188 13.1451 19.3961 13.0151 19.5506C12.8851 19.7052 12.8206 19.9233 12.8206 20.2051V20.6069C12.8206 20.8687 12.8897 21.0696 13.0287 21.2096C13.1678 21.3496 13.3633 21.4196 13.6151 21.4196C13.7405 21.4196 13.8659 21.3941 13.9896 21.3432C14.1132 21.2923 14.2241 21.2214 14.3214 21.1305L14.7295 21.5387C14.5767 21.6864 14.398 21.8047 14.2023 21.8877C14.0078 21.9695 13.8114 22.0113 13.6141 22.0113L13.616 22.0104ZM16.9421 22.0104C16.5075 22.0104 16.1712 21.8904 15.9321 21.6514C15.694 21.4114 15.574 21.0741 15.574 20.6369V20.116C15.574 19.6834 15.6931 19.3488 15.9321 19.1125C16.1703 18.8761 16.5075 18.758 16.9421 18.758C17.1893 18.758 17.4129 18.8016 17.612 18.8889C17.8111 18.9761 17.9692 19.1007 18.0874 19.2634L17.6402 19.6652C17.5529 19.5634 17.4493 19.4852 17.3293 19.4306C17.2093 19.3761 17.0839 19.3488 16.9521 19.3488C16.7121 19.3488 16.5266 19.4161 16.3948 19.5497C16.263 19.6834 16.1967 19.8724 16.1967 20.116V20.6369C16.1967 20.8869 16.263 21.0796 16.3948 21.216C16.5266 21.3523 16.713 21.4196 16.9521 21.4196C17.0839 21.4196 17.2102 21.3905 17.3293 21.3314C17.4493 21.2723 17.5529 21.1896 17.6402 21.0814L18.0874 21.5141C17.9692 21.6723 17.8111 21.795 17.6111 21.8814C17.4111 21.9677 17.1884 22.0104 16.943 22.0104H16.9421ZM20.0663 22.0104C19.6255 22.0104 19.2846 21.8877 19.0428 21.6423C18.801 21.3968 18.6801 21.0478 18.6801 20.5951V20.2388C18.6801 19.7679 18.7965 19.4034 19.0292 19.1452C19.2619 18.8871 19.5891 18.7589 20.0109 18.7589C20.409 18.7589 20.7172 18.9052 20.9354 19.197C21.1535 19.4897 21.2626 19.8997 21.2626 20.4269V20.6342H19.131V20.1351H20.6718C20.6536 19.8797 20.5872 19.6797 20.4727 19.5352C20.3581 19.3906 20.2045 19.3188 20.0109 19.3188C19.7773 19.3188 19.5955 19.3961 19.4655 19.5506C19.3355 19.7052 19.271 19.9233 19.271 20.2051V20.6069C19.271 20.8687 19.34 21.0696 19.4791 21.2096C19.6182 21.3496 19.8136 21.4196 20.0654 21.4196C20.1909 21.4196 20.3163 21.3941 20.44 21.3432C20.5636 21.2923 20.6745 21.2214 20.7717 21.1305L21.1799 21.5387C21.0271 21.6864 20.8484 21.8047 20.6527 21.8877C20.4581 21.9695 20.2618 22.0113 20.0645 22.0113L20.0663 22.0104ZM22.1162 21.965V18.8043H22.737V21.965H22.1162ZM24.0042 21.965V20.0497C24.0042 19.8261 23.9497 19.6534 23.8397 19.5315C23.7297 19.4097 23.5742 19.3488 23.3733 19.3488C23.1725 19.3488 23.0134 19.4025 22.9025 19.5106C22.7916 19.6179 22.7361 19.7697 22.7361 19.9642L22.6725 19.3552C22.7698 19.1643 22.897 19.017 23.0543 18.9134C23.2115 18.8098 23.3861 18.758 23.577 18.758C23.9097 18.758 24.1678 18.8698 24.3505 19.0943C24.5333 19.3188 24.6251 19.6361 24.6251 20.046V21.965H24.0042ZM25.8922 21.965V20.0497C25.8922 19.8261 25.835 19.6534 25.7204 19.5315C25.6059 19.4097 25.4432 19.3488 25.2314 19.3488C25.0387 19.3488 24.8896 19.4079 24.7841 19.5252C24.6787 19.6434 24.626 19.8097 24.626 20.0242L24.5014 19.4152C24.6032 19.2043 24.7351 19.0416 24.8978 18.928C25.0605 18.8143 25.2396 18.7571 25.4368 18.7571C25.7795 18.7571 26.0449 18.8689 26.2331 19.0934C26.4213 19.3179 26.5149 19.6352 26.5149 20.0451V21.9641H25.8941L25.8922 21.965ZM27.4576 21.965V17.5372H28.0784V21.965H27.4576ZM28.8738 22.0104C28.6765 22.0104 28.5057 21.9632 28.3593 21.8686C28.2129 21.7741 28.1057 21.6405 28.0366 21.4678L28.0793 20.8069C28.0793 20.9432 28.1039 21.0587 28.152 21.1541C28.2011 21.2496 28.2711 21.3223 28.3638 21.3732C28.4566 21.4241 28.5684 21.4496 28.7002 21.4496C28.9047 21.4496 29.0638 21.3868 29.1765 21.2623C29.2892 21.1378 29.3456 20.9614 29.3456 20.7342V20.0488C29.3456 19.817 29.2892 19.6379 29.1765 19.5097C29.0638 19.3816 28.9047 19.3179 28.7002 19.3179C28.5684 19.3179 28.4557 19.3425 28.3638 19.3906C28.2731 19.4381 28.1991 19.5124 28.152 19.6034C28.103 19.697 28.0793 19.8106 28.0793 19.9442L28.0157 19.3352C28.1111 19.1507 28.2357 19.008 28.3902 18.9071C28.5447 18.8062 28.7156 18.7562 28.9047 18.7562C29.2438 18.7562 29.5056 18.868 29.6901 19.0925C29.8746 19.317 29.9674 19.6343 29.9674 20.0442V20.7324C29.9674 21.136 29.8719 21.4505 29.681 21.6732C29.4901 21.8968 29.2211 22.0086 28.8738 22.0086V22.0104ZM32.1444 22.0104C31.7036 22.0104 31.3627 21.8877 31.1209 21.6423C30.8791 21.3968 30.7582 21.0478 30.7582 20.5951V20.2388C30.7582 19.7679 30.8746 19.4034 31.1073 19.1452C31.34 18.8871 31.6672 18.7589 32.089 18.7589C32.4871 18.7589 32.7953 18.9052 33.0135 19.197C33.2316 19.4897 33.3407 19.8997 33.3407 20.4269V20.6342H31.2091V20.1351H32.7499C32.7317 19.8797 32.6653 19.6797 32.5508 19.5352C32.4362 19.3906 32.2826 19.3188 32.089 19.3188C31.8554 19.3188 31.6736 19.3961 31.5436 19.5506C31.4136 19.7052 31.3491 19.9233 31.3491 20.2051V20.6069C31.3491 20.8687 31.4181 21.0696 31.5572 21.2096C31.6963 21.3496 31.8917 21.4196 32.1435 21.4196C32.269 21.4196 32.3944 21.3941 32.5181 21.3432C32.6417 21.2923 32.7526 21.2214 32.8498 21.1305L33.258 21.5387C33.1052 21.6864 32.9265 21.8047 32.7308 21.8877C32.5362 21.9695 32.3399 22.0113 32.1426 22.0113L32.1444 22.0104ZM34.1934 21.965V18.8043H34.8142V21.965H34.1934ZM35.9323 19.5534C35.8778 19.4861 35.8087 19.4361 35.7251 19.4006C35.6414 19.3661 35.5451 19.3488 35.436 19.3488C35.2387 19.3488 35.086 19.4034 34.9778 19.5115C34.8688 19.6197 34.8151 19.7706 34.8151 19.9633L34.7515 19.3543C34.847 19.1679 34.9724 19.0216 35.1278 18.9161C35.2833 18.8107 35.4542 18.758 35.6405 18.758C35.7851 18.758 35.915 18.7789 36.0314 18.8207C36.1478 18.8625 36.2505 18.9234 36.3377 19.0052L35.9323 19.5534Z" fill="#0E6A78"/>
</g>
<defs>
<clipPath id="clip0_167_1618">
<rect width="44" height="44" fill="white"/>
</clipPath>
</defs>
</svg>
