<svg width="51" height="48" viewBox="0 0 51 48" fill="none" xmlns="http://www.w3.org/2000/svg">
<path d="M35.14 0.0399578C42.5582 3.64249 48.1214 10.4632 50.0154 18.6875C50.0674 18.9134 49.9155 19.1356 49.6857 19.166L38.9088 20.5915C38.7166 20.6169 38.5367 20.4972 38.4812 20.3114C37.2456 16.1712 34.3871 12.7323 30.6435 10.733C30.4671 10.6389 30.393 10.4247 30.4694 10.2399L34.605 0.241429C34.6915 0.032239 34.9364 -0.0589212 35.14 0.0399578Z" fill="#D6E5D2"/>
<path d="M23.0919 8.8484C24.3709 8.8484 25.6151 8.99995 26.8094 9.28164C26.9964 9.3257 27.1881 9.23034 27.2615 9.05281L29.6722 3.22022C29.7619 3.00312 29.6414 2.75709 29.4155 2.69309C27.3583 2.11015 25.2302 1.81498 23.0919 1.81598C10.3392 1.81598 0 12.1553 0 24.9079C0 37.6606 10.3392 47.9999 23.0919 47.9999C23.5624 47.9999 24.0296 47.9852 24.4936 47.957C24.7211 47.9432 24.8897 47.7404 24.8599 47.5144L24.0377 41.2951C24.0114 41.0963 23.8394 40.9487 23.6389 40.9554C23.4567 40.9616 23.2743 40.9646 23.0919 40.9646C14.223 40.9646 7.03526 33.7768 7.03526 24.9079C7.03526 16.039 14.223 8.8484 23.0919 8.8484Z" fill="#FFB75D"/>
<path d="M45.6981 23.1399L39.4796 23.962C39.3833 23.9745 39.2951 24.0225 39.2324 24.0966C39.1696 24.1707 39.1367 24.2656 39.1401 24.3626C39.1469 24.5434 39.151 24.7251 39.151 24.9079C39.151 32.18 34.3151 38.3231 27.6836 40.2994C27.5003 40.354 27.3856 40.5359 27.4106 40.7254L28.2361 46.9803C28.2668 47.2132 28.4941 47.3657 28.7221 47.3086C38.7533 44.7935 46.1835 35.7178 46.1835 24.9079C46.1835 24.4375 46.1688 23.9702 46.1406 23.5062C46.1268 23.2788 45.924 23.1101 45.698 23.1399H45.6981Z" fill="#6BB8C3"/>
<path d="M30.0869 17.9128C29.94 17.766 29.7409 17.6835 29.5332 17.6835C29.3255 17.6835 29.1264 17.766 28.9795 17.9128L16.0965 30.7957C15.9519 30.943 15.8714 31.1415 15.8723 31.3478C15.8733 31.5542 15.9557 31.7519 16.1017 31.8978C16.2476 32.0438 16.4453 32.1262 16.6516 32.1272C16.858 32.1281 17.0565 32.0476 17.2038 31.903L30.0869 19.0199C30.2337 18.873 30.3162 18.6739 30.3162 18.4662C30.3162 18.2586 30.2337 18.0595 30.0869 17.9126V17.9128ZM27.2334 25.8616C25.4755 25.8616 24.0454 27.2918 24.0454 29.0498C24.0454 30.8078 25.4755 32.2378 27.2335 32.2378C28.9916 32.2378 30.4215 30.8076 30.4215 29.0497C30.4215 27.2918 28.9914 25.8616 27.2334 25.8616ZM27.2334 30.6719C26.339 30.6719 25.6112 29.9443 25.6112 29.0497C25.6112 28.1552 26.339 27.4275 27.2334 27.4275C28.1278 27.4275 28.8557 28.1552 28.8557 29.0497C28.8557 29.9442 28.1279 30.6719 27.2334 30.6719ZM18.9499 23.9542C20.7078 23.9542 22.138 22.5241 22.138 20.7661C22.138 19.0083 20.7078 17.5781 18.9499 17.5781C17.1934 17.5781 15.7646 19.0082 15.7646 20.7662C15.7646 22.5241 17.1934 23.9542 18.9499 23.9542ZM18.9499 19.1439C19.8444 19.1439 20.5721 19.8717 20.5721 20.7662C20.5721 21.6607 19.8444 22.3884 18.9499 22.3884C18.0569 22.3884 17.3304 21.6607 17.3304 20.7662C17.3304 19.8717 18.0569 19.1439 18.9499 19.1439Z" fill="#FFA027"/>
<path d="M50.0152 18.6875C48.1212 10.4632 42.558 3.64251 35.1399 0.0399738C34.9362 -0.0589052 34.6914 0.0321573 34.6048 0.241445L33.0264 4.05747C39.2937 7.04924 44.0009 12.783 45.5943 19.7071L49.6854 19.166C49.9154 19.1356 50.0673 18.9134 50.0152 18.6875Z" fill="#BBC8B7"/>
<path d="M23.0917 5.26599C12.2446 5.26599 3.45117 14.0594 3.45117 24.9066C3.45117 35.7537 12.2446 44.547 23.0917 44.547C23.5521 44.547 24.0085 44.5299 24.461 44.4988L24.0375 41.2951C24.0112 41.0963 23.8392 40.9487 23.6387 40.9554C23.4574 40.9616 23.275 40.9646 23.0917 40.9646C14.2227 40.9646 7.03504 33.7768 7.03504 24.9079C7.03504 16.039 14.2228 8.8484 23.0917 8.8484C24.3708 8.8484 25.6149 8.99994 26.8092 9.28163C26.9962 9.3257 27.1879 9.23033 27.2613 9.0528L28.513 6.02429C26.791 5.53087 24.9724 5.26599 23.0917 5.26599Z" fill="#FFA027"/>
<path d="M46.1408 23.5062C46.1271 23.2788 45.9242 23.11 45.6983 23.1399L42.6841 23.5385C42.7153 23.9906 42.7324 24.4466 42.7324 24.9066C42.7324 34.1167 36.3924 41.845 27.8389 43.9681L28.2363 46.9804C28.2671 47.2133 28.4944 47.3658 28.7222 47.3086C38.7536 44.7936 46.1837 35.7178 46.1837 24.9079C46.1837 24.4375 46.1691 23.9703 46.1408 23.5062Z" fill="#309CAB"/>
</svg>
