<svg width="42" height="42" viewBox="0 0 42 42" fill="none" xmlns="http://www.w3.org/2000/svg">
<path d="M41.3002 13.3V39.2C41.2986 39.5121 41.2293 39.8202 41.0972 40.103C40.8872 40.537 40.5372 40.887 40.1032 41.097C39.8204 41.2291 39.5123 41.2984 39.2002 41.3H13.3002C12.9881 41.2984 12.68 41.2291 12.3972 41.097C11.9632 40.887 11.6132 40.537 11.4032 40.103C11.2711 39.8202 11.2018 39.5121 11.2002 39.2V13.3C11.2016 12.9878 11.2709 12.6798 11.4032 12.397C11.6132 11.963 11.9632 11.613 12.3972 11.403C12.68 11.2709 12.9881 11.2016 13.3002 11.2H39.2002C39.5124 11.2014 39.8204 11.2707 40.1032 11.403C40.5372 11.613 40.8872 11.963 41.0972 12.397C41.2295 12.6798 41.2988 12.9878 41.3002 13.3Z" fill="#C4E2E7"/>
<path d="M7.7 10.5H0.7C0.514349 10.5 0.336301 10.5737 0.205025 10.705C0.0737498 10.8363 0 11.0143 0 11.2C0 11.3856 0.0737498 11.5637 0.205025 11.695C0.336301 11.8262 0.514349 11.9 0.7 11.9H7.7C7.88565 11.9 8.0637 11.8262 8.19497 11.695C8.32625 11.5637 8.4 11.3856 8.4 11.2C8.4 11.0143 8.32625 10.8363 8.19497 10.705C8.0637 10.5737 7.88565 10.5 7.7 10.5ZM7.7 40.6H0.7C0.514349 40.6 0.336301 40.6737 0.205025 40.805C0.0737498 40.9363 0 41.1143 0 41.3C0 41.4857 0.0737498 41.6637 0.205025 41.795C0.336301 41.9263 0.514349 42 0.7 42H7.7C7.88565 42 8.0637 41.9263 8.19497 41.795C8.32625 41.6637 8.4 41.4857 8.4 41.3C8.4 41.1143 8.32625 40.9363 8.19497 40.805C8.0637 40.6737 7.88565 40.6 7.7 40.6Z" fill="#FFC378"/>
<path d="M1.23802 33.852C1.17919 33.7814 1.10702 33.723 1.02563 33.6802C0.94424 33.6375 0.855227 33.6112 0.763673 33.6028C0.672119 33.5945 0.579817 33.6042 0.492036 33.6316C0.404255 33.6589 0.322714 33.7032 0.252069 33.762C0.181425 33.8209 0.12306 33.8931 0.0803067 33.9744C0.0375537 34.0558 0.0112499 34.1448 0.00289731 34.2364C-0.00545532 34.328 0.00430673 34.4203 0.0316261 34.508C0.0589454 34.5958 0.103287 34.6774 0.162119 34.748L3.66212 38.948C3.72781 39.0269 3.81006 39.0904 3.90302 39.134C3.99599 39.1775 4.0974 39.2001 4.20007 39.2001C4.30274 39.2001 4.40415 39.1775 4.49712 39.134C4.59008 39.0904 4.67233 39.0269 4.73802 38.948L8.23802 34.748C8.35684 34.6053 8.41411 34.4213 8.39724 34.2364C8.38037 34.0515 8.29074 33.8809 8.14807 33.762C8.0054 33.6432 7.82137 33.586 7.63646 33.6028C7.45156 33.6197 7.28094 33.7093 7.16212 33.852L4.89972 36.5666V15.9334L7.16212 18.648C7.28094 18.7907 7.45156 18.8803 7.63646 18.8972C7.82137 18.914 8.0054 18.8568 8.14807 18.7379C8.29074 18.6191 8.38037 18.4485 8.39724 18.2636C8.41411 18.0787 8.35684 17.8947 8.23802 17.752L4.73802 13.552C4.67015 13.4766 4.58718 13.4163 4.49451 13.375C4.40183 13.3338 4.30152 13.3124 4.20007 13.3124C4.09862 13.3124 3.99831 13.3338 3.90563 13.375C3.81296 13.4163 3.72999 13.4766 3.66212 13.552L0.162119 17.752C0.0433023 17.8947 -0.0139716 18.0787 0.00289732 18.2636C0.0197662 18.4485 0.109396 18.6191 0.252069 18.7379C0.394742 18.8568 0.578772 18.914 0.763673 18.8972C0.948575 18.8803 1.1192 18.7907 1.23802 18.648L3.49972 15.9334V36.5666L1.23802 33.852Z" fill="#FFA027"/>
<path d="M41.3 -7.62939e-06C41.1144 -7.62939e-06 40.9363 0.0737422 40.805 0.205018C40.6738 0.336293 40.6 0.514341 40.6 0.699992V7.69999C40.6 7.88564 40.6738 8.06369 40.805 8.19497C40.9363 8.32624 41.1144 8.39999 41.3 8.39999C41.4857 8.39999 41.6637 8.32624 41.795 8.19497C41.9263 8.06369 42 7.88564 42 7.69999V0.699992C42 0.514341 41.9263 0.336293 41.795 0.205018C41.6637 0.0737422 41.4857 -7.62939e-06 41.3 -7.62939e-06ZM11.2 -7.62939e-06C11.0143 -7.62939e-06 10.8363 0.0737422 10.705 0.205018C10.5737 0.336293 10.5 0.514341 10.5 0.699992V7.69999C10.5 7.88564 10.5737 8.06369 10.705 8.19497C10.8363 8.32624 11.0143 8.39999 11.2 8.39999C11.3857 8.39999 11.5637 8.32624 11.695 8.19497C11.8263 8.06369 11.9 7.88564 11.9 7.69999V0.699992C11.9 0.514341 11.8263 0.336293 11.695 0.205018C11.5637 0.0737422 11.3857 -7.62939e-06 11.2 -7.62939e-06Z" fill="#FFC378"/>
<path d="M34.7492 0.162392C34.6786 0.103514 34.5971 0.0591177 34.5093 0.0317383C34.4216 0.00435886 34.3293 -0.00546754 34.2377 0.00282008C34.1462 0.0111077 34.0571 0.0373471 33.9757 0.08004C33.8943 0.122733 33.8221 0.181043 33.7632 0.251642C33.7043 0.322241 33.6599 0.403745 33.6326 0.491501C33.6052 0.579258 33.5954 0.671547 33.6036 0.763101C33.6119 0.854655 33.6382 0.94368 33.6809 1.02509C33.7236 1.10651 33.7819 1.17871 33.8525 1.23759L36.5671 3.49999H15.9346L18.6492 1.23759C18.7198 1.17871 18.7781 1.10651 18.8208 1.02509C18.8635 0.94368 18.8897 0.854655 18.898 0.763101C18.9063 0.671547 18.8964 0.579258 18.8691 0.491501C18.8417 0.403745 18.7973 0.322241 18.7384 0.251642C18.6795 0.181043 18.6073 0.122733 18.5259 0.08004C18.4445 0.0373471 18.3555 0.0111077 18.2639 0.0028201C18.1724 -0.00546753 18.0801 0.00435887 17.9923 0.0317383C17.9046 0.0591177 17.8231 0.103514 17.7525 0.162392L13.5525 3.66239C13.4737 3.72809 13.4103 3.81029 13.3668 3.90319C13.3233 3.99609 13.3008 4.09742 13.3008 4.19999C13.3008 4.30257 13.3233 4.40389 13.3668 4.49679C13.4103 4.58969 13.4737 4.6719 13.5525 4.73759L17.7525 8.23759C17.895 8.3565 18.079 8.4139 18.2639 8.39716C18.4488 8.38043 18.6195 8.29092 18.7384 8.14834C18.8573 8.00576 18.9147 7.82178 18.898 7.63688C18.8813 7.45198 18.7917 7.2813 18.6492 7.16239L15.9346 4.89999H36.5671L33.8525 7.16239C33.7099 7.2813 33.6204 7.45198 33.6036 7.63688C33.5869 7.82178 33.6443 8.00576 33.7632 8.14834C33.8821 8.29092 34.0528 8.38043 34.2377 8.39716C34.4226 8.4139 34.6066 8.3565 34.7492 8.23759L38.9492 4.73759C39.0279 4.6719 39.0913 4.58969 39.1348 4.49679C39.1783 4.40389 39.2008 4.30257 39.2008 4.19999C39.2008 4.09742 39.1783 3.99609 39.1348 3.90319C39.0913 3.81029 39.0279 3.72809 38.9492 3.66239L34.7492 0.162392Z" fill="#FFA027"/>
<path d="M41.727 12.0925C41.4995 11.6152 41.1414 11.2123 40.6941 10.9304C40.2468 10.6485 39.7287 10.4993 39.2 10.5H13.3C12.8823 10.5025 12.47 10.5956 12.0918 10.773C11.615 11.001 11.2125 11.3594 10.9309 11.8065C10.6492 12.2537 10.4998 12.7715 10.5 13.3V39.2C10.5028 39.6172 10.5959 40.0295 10.773 40.4075C11.0005 40.8848 11.3586 41.2877 11.8059 41.5696C12.2532 41.8515 12.7713 42.0007 13.3 42H39.2C39.6178 41.9975 40.03 41.9044 40.4082 41.727C40.885 41.4989 41.2875 41.1406 41.5692 40.6934C41.8508 40.2463 42.0002 39.7285 42 39.2V13.3C41.9972 12.8825 41.9041 12.4706 41.727 12.0925ZM40.6 13.3V39.2C40.5979 39.32 40.5807 39.4392 40.5489 39.5549L27.237 26.25L40.5482 12.9451C40.5804 13.0606 40.5979 13.1803 40.6 13.3ZM39.2 11.9C39.32 11.9017 39.4393 11.9189 39.5549 11.9511L26.25 25.263L12.9451 11.9518C13.0607 11.9192 13.18 11.9018 13.3 11.9H39.2ZM11.9518 39.5549C11.9193 39.4393 11.9019 39.32 11.9 39.2V13.3C11.9021 13.1803 11.9196 13.0606 11.9511 12.9451L25.263 26.25L11.9518 39.5549ZM13.3 40.6C13.18 40.5982 13.0607 40.5811 12.9451 40.5489L26.25 27.237L39.5549 40.5482C39.4393 40.5808 39.32 40.5982 39.2 40.6H13.3Z" fill="#4EAAB7"/>
</svg>
