<svg width="52" height="46" viewBox="0 0 52 46" fill="none" xmlns="http://www.w3.org/2000/svg">
<path d="M50.9445 44.9785C50.736 44.9785 50.536 44.8947 50.3885 44.7456C50.241 44.5965 50.1582 44.3943 50.1582 44.1835V24.7646C50.1582 24.6602 50.1785 24.5569 50.2181 24.4604C50.2576 24.364 50.3155 24.2763 50.3885 24.2025C50.4615 24.1287 50.5482 24.0702 50.6436 24.0302C50.739 23.9903 50.8412 23.9697 50.9445 23.9697C51.0478 23.9697 51.15 23.9903 51.2454 24.0302C51.3408 24.0702 51.4275 24.1287 51.5005 24.2025C51.5735 24.2763 51.6314 24.364 51.6709 24.4604C51.7105 24.5569 51.7308 24.6602 51.7308 24.7646V44.1835C51.7308 44.3943 51.648 44.5965 51.5005 44.7456C51.353 44.8947 51.153 44.9785 50.9445 44.9785Z" fill="#276C76"/>
<path d="M28.3676 9.00194C29.1911 8.14951 29.6995 6.98431 29.6995 5.69857C29.6995 3.08684 27.6052 0.969604 25.0219 0.969604C22.4386 0.969604 20.3443 3.08684 20.3443 5.69857C20.3443 6.9917 20.8582 8.16306 21.6901 9.01683C19.6062 9.58536 17.3252 10.8941 17.3252 13.9003V27.8288C17.3252 28.8757 18.1647 29.7244 19.2002 29.7244C20.2358 29.7244 21.0753 28.8757 21.0753 27.8288V41.1104C21.0753 43.4181 21.9664 44.0467 23.0656 44.0467L25.0559 42.6731L27.0462 44.0467C28.1455 44.0467 29.0366 43.2271 29.0366 41.1104V27.8288C29.0366 28.8757 29.8761 29.7244 30.9116 29.7244C31.9471 29.7244 32.7867 28.8757 32.7867 27.8288V13.9003C32.7868 10.868 30.4661 9.56267 28.3676 9.00194Z" fill="#BBC8B7"/>
<path d="M9.99324 19.3311C10.7386 18.5597 11.1986 17.5052 11.1986 16.3415C11.1986 13.9779 9.30333 12.0618 6.96546 12.0618C4.62759 12.0618 2.73234 13.9779 2.73234 16.3415C2.73234 17.5117 3.19739 18.5719 3.95027 19.3445C2.06426 19.8591 0 21.0434 0 23.7641V32.9162C0 33.8637 0.759688 34.6318 1.69691 34.6318C2.63413 34.6318 3.39381 33.8637 3.39381 32.9162V41.3015C3.39381 43.166 4.20022 44.0467 5.19502 44.0467L6.99623 42.6533L8.79745 44.0467C9.79225 44.0467 10.5987 43.1617 10.5987 41.3015V32.9162C10.5987 33.8637 11.3583 34.6318 12.2956 34.6318C13.2327 34.6318 13.9925 33.8637 13.9925 32.9162V23.7641C13.9926 21.0199 11.8924 19.8384 9.99324 19.3311Z" fill="#FFDBAE"/>
<path d="M8.79729 43.1226C8.23108 43.1226 7.7258 42.8584 7.39563 42.4454C7.1922 42.1909 6.79986 42.1909 6.59643 42.4454C6.42775 42.657 6.21426 42.8277 5.97169 42.9449C5.72911 43.0621 5.46362 43.1228 5.19477 43.1226C4.19996 43.1226 3.39355 42.3073 3.39355 41.3015V43.1617C3.39355 44.1824 4.21977 45.0492 5.2292 45.0301C6.20805 45.0115 6.99598 44.2035 6.99598 43.2094C6.99598 44.2034 7.7839 45.0115 8.76276 45.0301C9.77219 45.0492 10.5984 44.1824 10.5984 43.1617V41.3015C10.5985 42.3073 9.79199 43.1226 8.79729 43.1226Z" fill="#F9CD80"/>
<path d="M27.0472 43.1225C26.4075 43.1225 25.8381 42.8174 25.474 42.3431C25.4249 42.2785 25.3617 42.2261 25.2894 42.1901C25.2171 42.154 25.1375 42.1353 25.0569 42.1353C24.9762 42.1353 24.8967 42.154 24.8243 42.1901C24.752 42.2261 24.6888 42.2785 24.6397 42.3431C24.2756 42.8174 23.7063 43.1225 23.0665 43.1225C21.9673 43.1225 21.0762 42.2216 21.0762 41.1104V42.97C21.0762 44.061 21.9154 44.9903 22.9939 45.0291C24.1262 45.0697 25.0567 44.1538 25.0567 43.0182C25.0567 44.1538 25.9872 45.0697 27.1195 45.0291C28.198 44.9903 29.0374 44.061 29.0374 42.97V41.1104C29.0375 42.2216 28.1464 43.1225 27.0472 43.1225Z" fill="#A0AB9D"/>
<path d="M47.5805 13.7716C48.404 12.9191 48.9124 11.7539 48.9124 10.4681C48.9124 7.85637 46.8181 5.73914 44.2348 5.73914C41.6515 5.73914 39.5572 7.85637 39.5572 10.4681C39.5572 11.7612 40.0711 12.9326 40.903 13.7864C38.8191 14.355 36.5381 15.6636 36.5381 18.6699V28.7826C36.5381 29.8295 37.3776 30.6782 38.4131 30.6782C39.4487 30.6782 40.2882 29.8295 40.2882 28.7826V41.1103C40.2882 43.0703 41.1793 44.0466 42.2785 44.0466C42.58 44.0466 44.2688 42.6539 44.2688 42.6539C44.2688 42.6539 45.9209 44.0466 46.2591 44.0466C47.3584 44.0466 48.2495 43.4419 48.2495 41.1103V24.967C48.2495 26.0139 49.089 26.8627 50.1245 26.8627C51.16 26.8627 51.9996 26.0139 51.9996 24.967V18.67C51.9996 15.6377 49.6789 14.3322 47.5805 13.7716Z" fill="#89C6CF"/>
<path d="M46.2591 43.1225C45.6194 43.1225 45.05 42.8174 44.6859 42.3431C44.6368 42.2784 44.5737 42.2261 44.5013 42.19C44.429 42.154 44.3494 42.1352 44.2688 42.1352C44.1881 42.1352 44.1086 42.154 44.0362 42.19C43.9639 42.2261 43.9007 42.2784 43.8516 42.3431C43.4875 42.8174 42.9182 43.1225 42.2784 43.1225C41.1792 43.1225 40.2881 42.2216 40.2881 41.1104V42.97C40.2881 44.061 41.1273 44.9903 42.2058 45.0291C43.3381 45.0698 44.2687 44.1538 44.2687 43.0182C44.2687 44.1538 45.1992 45.0697 46.3316 45.0291C47.4102 44.9903 48.2493 44.061 48.2493 42.97V41.1104C48.2495 42.2216 47.3584 43.1225 46.2591 43.1225Z" fill="#276C76"/>
<path d="M3.39372 33.711C3.18518 33.711 2.98518 33.6273 2.83772 33.4782C2.69026 33.3291 2.60742 33.1269 2.60742 32.9161V24.3162C2.60742 24.1054 2.69026 23.9032 2.83772 23.7541C2.98518 23.6051 3.18518 23.5213 3.39372 23.5213C3.60226 23.5213 3.80226 23.6051 3.94971 23.7541C4.09717 23.9032 4.18002 24.1054 4.18002 24.3162V32.9161C4.18002 33.1269 4.09717 33.3291 3.94971 33.4782C3.80226 33.6273 3.60226 33.711 3.39372 33.711ZM10.5987 33.711C10.3901 33.711 10.1901 33.6273 10.0427 33.4782C9.89521 33.3291 9.81237 33.1269 9.81237 32.9161V24.3162C9.81237 24.2118 9.83271 24.1085 9.87222 24.012C9.91174 23.9156 9.96965 23.8279 10.0427 23.7541C10.1157 23.6803 10.2024 23.6218 10.2978 23.5818C10.3932 23.5419 10.4954 23.5213 10.5987 23.5213C10.7019 23.5213 10.8042 23.5419 10.8996 23.5818C10.995 23.6218 11.0816 23.6803 11.1547 23.7541C11.2277 23.8279 11.2856 23.9156 11.3251 24.012C11.3646 24.1085 11.385 24.2118 11.385 24.3162V32.9161C11.385 33.1269 11.3021 33.3291 11.1547 33.4782C11.0072 33.6273 10.8072 33.711 10.5987 33.711ZM6.99624 44.0043C6.7877 44.0043 6.58771 43.9206 6.44025 43.7715C6.29279 43.6224 6.20995 43.4202 6.20995 43.2094V33.0629C6.20995 32.8521 6.29279 32.6499 6.44025 32.5008C6.58771 32.3517 6.7877 32.268 6.99624 32.268C7.20478 32.268 7.40478 32.3517 7.55224 32.5008C7.6997 32.6499 7.78254 32.8521 7.78254 33.0629V43.2094C7.78249 43.4202 7.69963 43.6224 7.55218 43.7715C7.40473 43.9205 7.20476 44.0043 6.99624 44.0043Z" fill="#FFAB42"/>
<path d="M21.0754 28.6237C20.8668 28.6237 20.6668 28.54 20.5194 28.3909C20.3719 28.2418 20.2891 28.0396 20.2891 27.8288V14.5105C20.2891 14.2996 20.3719 14.0974 20.5194 13.9483C20.6668 13.7993 20.8668 13.7155 21.0754 13.7155C21.2839 13.7155 21.4839 13.7993 21.6314 13.9483C21.7788 14.0974 21.8617 14.2996 21.8617 14.5105V27.8288C21.8617 27.9332 21.8413 28.0366 21.8018 28.133C21.7623 28.2294 21.7044 28.3171 21.6314 28.3909C21.5583 28.4647 21.4717 28.5233 21.3763 28.5632C21.2809 28.6032 21.1786 28.6237 21.0754 28.6237ZM29.0365 28.6237C28.828 28.6237 28.628 28.54 28.4805 28.3909C28.3331 28.2418 28.2502 28.0396 28.2502 27.8288V14.5105C28.2502 14.2996 28.3331 14.0974 28.4805 13.9483C28.628 13.7993 28.828 13.7155 29.0365 13.7155C29.2451 13.7155 29.4451 13.7993 29.5925 13.9483C29.74 14.0974 29.8228 14.2996 29.8228 14.5105V27.8288C29.8228 27.9332 29.8025 28.0366 29.763 28.133C29.7235 28.2294 29.6655 28.3171 29.5925 28.3909C29.5195 28.4647 29.4328 28.5233 29.3374 28.5632C29.242 28.6032 29.1398 28.6237 29.0365 28.6237ZM25.056 43.8132C24.9527 43.8132 24.8505 43.7926 24.7551 43.7527C24.6597 43.7127 24.573 43.6542 24.5 43.5803C24.427 43.5065 24.3691 43.4189 24.3296 43.3224C24.29 43.226 24.2697 43.1226 24.2697 43.0182V27.9909C24.2697 27.8865 24.29 27.7832 24.3296 27.6867C24.3691 27.5903 24.427 27.5026 24.5 27.4288C24.573 27.355 24.6597 27.2964 24.7551 27.2565C24.8505 27.2165 24.9527 27.196 25.056 27.196C25.1593 27.196 25.2615 27.2165 25.3569 27.2565C25.4523 27.2964 25.539 27.355 25.612 27.4288C25.685 27.5026 25.7429 27.5903 25.7824 27.6867C25.822 27.7832 25.8423 27.8865 25.8423 27.9909V43.0182C25.8423 43.2291 25.7594 43.4312 25.612 43.5803C25.4645 43.7294 25.2645 43.8131 25.056 43.8132Z" fill="#A0AB9D"/>
<path d="M40.2883 29.5776C40.0797 29.5776 39.8797 29.4938 39.7323 29.3448C39.5848 29.1957 39.502 28.9935 39.502 28.7826V19.28C39.502 19.0691 39.5848 18.8669 39.7323 18.7178C39.8797 18.5688 40.0797 18.485 40.2883 18.485C40.4968 18.485 40.6968 18.5688 40.8442 18.7178C40.9917 18.8669 41.0745 19.0691 41.0745 19.28V28.7826C41.0745 28.9935 40.9917 29.1957 40.8442 29.3448C40.6968 29.4938 40.4968 29.5776 40.2883 29.5776ZM48.2494 25.7619C48.1462 25.7619 48.0439 25.7414 47.9485 25.7014C47.8531 25.6615 47.7665 25.6029 47.6934 25.5291C47.6204 25.4553 47.5625 25.3677 47.523 25.2712C47.4835 25.1748 47.4631 25.0714 47.4631 24.967V19.28C47.4631 19.0691 47.546 18.8669 47.6934 18.7178C47.8409 18.5688 48.0409 18.485 48.2494 18.485C48.458 18.485 48.658 18.5688 48.8054 18.7178C48.9529 18.8669 49.0357 19.0691 49.0357 19.28V24.967C49.0357 25.0714 49.0154 25.1748 48.9759 25.2712C48.9364 25.3677 48.8784 25.4553 48.8054 25.5291C48.7324 25.6029 48.6457 25.6615 48.5503 25.7014C48.4549 25.7414 48.3527 25.7619 48.2494 25.7619ZM44.2688 43.8132C44.1655 43.8132 44.0633 43.7926 43.9679 43.7526C43.8725 43.7127 43.7858 43.6541 43.7128 43.5803C43.6398 43.5065 43.5819 43.4189 43.5423 43.3224C43.5028 43.226 43.4825 43.1226 43.4825 43.0182V31.8065C43.4825 31.7021 43.5028 31.5988 43.5423 31.5023C43.5819 31.4059 43.6398 31.3182 43.7128 31.2444C43.7858 31.1706 43.8725 31.1121 43.9679 31.0721C44.0633 31.0322 44.1655 31.0116 44.2688 31.0116C44.372 31.0116 44.4743 31.0322 44.5697 31.0721C44.6651 31.1121 44.7518 31.1706 44.8248 31.2444C44.8978 31.3182 44.9557 31.4059 44.9952 31.5023C45.0347 31.5988 45.0551 31.7021 45.0551 31.8065V43.0182C45.0551 43.1226 45.0347 43.226 44.9952 43.3224C44.9557 43.4189 44.8978 43.5065 44.8248 43.5803C44.7518 43.6541 44.6651 43.7127 44.5697 43.7526C44.4743 43.7926 44.372 43.8132 44.2688 43.8132Z" fill="#276C76"/>
</svg>
