<svg width="42" height="42" viewBox="0 0 42 42" fill="none" xmlns="http://www.w3.org/2000/svg">
<path d="M0.266602 38.0854L3.65838 17.6557C3.83692 16.5806 4.39118 15.6038 5.22249 14.8991C6.0538 14.1944 7.10821 13.8076 8.19801 13.8075H33.8028C34.8926 13.8076 35.947 14.1944 36.7783 14.8991C37.6096 15.6038 38.1638 16.5806 38.3424 17.6557L41.7342 38.0854H0.266602Z" fill="#C4E2E7"/>
<path d="M3.03223 38.0854H38.9683V41.7334H3.03223V38.0854Z" fill="#107C8C"/>
<path d="M0.266602 0.26622V1.96427C0.266602 3.69275 0.95324 5.35044 2.17546 6.57267C3.39769 7.79489 5.05538 8.48153 6.78387 8.48153H35.2169C36.9454 8.48153 38.6031 7.79489 39.8253 6.57267C41.0475 5.35044 41.7342 3.69275 41.7342 1.96427V0.26622H0.266602Z" fill="#C4E2E7"/>
<path d="M18.0342 8.48153H23.9671V13.8075H18.0342V8.48153Z" fill="#107C8C"/>
<path d="M21.0001 34.5481C25.7506 34.5481 29.6017 30.697 29.6017 25.9464C29.6017 21.1959 25.7506 17.3448 21.0001 17.3448C16.2495 17.3448 12.3984 21.1959 12.3984 25.9464C12.3984 30.697 16.2495 34.5481 21.0001 34.5481Z" fill="#F9FBF9"/>
<path d="M21.6288 17.3703V19.0522C21.6288 19.219 21.5626 19.3789 21.4446 19.4969C21.3267 19.6148 21.1667 19.6811 20.9999 19.6811C20.8331 19.6811 20.6732 19.6148 20.5552 19.4969C20.4373 19.3789 20.371 19.219 20.371 19.0522V17.3703C20.5795 17.3523 20.7879 17.3452 20.9999 17.3452C21.212 17.3452 21.4204 17.3523 21.6288 17.3703ZM21.6288 32.8414V34.5233C21.4204 34.5413 21.212 34.5484 20.9999 34.5484C20.7879 34.5484 20.5795 34.5413 20.371 34.5233V32.8414C20.371 32.6746 20.4373 32.5146 20.5552 32.3967C20.6732 32.2788 20.8331 32.2125 20.9999 32.2125C21.1667 32.2125 21.3267 32.2788 21.4446 32.3967C21.5626 32.5146 21.6288 32.6746 21.6288 32.8414ZM29.6034 25.945C29.6034 26.157 29.5962 26.3655 29.5782 26.5739H27.8927C27.7259 26.5739 27.566 26.5076 27.448 26.3897C27.3301 26.2718 27.2638 26.1118 27.2638 25.945C27.2638 25.7782 27.3301 25.6182 27.448 25.5003C27.566 25.3824 27.7259 25.3161 27.8927 25.3161H29.5782C29.5962 25.5245 29.6034 25.733 29.6034 25.945ZM14.736 25.945C14.7362 26.0276 14.7201 26.1095 14.6885 26.1859C14.657 26.2623 14.6107 26.3317 14.5522 26.3901C14.4938 26.4486 14.4244 26.4949 14.348 26.5264C14.2716 26.558 14.1898 26.5741 14.1071 26.5739H12.4216C12.4037 26.3655 12.3965 26.157 12.3965 25.945C12.3965 25.733 12.4037 25.5245 12.4216 25.3161H14.1071C14.2738 25.3163 14.4337 25.3826 14.5516 25.5005C14.6695 25.6184 14.7358 25.7783 14.736 25.945ZM25.1884 21.7579C25.1301 21.6995 25.0608 21.6531 24.9845 21.6215C24.9082 21.5899 24.8265 21.5736 24.7439 21.5736C24.6613 21.5736 24.5795 21.5899 24.5033 21.6215C24.427 21.6531 24.3577 21.6995 24.2993 21.7579L21.8222 24.2344C21.5662 24.1086 21.2851 24.0425 20.9999 24.041C20.6232 24.041 20.255 24.1527 19.9417 24.362C19.6285 24.5713 19.3844 24.8688 19.2402 25.2168C19.0961 25.5649 19.0583 25.9478 19.1318 26.3173C19.2053 26.6868 19.3867 27.0262 19.6531 27.2925C19.9195 27.5589 20.2589 27.7403 20.6283 27.8138C20.9978 27.8873 21.3808 27.8496 21.7288 27.7054C22.0768 27.5613 22.3743 27.3171 22.5836 27.0039C22.7929 26.6907 22.9046 26.3224 22.9046 25.9457C22.9031 25.6606 22.8367 25.3795 22.7105 25.1238L25.1877 22.6463C25.3056 22.5286 25.3719 22.3689 25.3721 22.2023C25.3722 22.0357 25.3061 21.8758 25.1884 21.7579ZM20.9999 26.594C20.872 26.594 20.7469 26.5561 20.6405 26.485C20.5342 26.4139 20.4512 26.3129 20.4023 26.1947C20.3533 26.0765 20.3405 25.9464 20.3655 25.821C20.3904 25.6955 20.452 25.5802 20.5425 25.4897C20.633 25.3993 20.7482 25.3377 20.8737 25.3127C20.9992 25.2878 21.1293 25.3006 21.2475 25.3495C21.3657 25.3985 21.4667 25.4814 21.5378 25.5878C21.6089 25.6942 21.6468 25.8192 21.6468 25.9472C21.6468 26.1187 21.5786 26.2833 21.4573 26.4046C21.336 26.5259 21.1715 26.594 20.9999 26.594Z" fill="#FFA027"/>
<path d="M12.398 3.57462H5.85742C5.77483 3.57462 5.69305 3.55836 5.61675 3.52675C5.54045 3.49514 5.47112 3.44882 5.41272 3.39042C5.35432 3.33202 5.30799 3.26269 5.27639 3.18639C5.24478 3.11009 5.22852 3.02831 5.22852 2.94572C5.22852 2.86313 5.24478 2.78135 5.27639 2.70504C5.30799 2.62874 5.35432 2.55941 5.41272 2.50101C5.47112 2.44261 5.54045 2.39629 5.61675 2.36468C5.69305 2.33308 5.77483 2.31681 5.85742 2.31681H12.398C12.5648 2.31681 12.7248 2.38307 12.8428 2.50101C12.9607 2.61896 13.027 2.77892 13.027 2.94572C13.027 3.11251 12.9607 3.27248 12.8428 3.39042C12.7248 3.50836 12.5648 3.57462 12.398 3.57462ZM17.0088 3.57462H15.0847C14.9179 3.57462 14.758 3.50836 14.64 3.39042C14.5221 3.27248 14.4558 3.11251 14.4558 2.94572C14.4558 2.77892 14.5221 2.61896 14.64 2.50101C14.758 2.38307 14.9179 2.31681 15.0847 2.31681H17.0088C17.0914 2.31681 17.1732 2.33308 17.2495 2.36468C17.3258 2.39629 17.3951 2.44261 17.4535 2.50101C17.5119 2.55941 17.5583 2.62874 17.5899 2.70504C17.6215 2.78135 17.6377 2.86313 17.6377 2.94572C17.6377 3.02831 17.6215 3.11009 17.5899 3.18639C17.5583 3.26269 17.5119 3.33202 17.4535 3.39042C17.3951 3.44882 17.3258 3.49514 17.2495 3.52675C17.1732 3.55836 17.0914 3.57462 17.0088 3.57462Z" fill="#107C8C"/>
</svg>
