<svg width="28" height="50" viewBox="0 0 28 50" fill="none" xmlns="http://www.w3.org/2000/svg">
<path d="M15.6144 32.8472C18.1497 34.5315 19.8178 37.3868 19.8178 40.6254C19.8178 45.4754 16.0777 49.465 11.2843 49.9505C11.0806 49.971 10.8764 49.9852 10.6719 49.9932C10.3263 50.0062 9.98033 50.001 9.63535 49.9775C9.62584 49.9765 9.61522 49.9765 9.60471 49.9755C4.67157 49.6255 0.779297 45.5733 0.779297 40.6254C0.779297 37.3868 2.44725 34.5316 4.98263 32.8472V5.12813C4.98263 3.7125 5.57709 2.43018 6.53952 1.50205C7.50196 0.573926 8.83038 0 10.2984 0C13.2346 0 15.6144 2.2959 15.6144 5.12813V32.8472Z" fill="#C4E2E7"/>
<path d="M10.298 40.6253C9.71382 40.6253 9.24023 40.1589 9.24023 39.5836V13.5418C9.24023 12.9665 9.71382 12.5001 10.298 12.5001C10.8821 12.5001 11.3557 12.9665 11.3557 13.5418V39.5837C11.3557 40.1589 10.8822 40.6253 10.298 40.6253Z" fill="#FFA027"/>
<path d="M26.1637 8.3334H19.8175C19.2333 8.3334 18.7598 7.86699 18.7598 7.2917C18.7598 6.71641 19.2333 6.25 19.8175 6.25H26.1637C26.7479 6.25 27.2215 6.71641 27.2215 7.2917C27.2214 7.86699 26.7478 8.3334 26.1637 8.3334ZM26.1637 14.5834H19.8175C19.2333 14.5834 18.7598 14.117 18.7598 13.5417C18.7598 12.9664 19.2333 12.5 19.8175 12.5H26.1637C26.7479 12.5 27.2215 12.9664 27.2215 13.5417C27.2215 14.117 26.7478 14.5834 26.1637 14.5834ZM26.1637 20.8335H19.8175C19.2333 20.8335 18.7598 20.3671 18.7598 19.7918C18.7598 19.2165 19.2333 18.7501 19.8175 18.7501H26.1637C26.7479 18.7501 27.2215 19.2165 27.2215 19.7918C27.2215 20.3671 26.7478 20.8335 26.1637 20.8335ZM26.1637 27.0835H19.8175C19.2333 27.0835 18.7598 26.6171 18.7598 26.0418C18.7598 25.4665 19.2333 25.0001 19.8175 25.0001H26.1637C26.7479 25.0001 27.2215 25.4665 27.2215 26.0418C27.2214 26.6171 26.7478 27.0835 26.1637 27.0835Z" fill="#138EA0"/>
<path d="M10.2981 43.7503C12.0505 43.7503 13.4712 42.3512 13.4712 40.6253C13.4712 38.8994 12.0505 37.5003 10.2981 37.5003C8.54563 37.5003 7.125 38.8994 7.125 40.6253C7.125 42.3512 8.54563 43.7503 10.2981 43.7503Z" fill="#138EA0"/>
</svg>
