<svg width="44" height="47" viewBox="0 0 44 47" fill="none" xmlns="http://www.w3.org/2000/svg">
<path d="M26.4005 16.832H17.5996C15.9794 16.832 14.666 18.1455 14.666 19.7657V28.5665C14.666 30.1867 15.9794 31.5001 17.5996 31.5001H26.4005C28.0207 31.5001 29.3341 30.1867 29.3341 28.5665V19.7657C29.3341 18.1455 28.0207 16.832 26.4005 16.832Z" fill="#107C8C"/>
<path d="M17.5996 16.832C16.8216 16.832 16.0754 17.1411 15.5253 17.6913C14.9751 18.2414 14.666 18.9876 14.666 19.7657V28.5665C14.6676 28.7869 14.6942 29.0063 14.7452 29.2207C14.9596 29.2718 15.1791 29.2983 15.3994 29.2999H24.2003C24.9783 29.2999 25.7245 28.9909 26.2747 28.4407C26.8248 27.8905 27.1339 27.1444 27.1339 26.3663V17.5654C27.1323 17.3451 27.1057 17.1256 27.0547 16.9112C26.8403 16.8602 26.6209 16.8336 26.4005 16.832H17.5996Z" fill="#E1F0F3"/>
<path d="M11.7325 16.832H2.93167C1.31147 16.832 -0.00195312 18.1455 -0.00195312 19.7657V28.5665C-0.00195312 30.1867 1.31147 31.5001 2.93167 31.5001H11.7325C13.3527 31.5001 14.6662 30.1867 14.6662 28.5665V19.7657C14.6662 18.1455 13.3527 16.832 11.7325 16.832Z" fill="#107C8C"/>
<path d="M2.93167 16.832C2.15362 16.832 1.40745 17.1411 0.857285 17.6913C0.307124 18.2414 -0.00195312 18.9876 -0.00195312 19.7657V28.5665C-0.000366856 28.7869 0.0262056 29.0063 0.0772547 29.2207C0.291625 29.2718 0.511093 29.2983 0.731452 29.2999H9.53232C10.3104 29.2999 11.0565 28.9909 11.6067 28.4407C12.1569 27.8905 12.4659 27.1444 12.4659 26.3663V17.5654C12.4643 17.3451 12.4378 17.1256 12.3867 16.9112C12.1724 16.8602 11.9529 16.8336 11.7325 16.832H2.93167Z" fill="#E1F0F3"/>
<path d="M11.7325 31.5001H2.93167C1.31147 31.5001 -0.00195312 32.8136 -0.00195312 34.4338V43.2346C-0.00195312 44.8548 1.31147 46.1682 2.93167 46.1682H11.7325C13.3527 46.1682 14.6662 44.8548 14.6662 43.2346V34.4338C14.6662 32.8136 13.3527 31.5001 11.7325 31.5001Z" fill="#107C8C"/>
<path d="M2.93167 31.5001C2.15362 31.5001 1.40745 31.8092 0.857285 32.3594C0.307124 32.9095 -0.00195312 33.6557 -0.00195312 34.4338V43.2346C-0.000366856 43.455 0.0262056 43.6745 0.0772547 43.8888C0.291625 43.9399 0.511093 43.9664 0.731452 43.968H9.53232C10.3104 43.968 11.0565 43.659 11.6067 43.1088C12.1569 42.5586 12.4659 41.8125 12.4659 41.0344V32.2336C12.4643 32.0132 12.4378 31.7937 12.3867 31.5794C12.1724 31.5283 11.9529 31.5017 11.7325 31.5001H2.93167Z" fill="#E1F0F3"/>
<path d="M26.4005 31.5001H17.5996C15.9794 31.5001 14.666 32.8136 14.666 34.4338V43.2346C14.666 44.8548 15.9794 46.1682 17.5996 46.1682H26.4005C28.0207 46.1682 29.3341 44.8548 29.3341 43.2346V34.4338C29.3341 32.8136 28.0207 31.5001 26.4005 31.5001Z" fill="#FFB75D"/>
<path d="M17.5996 31.5001C16.8216 31.5001 16.0754 31.8092 15.5253 32.3594C14.9751 32.9095 14.666 33.6557 14.666 34.4338V43.2346C14.6676 43.455 14.6942 43.6745 14.7452 43.8888C14.9596 43.9399 15.1791 43.9664 15.3994 43.968H24.2003C24.9783 43.968 25.7245 43.659 26.2747 43.1088C26.8248 42.5586 27.1339 41.8125 27.1339 41.0344V32.2336C27.1323 32.0132 27.1057 31.7937 27.0547 31.5794C26.8403 31.5283 26.6209 31.5017 26.4005 31.5001H17.5996Z" fill="#FFE7C9"/>
<path d="M41.0685 31.5001H32.2676C30.6474 31.5001 29.334 32.8136 29.334 34.4338V43.2346C29.334 44.8548 30.6474 46.1682 32.2676 46.1682H41.0685C42.6887 46.1682 44.0021 44.8548 44.0021 43.2346V34.4338C44.0021 32.8136 42.6887 31.5001 41.0685 31.5001Z" fill="#FFAB42"/>
<path d="M32.2676 31.5001C31.4896 31.5001 30.7434 31.8092 30.1932 32.3594C29.6431 32.9095 29.334 33.6557 29.334 34.4338V43.2346C29.3356 43.455 29.3621 43.6745 29.4132 43.8888C29.6276 43.9399 29.847 43.9664 30.0674 43.968H38.8683C39.6463 43.968 40.3925 43.659 40.9426 43.1088C41.4928 42.5586 41.8019 41.8125 41.8019 41.0344V32.2336C41.8003 32.0132 41.7737 31.7937 41.7227 31.5794C41.5083 31.5283 41.2888 31.5017 41.0685 31.5001H32.2676Z" fill="#FFE7C9"/>
<path d="M41.0685 16.832H32.2676C30.6474 16.832 29.334 18.1455 29.334 19.7657V28.5665C29.334 30.1867 30.6474 31.5001 32.2676 31.5001H41.0685C42.6887 31.5001 44.0021 30.1867 44.0021 28.5665V19.7657C44.0021 18.1455 42.6887 16.832 41.0685 16.832Z" fill="#107C8C"/>
<path d="M32.2676 16.832C31.4896 16.832 30.7434 17.1411 30.1932 17.6913C29.6431 18.2414 29.334 18.9876 29.334 19.7657V28.5665C29.3356 28.7869 29.3621 29.0063 29.4132 29.2207C29.6276 29.2718 29.847 29.2983 30.0674 29.2999H38.8683C39.6463 29.2999 40.3925 28.9909 40.9426 28.4407C41.4928 27.8905 41.8019 27.1444 41.8019 26.3663V17.5654C41.8003 17.3451 41.7737 17.1256 41.7227 16.9112C41.5083 16.8602 41.2888 16.8336 41.0685 16.832H32.2676Z" fill="#E1F0F3"/>
<path d="M41.0685 2.164H32.2676C30.6474 2.164 29.334 3.47742 29.334 5.09762V13.8985C29.334 15.5187 30.6474 16.8321 32.2676 16.8321H41.0685C42.6887 16.8321 44.0021 15.5187 44.0021 13.8985V5.09762C44.0021 3.47742 42.6887 2.164 41.0685 2.164Z" fill="#FFB75D"/>
<path d="M32.2676 2.164C31.4896 2.164 30.7434 2.47307 30.1932 3.02323C29.6431 3.5734 29.334 4.31957 29.334 5.09762V13.8985C29.3356 14.1188 29.3621 14.3383 29.4132 14.5527C29.6276 14.6037 29.847 14.6303 30.0674 14.6319H38.8683C39.6463 14.6319 40.3925 14.3228 40.9426 13.7726C41.4928 13.2225 41.8019 12.4763 41.8019 11.6983V2.8974C41.8003 2.67704 41.7737 2.45757 41.7227 2.2432C41.5083 2.19216 41.2888 2.16558 41.0685 2.164H32.2676Z" fill="#FFE7C9"/>
<path d="M12.2331 3.04503L6.00993 9.26818C4.86428 10.4138 4.86428 12.2713 6.00993 13.4169L12.2331 19.6401C13.3787 20.7857 15.2362 20.7857 16.3818 19.6401L22.605 13.4169C23.7506 12.2713 23.7506 10.4138 22.605 9.26818L16.3818 3.04503C15.2362 1.89938 13.3787 1.89938 12.2331 3.04503Z" fill="#107C8C"/>
<path d="M16.3815 3.04401C16.109 2.77158 15.7856 2.55548 15.4297 2.40804C15.0738 2.2606 14.6923 2.18472 14.307 2.18472C13.9218 2.18472 13.5403 2.2606 13.1843 2.40804C12.8284 2.55548 12.505 2.77158 12.2326 3.04401L6.00891 9.26768C5.83177 9.44956 5.67938 9.65398 5.55566 9.87568C5.67939 10.0971 5.83179 10.3013 6.00891 10.4829L12.2319 16.7059C12.5043 16.9783 12.8277 17.1944 13.1836 17.3418C13.5395 17.4893 13.921 17.5652 14.3063 17.5652C14.6915 17.5652 15.073 17.4893 15.429 17.3418C15.7849 17.1944 16.1083 16.9783 16.3807 16.7059L22.6037 10.4829C22.7808 10.3011 22.9334 10.097 23.0576 9.87568C22.9334 9.65412 22.7808 9.44973 22.6037 9.26768L16.3815 3.04401Z" fill="#E1F0F3"/>
<path d="M16.9018 13.9352L12.7529 9.78704L12.4485 10.0907V11.8611H10.9817V9.78704C10.9818 9.59254 11.0591 9.40603 11.1966 9.26852L12.2344 8.23075C12.3745 8.09825 12.56 8.02442 12.7529 8.02442C12.9458 8.02442 13.1313 8.09825 13.2714 8.23075L17.9388 12.8981L16.9018 13.9352ZM39.5999 13.1651H34.4661C34.2716 13.1651 34.085 13.0878 33.9475 12.9503C33.81 12.8128 33.7327 12.6262 33.7327 12.4317V9.49808C33.7327 9.30357 33.81 9.11702 33.9475 8.97948C34.085 8.84194 34.2716 8.76467 34.4661 8.76467H38.1331V7.29786H33.7327V5.83105H38.8665C39.061 5.83105 39.2476 5.90832 39.3851 6.04586C39.5227 6.1834 39.5999 6.36995 39.5999 6.56446V9.49808C39.5999 9.69259 39.5227 9.87913 39.3851 10.0167C39.2476 10.1542 39.061 10.2315 38.8665 10.2315H35.1995V11.6983H39.5999V13.1651ZM38.8665 27.8332H33.7327V26.3664H38.1331V24.8996H34.4661C34.2716 24.8996 34.085 24.8223 33.9475 24.6848C33.81 24.5472 33.7327 24.3607 33.7327 24.1662V21.2326C33.7327 21.0381 33.81 20.8515 33.9475 20.714C34.085 20.5764 34.2716 20.4992 34.4661 20.4992H39.5999V21.966H35.1995V23.4328H38.8665C39.061 23.4328 39.2476 23.51 39.3851 23.6476C39.5227 23.7851 39.5999 23.9717 39.5999 24.1662V27.0998C39.5999 27.2943 39.5227 27.4809 39.3851 27.6184C39.2476 27.7559 39.061 27.8332 38.8665 27.8332ZM9.53032 42.5013H5.12989C4.93538 42.5013 4.74883 42.424 4.61129 42.2865C4.47375 42.149 4.39648 41.9624 4.39648 41.7679V35.9007C4.39648 35.7062 4.47375 35.5196 4.61129 35.3821C4.74883 35.2445 4.93538 35.1673 5.12989 35.1673H9.53032C9.72483 35.1673 9.91138 35.2445 10.0489 35.3821C10.1865 35.5196 10.2637 35.7062 10.2637 35.9007V37.3675H8.79692V36.6341H5.86329V38.1009H9.53032C9.72483 38.1009 9.91138 38.1782 10.0489 38.3157C10.1865 38.4532 10.2637 38.6398 10.2637 38.8343V41.7679C10.2637 41.9624 10.1865 42.149 10.0489 42.2865C9.91138 42.424 9.72483 42.5013 9.53032 42.5013ZM5.86329 41.0345H8.79692V39.5677H5.86329V41.0345ZM8.06351 27.8332H5.12989V26.3664H8.06351C8.25802 26.3664 8.44457 26.2891 8.58211 26.1516C8.71965 26.014 8.79692 25.8275 8.79692 25.633C8.79692 25.4385 8.71965 25.2519 8.58211 25.1144C8.44457 24.9769 8.25802 24.8996 8.06351 24.8996H6.5967C6.40219 24.8996 6.21564 24.8223 6.0781 24.6848C5.94056 24.5472 5.86329 24.3607 5.86329 24.1662C5.86329 23.9717 5.94056 23.7851 6.0781 23.6476C6.21564 23.51 6.40219 23.4328 6.5967 23.4328H8.06351C8.25802 23.4328 8.44457 23.3555 8.58211 23.218C8.71965 23.0804 8.79692 22.8939 8.79692 22.6994C8.79692 22.5049 8.71965 22.3183 8.58211 22.1808C8.44457 22.0432 8.25802 21.966 8.06351 21.966H5.12989V20.4992H8.06351C8.48812 20.4994 8.90357 20.6226 9.25974 20.8537C9.61592 21.0849 9.89761 21.4142 10.0708 21.8018C10.244 22.1895 10.3014 22.619 10.2359 23.0385C10.1705 23.4581 9.98501 23.8497 9.70194 24.1662C9.98501 24.4827 10.1705 24.8743 10.2359 25.2938C10.3014 25.7134 10.244 26.1429 10.0708 26.5305C9.89761 26.9182 9.61592 27.2475 9.25974 27.4786C8.90357 27.7098 8.48812 27.8329 8.06351 27.8332ZM25.6652 23.4328H24.1984V20.4992H22.7316V23.4328H20.6927L21.2501 20.6458L19.8127 20.3525L19.0793 24.0195C19.0575 24.1261 19.0597 24.2361 19.0858 24.3417C19.1118 24.4474 19.161 24.5458 19.2298 24.6301C19.2986 24.7143 19.3853 24.7822 19.4835 24.8288C19.5818 24.8754 19.6892 24.8996 19.798 24.8996H22.7316V27.8332H24.1984V24.8996H25.6652V23.4328ZM23.4482 42.6605L22.0151 42.3422L23.2839 36.6341H20.816L21.2267 37.8691L19.8332 38.3326L19.0998 36.1324C19.063 36.022 19.053 35.9044 19.0707 35.7893C19.0884 35.6743 19.1332 35.5651 19.2014 35.4708C19.2696 35.3765 19.3593 35.2998 19.463 35.247C19.5668 35.1942 19.6816 35.1669 19.798 35.1673H24.1984C24.3083 35.1672 24.4168 35.1918 24.5159 35.2392C24.615 35.2867 24.7022 35.3559 24.7709 35.4415C24.8397 35.5272 24.8884 35.6273 24.9133 35.7343C24.9382 35.8413 24.9388 35.9526 24.915 36.0598L23.4482 42.6605ZM39.5999 37.3675C39.5999 36.7839 39.3681 36.2243 38.9555 35.8117C38.5429 35.3991 37.9833 35.1673 37.3997 35.1673H35.9329C35.5074 35.1654 35.0905 35.2875 34.7332 35.5186C34.3759 35.7498 34.0937 36.08 33.921 36.4689C33.7483 36.8579 33.6927 37.2887 33.7608 37.7087C33.829 38.1288 34.018 38.5199 34.3047 38.8343C34.018 39.1487 33.829 39.5398 33.7608 39.9598C33.6927 40.3799 33.7483 40.8107 33.921 41.1996C34.0937 41.5886 34.3759 41.9188 34.7332 42.1499C35.0905 42.3811 35.5074 42.5032 35.9329 42.5013H37.3997C37.8253 42.5032 38.2421 42.3811 38.5994 42.1499C38.9567 41.9188 39.2389 41.5886 39.4116 41.1996C39.5843 40.8107 39.64 40.3799 39.5718 39.9598C39.5037 39.5398 39.3147 39.1487 39.0279 38.8343C39.3941 38.4334 39.598 37.9105 39.5999 37.3675ZM35.9329 36.6341H37.3997C37.5942 36.6341 37.7808 36.7113 37.9183 36.8489C38.0559 36.9864 38.1331 37.173 38.1331 37.3675C38.1331 37.562 38.0559 37.7485 37.9183 37.8861C37.7808 38.0236 37.5942 38.1009 37.3997 38.1009H35.9329C35.7384 38.1009 35.5519 38.0236 35.4143 37.8861C35.2768 37.7485 35.1995 37.562 35.1995 37.3675C35.1995 37.173 35.2768 36.9864 35.4143 36.8489C35.5519 36.7113 35.7384 36.6341 35.9329 36.6341ZM37.3997 41.0345H35.9329C35.7384 41.0345 35.5519 40.9572 35.4143 40.8197C35.2768 40.6822 35.1995 40.4956 35.1995 40.3011C35.1995 40.1066 35.2768 39.92 35.4143 39.7825C35.5519 39.645 35.7384 39.5677 35.9329 39.5677H37.3997C37.5942 39.5677 37.7808 39.645 37.9183 39.7825C38.0559 39.92 38.1331 40.1066 38.1331 40.3011C38.1331 40.4956 38.0559 40.6822 37.9183 40.8197C37.7808 40.9572 37.5942 41.0345 37.3997 41.0345Z" fill="#107C8C"/>
</svg>
