<svg width="38" height="44" viewBox="0 0 38 44" fill="none" xmlns="http://www.w3.org/2000/svg">
<path fill-rule="evenodd" clip-rule="evenodd" d="M37.2089 36.3228V-3.05176e-05H0.791016V36.3228C0.791016 38.2893 1.59475 40.0763 2.88962 41.3712C4.18455 42.6661 5.97157 43.4698 7.93807 43.4698H30.0619C32.0285 43.4698 33.8155 42.6661 35.1104 41.3712C36.4053 40.0763 37.209 38.2893 37.209 36.3228H37.2089Z" fill="#C4E2E7"/>
<path fill-rule="evenodd" clip-rule="evenodd" d="M37.2089 36.3228V32.7312H0.791016V36.3228C0.791016 38.2893 1.59475 40.0763 2.88962 41.3712C4.18455 42.6661 5.97157 43.4698 7.93807 43.4698H30.0619C32.0285 43.4698 33.8155 42.6661 35.1104 41.3712C36.4053 40.0763 37.209 38.2893 37.209 36.3228H37.2089Z" fill="#138EA0"/>
<path d="M13.8146 35.9609H6.30371V36.7326H13.8146V35.9609ZM10.8158 33.3815H6.30371V34.153H10.8158V33.3815ZM10.8158 38.5498H6.30371V39.3213H10.8158V38.5498Z" fill="#138EA0"/>
<path d="M13.8146 4.54999H6.30371V5.32158H13.8146V4.54999ZM13.8146 9.7182H6.30371V10.4898H13.8146V9.7182ZM13.8146 14.8864H6.30371V15.6581H13.8146V14.8864ZM13.8146 20.0547H6.30371V20.8263H13.8146V20.0547ZM13.8146 25.2229H6.30371V25.9944H13.8146V25.2229ZM13.8146 30.3912H6.30371V31.1627H13.8146V30.3912ZM13.8146 35.5595H6.30371V36.331H13.8146V35.5595ZM10.8159 7.13879H6.30371V7.91041H10.8159V7.13879ZM10.8159 12.307H6.30371V13.0786H10.8159V12.307ZM10.8159 17.4753H6.30371V18.2469H10.8159V17.4753ZM10.8159 22.6436H6.30371V23.4151H10.8159V22.6436ZM10.8159 27.8116H6.30371V28.5834H10.8159V27.8116ZM10.8159 32.9799H6.30371V33.7516H10.8159V32.9799ZM10.8159 38.1481H6.30371V38.9199H10.8159V38.1481Z" fill="#FFA027"/>
<path d="M37.0019 -3.05176e-05H0.997967C0.446805 -3.05176e-05 0 0.446775 0 0.997937V0.997965C0 1.54913 0.446805 1.99593 0.997967 1.99593H37.0019C37.5531 1.99593 37.9999 1.54913 37.9999 0.997965V0.997937C37.9999 0.446775 37.5531 -3.05176e-05 37.0019 -3.05176e-05Z" fill="#89C6CF"/>
</svg>
