<svg width="48" height="30" viewBox="0 0 48 30" fill="none" xmlns="http://www.w3.org/2000/svg">
<path d="M48 24.3338L15.5625 18.7145L24 29.9532H48V24.3338Z" fill="#309CAB"/>
<path d="M0 24.3338V29.9532H24V18.7145L0 24.3338Z" fill="#309CAB"/>
<path d="M48 24.3338V11.6903H44.4609L43.0547 13.0952L41.6484 11.6903H38.1094L36.7031 13.0952L35.2969 11.6903H31.7578L30.3516 13.0952L28.9453 11.6903H25.4062L18.375 18.0121L24 24.3338H48Z" fill="#C4E2E7"/>
<path d="M24 11.6903H19.0547L17.6484 13.0952L16.2422 11.6903H12.7031L11.2969 13.0952L9.89062 11.6903H6.35156L4.94531 13.0952L3.53906 11.6903H0V24.3338H24V11.6903Z" fill="#C4E2E7"/>
<path d="M46.5938 3.26133H24L22.5938 4.66616L24 6.071H46.5938V3.26133Z" fill="#FFA027"/>
<path d="M24 3.26133H2.8125V0.45166H0V8.88066H2.8125V6.071H24V3.26133Z" fill="#FFA027"/>
<path d="M45.1875 0.45166H48V8.88066H45.1875V0.45166Z" fill="#FFA027"/>
<path d="M3.53906 11.6903H6.35156V18.7145H3.53906V11.6903ZM9.89062 11.6903H12.7031V15.9048H9.89062V11.6903ZM16.2422 11.6903H19.0547V18.7145H16.2422V11.6903Z" fill="#309CAB"/>
<path d="M25.4062 15.9048H24L23.2969 15.2024V12.3927L24 11.6903H25.4062V15.9048Z" fill="#309CAB"/>
<path d="M22.5938 11.6903H24V15.9048H22.5938V11.6903Z" fill="#309CAB"/>
<path d="M28.9453 11.6903H31.7578V18.7145H28.9453V11.6903ZM35.2969 11.6903H38.1094V15.9048H35.2969V11.6903ZM41.6484 11.6903H44.4609V18.7145H41.6484V11.6903Z" fill="#309CAB"/>
</svg>
