<svg width="44" height="44" viewBox="0 0 44 44" fill="none" xmlns="http://www.w3.org/2000/svg">
<path d="M38.0094 3.96829H5.99141C3.16629 3.96829 0.875977 6.25861 0.875977 9.08372V38.8846C0.875977 41.7097 3.16629 44 5.99141 44H38.0094C40.8346 44 43.1249 41.7097 43.1249 38.8846V9.08372C43.1249 6.25846 40.8346 3.96829 38.0094 3.96829Z" fill="#E1F0F3"/>
<path d="M43.1249 13.5796V7.38148C43.1249 4.55637 40.8346 2.26605 38.0094 2.26605H5.99141C3.16629 2.26605 0.875977 4.55637 0.875977 7.38148V13.5796H43.1249Z" fill="#89C6CF"/>
<path d="M43.1249 14.736V9.08372C43.1249 6.25861 40.8346 3.96829 38.0094 3.96829H5.99141C3.16629 3.96829 0.875977 6.25861 0.875977 9.08372V14.736H43.1249Z" fill="#138EA0"/>
<path d="M9.2551 6.71558C8.26906 6.71558 7.46973 7.51491 7.46973 8.50095C7.46973 9.48699 8.26906 10.2862 9.2551 10.2862C10.2411 10.2862 11.0403 9.48685 11.0403 8.50095C11.0405 7.51491 10.2411 6.71558 9.2551 6.71558Z" fill="#06414A"/>
<path d="M9.25495 0C9.00164 3.90094e-05 8.75872 0.100682 8.5796 0.279798C8.40049 0.458914 8.29984 0.701835 8.2998 0.955143V8.39693C8.2998 8.65025 8.40044 8.8932 8.57956 9.07232C8.75868 9.25144 9.00163 9.35208 9.25495 9.35208C9.50827 9.35208 9.75121 9.25144 9.93034 9.07232C10.1095 8.8932 10.2101 8.65025 10.2101 8.39693V0.955143C10.2101 0.701823 10.1095 0.458879 9.93034 0.279755C9.75121 0.100631 9.50827 0 9.25495 0Z" fill="#FFAB42"/>
<path d="M17.7522 6.71558C16.7661 6.71558 15.9668 7.51491 15.9668 8.50095C15.9668 9.48699 16.7661 10.2862 17.7522 10.2862C18.7382 10.2862 19.5374 9.48685 19.5374 8.50095C19.5376 7.51491 18.7382 6.71558 17.7522 6.71558Z" fill="#06414A"/>
<path d="M17.752 0C17.4987 3.90094e-05 17.2558 0.100682 17.0767 0.279798C16.8976 0.458914 16.7969 0.701835 16.7969 0.955143V8.39693C16.7969 8.52236 16.8216 8.64657 16.8696 8.76245C16.9176 8.87833 16.9879 8.98363 17.0766 9.07232C17.1653 9.16101 17.2706 9.23137 17.3865 9.27937C17.5024 9.32737 17.6266 9.35208 17.752 9.35208C17.8774 9.35208 18.0017 9.32737 18.1175 9.27937C18.2334 9.23137 18.3387 9.16101 18.4274 9.07232C18.5161 8.98363 18.5865 8.87833 18.6345 8.76245C18.6825 8.64657 18.7072 8.52236 18.7072 8.39693V0.955143C18.7071 0.701835 18.6065 0.458914 18.4274 0.279798C18.2482 0.100682 18.0053 3.90094e-05 17.752 0Z" fill="#FFAB42"/>
<path d="M26.2492 6.71558C25.2632 6.71558 24.4639 7.51491 24.4639 8.50095C24.4639 9.48699 25.2632 10.2862 26.2492 10.2862C27.2353 10.2862 28.0345 9.48685 28.0345 8.50095C28.0345 7.51491 27.2353 6.71558 26.2492 6.71558Z" fill="#06414A"/>
<path d="M26.2491 0C25.9958 3.90094e-05 25.7529 0.100682 25.5737 0.279798C25.3946 0.458914 25.294 0.701835 25.2939 0.955143V8.39693C25.2939 8.65025 25.3946 8.8932 25.5737 9.07232C25.7528 9.25144 25.9958 9.35208 26.2491 9.35208C26.5024 9.35208 26.7454 9.25144 26.9245 9.07232C27.1036 8.8932 27.2042 8.65025 27.2042 8.39693V0.955143C27.2042 0.701835 27.1035 0.458914 26.9244 0.279798C26.7453 0.100682 26.5024 3.90094e-05 26.2491 0Z" fill="#FFAB42"/>
<path d="M34.7463 6.71558C33.7603 6.71558 32.9609 7.51491 32.9609 8.50095C32.9609 9.48699 33.7603 10.2862 34.7463 10.2862C35.7324 10.2862 36.5315 9.48685 36.5315 8.50095C36.5315 7.51491 35.7322 6.71558 34.7463 6.71558Z" fill="#06414A"/>
<path d="M34.7462 0C34.4929 3.90094e-05 34.2499 0.100682 34.0708 0.279798C33.8917 0.458914 33.7911 0.701835 33.791 0.955143V8.39693C33.791 8.65025 33.8916 8.8932 34.0708 9.07232C34.2499 9.25144 34.4928 9.35208 34.7462 9.35208C34.9995 9.35208 35.2424 9.25144 35.4215 9.07232C35.6007 8.8932 35.7013 8.65025 35.7013 8.39693V0.955143C35.7013 0.701823 35.6007 0.458879 35.4215 0.279755C35.2424 0.100631 34.9995 0 34.7462 0Z" fill="#FFAB42"/>
<path d="M16.4648 21.8036H20.3261V25.665H16.4648V21.8036ZM23.6746 21.8036H27.5359V25.665H23.6746V21.8036ZM30.8845 21.8036H34.7458V25.665H30.8845V21.8036ZM9.25488 27.8569H13.1162V31.7182H9.25488V27.8569ZM16.4648 27.8569H20.3261V31.7182H16.4648V27.8569ZM23.6746 27.8569H27.5359V31.7182H23.6746V27.8569ZM30.8845 27.8569H34.7458V31.7182H30.8845V27.8569ZM9.25488 33.9101H13.1162V37.7714H9.25488V33.9101ZM16.4648 33.9101H20.3261V37.7714H16.4648V33.9101ZM23.6746 33.9101H27.5359V37.7714H23.6746V33.9101Z" fill="#FFA027"/>
</svg>
