<svg width="44" height="44" viewBox="0 0 44 44" fill="none" xmlns="http://www.w3.org/2000/svg">
<path d="M40.1328 3.60938H3.86719C1.73482 3.60938 0 5.3442 0 7.47656V40.1328C0 42.2652 1.73482 44 3.86719 44H40.1328C42.2652 44 44 42.2652 44 40.1328V7.47656C44 5.3442 42.2652 3.60938 40.1328 3.60938Z" fill="#E1F0F3"/>
<path d="M40.1328 3.60938H22V44H40.1328C42.2652 44 44 42.2652 44 40.1328V7.47656C44 5.3442 42.2652 3.60938 40.1328 3.60938Z" fill="#E1F0F3"/>
<path d="M26.2511 22.7916C26.1628 22.5584 26.0055 22.3577 25.8002 22.2163C25.5949 22.0749 25.3513 21.9995 25.102 22.0001H25.101C24.8569 21.9997 24.6182 22.0722 24.4156 22.2083C24.2129 22.3444 24.0555 22.538 23.9636 22.7641C23.9602 22.7723 23.957 22.7805 23.9539 22.7888L21.3724 29.567C21.1612 30.1214 21.4395 30.7421 21.9939 30.9532C22.5483 31.1643 23.1689 30.8862 23.3801 30.3316L23.7596 29.3353H26.4243L26.7991 30.3286C26.9615 30.7588 27.3702 31.0238 27.8043 31.0238C27.9304 31.0238 28.0585 31.0015 28.1834 30.9543C28.7384 30.7448 29.0187 30.1251 28.8092 29.57L26.2511 22.7916ZM24.5778 27.187L25.098 25.821L25.6135 27.187H24.5778Z" fill="#0E6A78"/>
<path d="M26.2511 22.7916C26.181 22.6067 26.0672 22.4416 25.9194 22.3103C25.7716 22.179 25.5942 22.0855 25.4023 22.0377V26.6274L25.6135 27.187H25.4023V29.3355H26.4242L26.799 30.3287C26.9614 30.7589 27.3701 31.024 27.8042 31.024C27.9303 31.024 28.0584 31.0016 28.1833 30.9544C28.7384 30.7449 29.0186 30.1252 28.8091 29.5702L26.2511 22.7916Z" fill="#0E6A78"/>
<path d="M19.4433 24.1486C20.0365 24.1486 20.5175 23.6676 20.5175 23.0744C20.5175 22.4812 20.0365 22.0002 19.4433 22.0002H16.5464C15.9532 22.0002 15.4722 22.4812 15.4722 23.0744V29.9494C15.4722 30.5426 15.9532 31.0236 16.5464 31.0236H19.4433C20.0365 31.0236 20.5175 30.5426 20.5175 29.9494C20.5175 29.3562 20.0365 28.8752 19.4433 28.8752H17.6207V27.5861H19.2298C19.823 27.5861 20.304 27.1052 20.304 26.5119C20.304 25.9186 19.823 25.4377 19.2298 25.4377H17.6207V24.1486H19.4433ZM14.0344 22.1916C13.5372 21.868 12.8718 22.0085 12.5481 22.5058L11.269 24.4707L9.97386 22.4871C9.64945 21.9903 8.98378 21.8505 8.48706 22.175C7.99034 22.4993 7.85052 23.165 8.17485 23.6617L10.1953 26.756L10.1875 29.9467C10.186 30.54 10.6657 31.0222 11.2591 31.0236H11.2618C11.8538 31.0236 12.3345 30.5444 12.3359 29.9521L12.3438 26.7576L14.3486 23.6778C14.6723 23.1806 14.5316 22.5152 14.0344 22.1916Z" fill="#0E6A78"/>
<path d="M35.6682 24.8612C35.6682 23.2837 34.3395 22.0002 32.7061 22.0002H30.877C30.2837 22.0002 29.8027 22.4812 29.8027 23.0744V29.9494C29.8027 30.5426 30.2837 31.0236 30.877 31.0236C31.4702 31.0236 31.9512 30.5426 31.9512 29.9494V28.5727L33.7876 30.6592C33.8883 30.7739 34.0124 30.8657 34.1516 30.9286C34.2907 30.9914 34.4417 31.0238 34.5944 31.0236C34.8556 31.0239 35.1079 30.9286 35.3037 30.7558C35.749 30.3638 35.7923 29.6851 35.4004 29.2396L33.8641 27.4942C34.9237 27.0579 35.6682 26.042 35.6682 24.8612ZM32.7061 24.1486C33.1396 24.1486 33.5198 24.4816 33.5198 24.8612C33.5198 25.2408 33.1396 25.5737 32.7061 25.5737C32.5265 25.5737 32.2469 25.5748 31.9602 25.576C31.9589 25.3 31.958 25.0328 31.958 24.8612C31.958 24.7134 31.9574 24.439 31.9566 24.1486H32.7061Z" fill="#0E6A78"/>
<path d="M16.8438 8.50781C16.1318 8.50781 15.5547 7.93066 15.5547 7.21875V1.28906C15.5547 0.577156 16.1318 0 16.8438 0C17.5557 0 18.1328 0.577156 18.1328 1.28906V7.21875C18.1328 7.93066 17.5557 8.50781 16.8438 8.50781Z" fill="#FFA027"/>
<path d="M37.4688 8.50781C36.7568 8.50781 36.1797 7.93066 36.1797 7.21875V1.28906C36.1797 0.577156 36.7568 0 37.4688 0C38.1807 0 38.7578 0.577156 38.7578 1.28906V7.21875C38.7578 7.93066 38.1807 8.50781 37.4688 8.50781ZM27.1562 8.50781C26.4443 8.50781 25.8672 7.93066 25.8672 7.21875V1.28906C25.8672 0.577156 26.4443 0 27.1562 0C27.8682 0 28.4453 0.577156 28.4453 1.28906V7.21875C28.4453 7.93066 27.8682 8.50781 27.1562 8.50781Z" fill="#FFA027"/>
<path d="M6.53125 8.50781C5.81934 8.50781 5.24219 7.93066 5.24219 7.21875V1.28906C5.24219 0.577156 5.81934 0 6.53125 0C7.24316 0 7.82031 0.577156 7.82031 1.28906V7.21875C7.82031 7.93066 7.24316 8.50781 6.53125 8.50781Z" fill="#FFA027"/>
</svg>
