<svg width="58" height="53" viewBox="0 0 58 53" fill="none" xmlns="http://www.w3.org/2000/svg">
<path d="M37.6538 18.1808H47.1448C49.7359 18.1808 52.221 19.2283 54.0532 21.0929C55.8855 22.9575 56.9148 25.4865 56.9148 28.1234V38.6342H27.8838V28.1234C27.8838 25.4865 28.9131 22.9575 30.7454 21.0929C32.5776 19.2283 35.0627 18.1808 37.6538 18.1808Z" fill="#E0EBDD"/>
<path d="M15.6016 18.1808C20.5349 18.1808 24.5342 14.1109 24.5342 9.09039C24.5342 4.06991 20.5349 0 15.6016 0C10.6682 0 6.66895 4.06991 6.66895 9.09039C6.66895 14.1109 10.6682 18.1808 15.6016 18.1808Z" fill="#FFCF93"/>
<path d="M10.856 18.1808H20.3469C22.9381 18.1808 25.4231 19.2283 27.2554 21.0929C29.0876 22.9575 30.117 25.4865 30.117 28.1234V38.6342H1.08594V28.1234C1.08594 25.4865 2.11528 22.9575 3.94752 21.0929C5.77976 19.2283 8.26481 18.1808 10.856 18.1808Z" fill="#FFCF93"/>
<path d="M42.3994 18.1808C47.3328 18.1808 51.332 14.1109 51.332 9.09039C51.332 4.06991 47.3328 0 42.3994 0C37.4661 0 33.4668 4.06991 33.4668 9.09039C33.4668 14.1109 37.4661 18.1808 42.3994 18.1808Z" fill="#E0EBDD"/>
<path d="M40.4281 28.6635C40.8153 28.8769 41.1963 28.3677 40.8854 28.0504L40.8663 28.0309C33.8058 20.8457 22.3582 20.8457 15.2974 28.0309C13.7577 29.5979 12.5557 31.378 11.6876 33.2772L8.96168 32.1627C8.67684 32.0462 8.38011 32.3017 8.44574 32.6069L10.627 42.7536C10.6854 43.0253 10.9971 43.1488 11.2205 42.9885L19.4459 37.0956C19.6938 36.918 19.6497 36.5314 19.3683 36.4164L16.4218 35.212C17.1627 33.9881 18.0418 32.8565 19.0412 31.8405C24.8326 25.9467 33.5755 24.8881 40.4281 28.6635Z" fill="#107C8C"/>
<path d="M19.3685 36.4165L16.4221 35.2121C17.163 33.9881 18.0421 32.8566 19.0414 31.8406C22.2714 28.5535 26.4195 26.7711 30.6456 26.4918C25.6345 26.1606 20.5138 27.9429 16.6838 31.8406C15.8556 32.6834 14.9391 33.8432 14.2352 34.8911C13.9857 35.2627 14.1143 35.7725 14.5083 35.9769L16.0845 36.7945C16.4528 36.9855 16.4898 37.5064 16.1522 37.7493L10.4355 41.8621L10.6272 42.7536C10.6856 43.0253 10.9973 43.1487 11.2207 42.9885L19.4461 37.0956C19.6941 36.9181 19.6499 36.5315 19.3685 36.4165Z" fill="#138EA0"/>
<path d="M49.555 39.1846L47.3738 29.0379C47.3154 28.7662 47.0037 28.6428 46.7802 28.803L38.5548 34.6959C38.307 34.8736 38.3511 35.2601 38.6324 35.3751L41.5789 36.5795C40.838 37.8034 39.9589 38.935 38.9595 39.951C33.168 45.8448 24.4251 46.9035 17.5725 43.1282C17.1853 42.9148 16.8043 43.424 17.1152 43.7414L17.1343 43.7608C24.195 50.9463 35.6424 50.9463 42.7032 43.7608C44.2429 42.1939 45.445 40.4138 46.313 38.5146L49.039 39.6288C49.3238 39.7453 49.6206 39.4897 49.555 39.1846Z" fill="#107C8C"/>
<path d="M49.555 39.344L47.3737 29.1973C47.3153 28.9256 47.0036 28.8022 46.7802 28.9624L45.5436 29.8483L46.9372 36.231C46.9947 36.4944 46.7476 36.7207 46.4964 36.6349L45.8651 36.4193C45.7464 36.3788 45.6173 36.3843 45.5023 36.4346C45.3874 36.485 45.2947 36.5768 45.2422 36.6924L44.3407 38.6739C43.4728 40.5731 42.2709 42.3532 40.7309 43.9202C37.4515 47.2575 33.2257 49.0436 28.9326 49.281C33.8826 49.5545 38.9219 47.7683 42.7032 43.9202C44.243 42.3532 45.445 40.5731 46.313 38.6739L49.039 39.7882C49.3238 39.9047 49.6205 39.6491 49.555 39.344Z" fill="#4EAAB7"/>
</svg>
