<svg width="35" height="55" viewBox="0 0 35 55" fill="none" xmlns="http://www.w3.org/2000/svg">
<path d="M13.3955 55H4.39859C3.44413 55 2.52877 54.6192 1.85386 53.9415C1.17896 53.2637 0.799805 52.3445 0.799805 51.386V4.40452C0.799805 3.44604 1.17896 2.52681 1.85386 1.84906C2.52877 1.17131 3.44413 0.790558 4.39859 0.790558H25.9913C26.9458 0.790558 27.8611 1.17131 28.536 1.84906C29.2109 2.52681 29.5901 3.44604 29.5901 4.40452V55H13.3955Z" fill="#0B5864"/>
<path d="M4.39831 54.0965C3.68246 54.0965 2.99594 53.811 2.48976 53.3027C1.98359 52.7943 1.69922 52.1049 1.69922 51.3861V4.40453C1.69922 3.68567 1.98359 2.99625 2.48976 2.48794C2.99594 1.97963 3.68246 1.69406 4.39831 1.69406H25.991C26.7069 1.69406 27.3934 1.97963 27.8996 2.48794C28.4057 2.99625 28.6901 3.68567 28.6901 4.40453V54.0965H4.39831Z" fill="#EAEBEF"/>
<path d="M25.9909 1.69406H8.08691C7.34721 1.69406 6.6378 1.98915 6.11475 2.5144C5.5917 3.03966 5.29785 3.75206 5.29785 4.49488V40.0536C5.29809 42.3402 6.20274 44.5331 7.81284 46.15C9.42294 47.7669 11.6066 48.6753 13.8837 48.6756H28.6899V4.40453C28.6899 3.68567 28.4056 2.99625 27.8994 2.48794C27.3932 1.97963 26.7067 1.69406 25.9909 1.69406Z" fill="#F6F8FF"/>
<path d="M7.99707 0.790558L8.89677 4.40452H21.4925L22.3922 0.790558H7.99707Z" fill="#0B5864"/>
<path d="M16.9942 28.7988H6.19783C5.7206 28.7988 5.26292 28.6084 4.92547 28.2695C4.58802 27.9306 4.39844 27.471 4.39844 26.9918V17.9569C4.39844 17.4776 4.58802 17.018 4.92547 16.6792C5.26292 16.3403 5.7206 16.1499 6.19783 16.1499H24.1918C24.669 16.1499 25.1267 16.3403 25.4641 16.6792C25.8016 17.018 25.9911 17.4776 25.9911 17.9569V26.9918C25.9911 27.471 25.8016 27.9306 25.4641 28.2695C25.1267 28.6084 24.669 28.7988 24.1918 28.7988H16.9942Z" fill="#EAEBEF"/>
<path d="M28.795 34.8377L20.1777 34.2197V22.4743C20.1777 21.7555 19.8933 21.066 19.3871 20.5577C18.881 20.0494 18.1944 19.7639 17.4786 19.7639C16.7628 19.7639 16.0762 20.0494 15.5701 20.5577C15.0639 21.066 14.7795 21.7555 14.7795 22.4743V36.0267L12.1821 32.766C11.5352 31.9543 10.6241 31.3977 9.60895 31.1939L8.96477 31.0638C8.34999 30.9402 7.71142 31.0589 7.18144 31.3954C6.65145 31.7318 6.27071 32.2601 6.11813 32.8708C6.01563 33.2813 6.02084 33.7115 6.13327 34.1194C6.2457 34.5273 6.4615 34.899 6.75962 35.1982L10.2576 39.4256C10.8613 40.155 11.2515 41.0382 11.385 41.9771L11.8402 45.1736C11.9959 46.2722 12.5026 47.2903 13.2842 48.0747C14.2416 49.0364 14.7795 50.3406 14.7795 51.7004V54.0965H30.974V51.6932C30.9743 50.8971 31.1591 50.1121 31.5139 49.4002L32.2336 47.9546C32.5884 47.2427 32.7732 46.4576 32.7734 45.6615V39.1284C32.7734 38.0405 32.363 36.9931 31.6248 36.197C30.8866 35.4008 29.8755 34.9152 28.795 34.8377Z" fill="#EAEBEF"/>
<path d="M16.9942 26.9918H6.19783C5.7206 26.9918 5.26292 26.8014 4.92547 26.4625C4.58802 26.1237 4.39844 25.6641 4.39844 25.1848V16.1499C4.39844 15.6707 4.58802 15.2111 4.92547 14.8722C5.26292 14.5333 5.7206 14.3429 6.19783 14.3429H24.1918C24.669 14.3429 25.1267 14.5333 25.4641 14.8722C25.8016 15.2111 25.9911 15.6707 25.9911 16.1499V25.1848C25.9911 25.6641 25.8016 26.1237 25.4641 26.4625C25.1267 26.8014 24.669 26.9918 24.1918 26.9918H16.9942Z" fill="#107C8C"/>
<path d="M8.89705 14.3429H24.1919C24.6691 14.3429 25.1268 14.5333 25.4642 14.8722C25.8017 15.2111 25.9913 15.6707 25.9913 16.1499V24.2371C25.9913 24.6602 25.8239 25.0661 25.5259 25.3653C25.2279 25.6645 24.8238 25.8326 24.4024 25.8326H13.1409C11.5381 25.8326 10.001 25.1932 8.86769 24.0551C7.73435 22.917 7.09766 21.3734 7.09766 19.7639V16.1499C7.09766 15.6707 7.28723 15.2111 7.62469 14.8722C7.96214 14.5333 8.41982 14.3429 8.89705 14.3429Z" fill="#309CAB"/>
<path d="M16.9943 26.9918H20.1775V22.4743C20.1775 21.7555 19.8931 21.066 19.3869 20.5577C18.8808 20.0494 18.1942 19.7639 17.4784 19.7639C16.7625 19.7639 16.076 20.0494 15.5698 20.5577C15.0637 21.066 14.7793 21.7555 14.7793 22.4743V26.9918H16.9943Z" fill="#0E6A78"/>
<path d="M16.5304 49.5791H7.99763C7.52041 49.5791 7.06272 49.3887 6.72527 49.0498C6.38782 48.7109 6.19824 48.2513 6.19824 47.7721V44.1581C6.19824 43.6789 6.38782 43.2193 6.72527 42.8804C7.06272 42.5415 7.52041 42.3511 7.99763 42.3511H16.9946L16.5304 49.5791Z" fill="#6BB8C3"/>
<path d="M16.994 42.3511H11.4375L11.8397 45.1763C11.9954 46.2749 12.5021 47.293 13.2837 48.0775C13.7105 48.5126 14.0561 49.0212 14.3039 49.5791H16.5298L16.994 42.3511Z" fill="#107C8C"/>
<path d="M7.09766 17.0534H10.6964V20.6674H7.09766V17.0534Z" fill="#F4AC1C"/>
<path d="M8.89733 24.2813H7.09794C6.85932 24.2813 6.63048 24.1861 6.46176 24.0167C6.29303 23.8473 6.19824 23.6174 6.19824 23.3778C6.19824 23.1382 6.29303 22.9084 6.46176 22.739C6.63048 22.5695 6.85932 22.4743 7.09794 22.4743H8.89733C9.13594 22.4743 9.36479 22.5695 9.53351 22.739C9.70224 22.9084 9.79703 23.1382 9.79703 23.3778C9.79703 23.6174 9.70224 23.8473 9.53351 24.0167C9.36479 24.1861 9.13594 24.2813 8.89733 24.2813Z" fill="#F6F8FF"/>
<path d="M9.3469 43.2546H8.4472C7.70187 43.2546 7.09766 43.8614 7.09766 44.6099C7.09766 45.3584 7.70187 45.9651 8.4472 45.9651H9.3469C10.0922 45.9651 10.6964 45.3584 10.6964 44.6099C10.6964 43.8614 10.0922 43.2546 9.3469 43.2546Z" fill="#4EAAB7"/>
<path d="M7.83594 17.0534H10.6961V19.9256H9.61644C9.38255 19.9258 9.15092 19.8798 8.93479 19.79C8.71866 19.7002 8.52229 19.5685 8.35691 19.4024C8.19152 19.2364 8.06038 19.0392 7.97099 18.8221C7.88159 18.6051 7.8357 18.3725 7.83594 18.1376V17.0534Z" fill="#FFC239"/>
<path d="M20.1775 25.8326V22.4743C20.1775 21.7555 19.8931 21.066 19.3869 20.5577C18.8808 20.0494 18.1942 19.7639 17.4784 19.7639C16.7625 19.7639 16.076 20.0494 15.5698 20.5577C15.0637 21.066 14.7793 21.7555 14.7793 22.4743V25.8326H20.1775Z" fill="#107C8C"/>
<path d="M31.0098 34.8377L22.3925 34.2197V22.4743C22.3925 21.7555 22.1082 21.066 21.602 20.5577C21.0958 20.0494 20.4093 19.7639 19.6934 19.7639C18.9776 19.7639 18.2911 20.0494 17.7849 20.5577C17.2787 21.066 16.9944 21.7555 16.9944 22.4743V36.0267L14.3969 32.766C13.7501 31.9543 12.839 31.3977 11.8238 31.1939L11.1796 31.0638C10.5648 30.9402 9.92626 31.0589 9.39628 31.3954C8.8663 31.7318 8.48556 32.2601 8.33298 32.8708C8.23047 33.2813 8.23569 33.7115 8.34812 34.1194C8.46054 34.5273 8.67634 34.899 8.97446 35.1982L12.4725 39.4256C13.0761 40.155 13.4664 41.0382 13.5998 41.9771L14.0496 45.1736C14.2061 46.2722 14.7131 47.2901 15.4946 48.0747C15.9698 48.5509 16.3468 49.1164 16.6042 49.739C16.8615 50.3616 16.9941 51.0291 16.9944 51.7032V55H33.1889V51.6932C33.1891 50.8971 33.3739 50.1121 33.7287 49.4002L34.4485 47.9546C34.8038 47.2416 34.9886 46.4552 34.9883 45.6579V39.1284C34.9883 38.0405 34.5779 36.9931 33.8397 36.197C33.1015 35.4008 32.0903 34.9152 31.0098 34.8377Z" fill="#F4C8AD"/>
<path d="M8.33298 32.8735C8.23047 33.2841 8.23569 33.7143 8.34812 34.1222C8.46054 34.5301 8.67634 34.9017 8.97446 35.2009L12.4725 39.4283C13.0761 40.1577 13.4664 41.041 13.5998 41.9798L14.0496 45.1764C14.2061 46.2749 14.7131 47.2929 15.4946 48.0775C15.9694 48.5533 16.3463 49.1184 16.6036 49.7405C16.861 50.3626 16.9938 51.0295 16.9944 51.7032V55H18.531V51.7032C18.5312 51.0298 18.3993 50.363 18.1427 49.7409C17.8861 49.1188 17.51 48.5535 17.0357 48.0775C16.2549 47.2925 15.7482 46.2747 15.5917 45.1764L15.1419 41.9798C15.0077 41.041 14.6172 40.1578 14.0137 39.4283L10.5165 35.2009C10.2185 34.9017 10.0027 34.53 9.8901 34.1222C9.77753 33.7143 9.77203 33.2841 9.87416 32.8735C9.97682 32.4644 10.1834 32.089 10.4737 31.784C10.764 31.479 11.1281 31.2548 11.5305 31.1334L11.1841 31.0638C10.5683 30.939 9.92826 31.0575 9.39721 31.3946C8.86616 31.7317 8.48498 32.2614 8.33298 32.8735ZM16.9944 22.4743V36.0267L18.531 37.9566V22.4743C18.5326 21.892 18.7213 21.3257 19.0692 20.8598C19.4171 20.3939 19.9055 20.0532 20.4618 19.8886C20.0598 19.7606 19.6333 19.7304 19.2174 19.8003C18.8015 19.8702 18.408 20.0384 18.0695 20.2908C17.7309 20.5433 17.4569 20.8729 17.27 21.2525C17.0831 21.6321 16.9886 22.0509 16.9944 22.4743Z" fill="#F2B9A1"/>
<path d="M14.2951 24.2813H11.596C11.3574 24.2813 11.1285 24.1861 10.9598 24.0167C10.7911 23.8473 10.6963 23.6174 10.6963 23.3778C10.6963 23.1382 10.7911 22.9084 10.9598 22.739C11.1285 22.5695 11.3574 22.4743 11.596 22.4743H14.2951C14.5337 22.4743 14.7625 22.5695 14.9313 22.739C15.1 22.9084 15.1948 23.1382 15.1948 23.3778C15.1948 23.6174 15.1 23.8473 14.9313 24.0167C14.7625 24.1861 14.5337 24.2813 14.2951 24.2813Z" fill="#F6F8FF"/>
<path d="M25.1216 18.1556V15.8707C25.1216 15.7051 25.0561 15.5463 24.9395 15.4293C24.823 15.3122 24.6648 15.2464 24.4999 15.2464H22.1149C21.95 15.2464 21.7918 15.3122 21.6753 15.4293C21.5587 15.5463 21.4932 15.7051 21.4932 15.8707V15.9267C21.4931 16.0755 21.5461 16.2194 21.6425 16.3324L24.0285 18.5622C24.0868 18.6306 24.1591 18.6854 24.2404 18.723C24.3218 18.7606 24.4104 18.78 24.4999 18.78C24.6648 18.78 24.823 18.7142 24.9395 18.5971C25.0561 18.48 25.1216 18.3212 25.1216 18.1556Z" fill="#FFA027"/>
</svg>
