<svg width="125" height="68" viewBox="0 0 125 68" fill="none" xmlns="http://www.w3.org/2000/svg">
<path d="M17.5195 39.7852L19.6094 41.4062C20.9245 42.5 21.582 44.2122 21.582 46.543V46.8164C21.3867 49.056 20.7031 51.2891 19.5312 53.5156C18.3724 55.7422 16.901 57.5065 15.1172 58.8086C13.3333 60.1107 11.4193 60.7617 9.375 60.7617C7.21354 60.7617 5.52083 59.9544 4.29688 58.3398C3.08594 56.7383 2.48047 54.5508 2.48047 51.7773C2.48047 47.9362 3.8151 43.5547 6.48438 38.6328C6.64062 38.4766 6.82292 38.3984 7.03125 38.3984C7.47396 38.3984 7.69531 38.6719 7.69531 39.2188C7.69531 39.8047 7.45443 40.7227 6.97266 41.9727C5.78776 44.668 5.19531 47.2917 5.19531 49.8438C5.19531 51.5234 5.625 52.8385 6.48438 53.7891C7.35677 54.7396 8.63932 55.2148 10.332 55.2148C12.207 55.2148 13.9714 54.5638 15.625 53.2617C17.2786 51.9596 18.3203 50.4297 18.75 48.6719C18.5677 48.2161 18.2487 47.7799 17.793 47.3633C17.3503 46.9336 16.6667 46.3867 15.7422 45.7227C14.5443 44.8893 13.9453 43.9909 13.9453 43.0273L14.0234 42.3242C14.2708 41.6862 14.7591 40.6706 15.4883 39.2773H17.5195V39.7852ZM8.39844 62.4023C8.48958 62.4023 9.375 63.0404 11.0547 64.3164L13.2812 61.6211L13.4375 61.5234C13.5547 61.5234 14.4401 62.1484 16.0938 63.3984L16.2695 63.5547L16.3477 63.6914L16.2305 63.9062L13.8672 66.7578C13.776 66.888 13.7044 66.9531 13.6523 66.9531C13.5612 66.9531 13.2031 66.7188 12.5781 66.25C11.9531 65.7943 11.4258 65.3711 10.9961 64.9805L8.78906 67.6367C8.69792 67.7669 8.6263 67.832 8.57422 67.832C8.48307 67.832 8.15104 67.6172 7.57812 67.1875C7.01823 66.7578 6.46484 66.3021 5.91797 65.8203C5.78776 65.7292 5.72266 65.651 5.72266 65.5859L5.83984 65.4102L8.24219 62.5L8.39844 62.4023ZM21.8164 34.9219L19.5117 37.0898L16.2305 42.5391H16.1914L14.2383 41.7969V41.7773C14.7331 40.6706 15.2799 39.6029 15.8789 38.5742C16.9336 36.7643 17.5781 35.5339 17.8125 34.8828C18.0599 34.2188 18.2357 33.4375 18.3398 32.5391C18.444 31.6406 18.4961 30.4427 18.4961 28.9453L18.4766 27.4609C18.4766 26.2891 18.737 24.9089 19.2578 23.3203C19.7786 21.7318 20.2865 20.5469 20.7812 19.7656L21.0547 19.707C21.4583 19.707 21.6732 20.0391 21.6992 20.7031C21.6341 22.4609 21.6016 24.9154 21.6016 28.0664C21.6016 30.332 21.6732 32.6172 21.8164 34.9219ZM23.4766 51.8125C23.5807 51.8125 24.4336 52.418 26.0352 53.6289L26.2109 53.7852L26.2891 53.9219L26.1719 54.1367L23.8086 56.9883C23.7174 57.1185 23.6458 57.1836 23.5938 57.1836C23.5026 57.1836 23.1576 56.9557 22.5586 56.5C21.9466 56.0443 21.4258 55.6211 20.9961 55.2305C20.8659 55.1393 20.8008 55.0612 20.8008 54.9961L20.918 54.8203L23.3203 51.9102L23.4766 51.8125ZM30.0586 32.8164L29.9219 36.4883L29.8047 36.7812C28.8021 38.3438 27.7083 39.5352 26.5234 40.3555C25.3385 41.1758 24.1602 41.5859 22.9883 41.5859C22.6628 41.5859 22.2852 41.5404 21.8555 41.4492C20.8659 41.1237 20.0716 40.4727 19.4727 39.4961C18.8737 38.5195 18.5742 37.4193 18.5742 36.1953L18.5938 35.6484L18.75 35.3555L21.4844 32.6016L21.5039 32.6211L21.6406 33.5391C21.862 35.2578 22.8385 36.1172 24.5703 36.1172C25.026 36.1172 25.5013 36.0326 25.9961 35.8633C26.5039 35.694 26.9271 35.4336 27.2656 35.082L28.0859 34.2031C28.2682 34.0208 28.457 33.8516 28.6523 33.6953C28.8607 33.526 29.3294 33.2331 30.0586 32.8164ZM26.9531 36.5039L27.5 35.2148C28.1641 33.418 29.1016 32.3958 30.3125 32.1484C30.7682 32.2656 31.224 32.4154 31.6797 32.5977C32.2526 32.8451 32.7409 32.9688 33.1445 32.9688C34.1992 32.9688 35.0846 32.2656 35.8008 30.8594C36.2174 30.013 36.4844 29.5508 36.6016 29.4727C36.7318 29.3945 36.888 29.3555 37.0703 29.3555C37.3047 29.3555 37.5 29.4336 37.6562 29.5898C37.8125 29.7461 37.8906 29.9284 37.8906 30.1367V30.2539L37.6758 31.1133C38.0013 31.0221 38.3203 30.9115 38.6328 30.7812C38.9583 30.651 39.2188 30.4362 39.4141 30.1367L39.8047 29.2969C40.1562 28.5026 40.5534 28.1055 40.9961 28.1055L41.25 28.125C41.4844 28.2943 41.6146 28.5417 41.6406 28.8672L41.5625 29.7656C41.6797 29.7135 41.8099 29.681 41.9531 29.668C42.1094 29.6419 42.2396 29.5768 42.3438 29.4727L42.6172 28.75C42.9557 27.6953 43.431 27.168 44.043 27.168L44.2188 27.1875C44.4661 27.2917 44.6029 27.4479 44.6289 27.6562C44.668 27.8516 44.6875 28.0339 44.6875 28.2031L44.5117 29.5508L44.6484 31.875L44.6289 32.3242L43.6719 32.7734C39.0885 35.013 36.2435 36.3737 35.1367 36.8555C34.0299 37.3372 33.1901 37.5781 32.6172 37.5781C32.2266 37.526 31.849 37.4349 31.4844 37.3047C31.1198 37.1745 30.7552 37.0508 30.3906 36.9336C30.013 36.8034 29.6484 36.6992 29.2969 36.6211C28.9453 36.5299 28.5938 36.4844 28.2422 36.4844L26.9531 36.5039ZM42.0898 33.9922C41.8034 33.9922 41.6602 33.8229 41.6602 33.4844C41.6732 33.0547 41.9857 32.3776 42.5977 31.4531C43.0924 30.6979 43.3984 30.1576 43.5156 29.832L43.8281 29.2656C43.9193 29.0703 44.0039 28.9727 44.082 28.9727L44.5898 29.2852C44.8763 29.3633 45.1562 29.4023 45.4297 29.4023C46.6667 29.4023 47.9622 28.5299 49.3164 26.7852L50.4883 25.3594C50.0586 25.2552 49.6289 25.112 49.1992 24.9297C48.7695 24.7344 48.3333 24.5716 47.8906 24.4414C47.4609 24.3112 47.0312 24.2396 46.6016 24.2266C45.8073 24.2266 45.2409 24.487 44.9023 25.0078C44.6159 25.4245 44.3945 25.6979 44.2383 25.8281C44.0951 25.9453 43.9518 26.0039 43.8086 26.0039L43.4766 25.9453C43.2552 25.7891 43.1445 25.5547 43.1445 25.2422C43.1445 24.8385 43.3724 24.2005 43.8281 23.3281C44.2708 22.4427 44.8633 21.7396 45.6055 21.2188C46.3477 20.6979 47.1224 20.431 47.9297 20.418L48.2227 20.4375H48.3008C48.6654 20.4375 49.0299 20.5156 49.3945 20.6719C49.7721 20.8281 50.1497 20.9974 50.5273 21.1797C51.2435 21.5182 51.8034 21.6875 52.207 21.6875C52.4154 21.6875 52.6237 21.6549 52.832 21.5898C53.5091 21.3685 54.0299 21.2578 54.3945 21.2578C54.9805 21.2578 55.2734 21.4857 55.2734 21.9414C55.2734 22.1237 55.2279 22.3451 55.1367 22.6055C53.5612 25.2227 52.3893 27.0326 51.6211 28.0352C50.8529 29.0378 50.0521 29.9232 49.2188 30.6914C48.3854 31.4596 47.5977 32.026 46.8555 32.3906C46.1263 32.7552 45.1823 33.1133 44.0234 33.4648C42.8516 33.8164 42.207 33.9922 42.0898 33.9922ZM62.9297 38.4766L62.9883 42.9297C62.9883 45.1042 62.832 46.9596 62.5195 48.4961C62.207 50.0195 61.7057 51.3932 61.0156 52.6172C60.8333 52.9036 60.5729 53.0469 60.2344 53.0469C60.013 53.0469 59.8372 52.9753 59.707 52.832C59.5768 52.6758 59.5117 52.487 59.5117 52.2656L59.5312 52.0703C59.6354 47.4609 59.6875 43.6784 59.6875 40.7227V38.8086C60.1042 36.2305 60.8008 34.0625 61.7773 32.3047C61.9206 31.9792 62.181 31.8164 62.5586 31.8164C62.7799 31.8164 62.9622 31.888 63.1055 32.0312C63.2487 32.1745 63.3203 32.3438 63.3203 32.5391L63.3008 32.7539C63.1185 33.9388 62.9948 35.8464 62.9297 38.4766Z" fill="#FFA027"/>
<path d="M94.4781 35.3529H83.5743C80.7251 35.3529 78.4043 37.6714 78.4043 40.5212V51.4254C78.4043 54.2754 80.7251 56.5938 83.5743 56.5938H94.478C97.3273 56.5938 99.648 54.2754 99.648 51.4254V40.5212C99.6481 37.6714 97.3274 35.3529 94.4781 35.3529ZM92.599 49.546C92.4722 49.6729 92.3216 49.7735 92.1559 49.8421C91.9902 49.9108 91.8126 49.9461 91.6333 49.946C91.2697 49.946 90.9245 49.8031 90.6675 49.5459L89.0263 47.9045L87.3851 49.5459C86.852 50.0791 85.9864 50.0792 85.4535 49.5459C84.9204 49.0127 84.9203 48.1484 85.4535 47.6152L87.0945 45.9738L85.4535 44.3314C84.9211 43.7987 84.9206 42.9344 85.4535 42.4018C85.9867 41.8688 86.852 41.8685 87.3852 42.4018L89.0264 44.0432L90.6675 42.4018C91.2007 41.8685 92.066 41.8688 92.5993 42.4018C93.1321 42.9344 93.1315 43.7987 92.5993 44.3314L90.9582 45.9738L92.5993 47.6152C93.1324 48.1486 93.1314 49.0124 92.599 49.546ZM94.4781 11.4062H83.5743C80.7252 11.4062 78.4043 13.7247 78.4043 16.5748V27.4788C78.4043 30.3288 80.7251 32.6473 83.5743 32.6473H94.478C97.3273 32.6473 99.648 30.3288 99.648 27.4788V16.5748C99.6481 13.7247 97.3274 11.4062 94.4781 11.4062ZM92.7166 23.3923H90.393V25.7145C90.393 26.468 89.7794 27.0796 89.0262 27.0796C88.2725 27.0796 87.6639 26.4676 87.6639 25.7145V23.3923H85.3403C84.5866 23.3923 83.9736 22.7812 83.9736 22.0272C83.9736 21.2732 84.5868 20.6622 85.3403 20.6622H87.664V18.3401C87.664 17.5866 88.272 16.975 89.0263 16.975C89.7799 16.975 90.393 17.586 90.393 18.3401V20.6622H92.7167C93.4708 20.6622 94.079 21.2738 94.079 22.0272C94.0789 22.7807 93.4708 23.3923 92.7166 23.3923ZM118.426 11.4062H107.522C104.673 11.4062 102.352 13.7248 102.352 16.5749V27.4788C102.352 30.3288 104.673 32.6473 107.522 32.6473H118.426C121.275 32.6473 123.596 30.3288 123.596 27.4788V16.5748C123.596 13.7247 121.275 11.4062 118.426 11.4062ZM116.66 23.3923H109.288C108.534 23.3923 107.921 22.7813 107.921 22.0272C107.921 21.2732 108.535 20.6622 109.288 20.6622H116.66C117.413 20.6622 118.027 21.2732 118.027 22.0272C118.027 22.7813 117.413 23.3923 116.66 23.3923ZM118.426 35.3529H107.522C104.673 35.3529 102.352 37.6714 102.352 40.5212V51.4254C102.352 54.2754 104.673 56.5938 107.522 56.5938H118.426C121.275 56.5938 123.596 54.2754 123.596 51.4254V40.5212C123.596 37.6714 121.275 35.3529 118.426 35.3529ZM116.66 49.7472H109.288C108.535 49.7472 107.921 49.1358 107.921 48.3823C107.921 47.6283 108.534 47.0173 109.288 47.0173H116.66C117.413 47.0173 118.027 47.6283 118.027 48.3823C118.027 49.1358 117.413 49.7472 116.66 49.7472ZM116.66 44.9304H109.288C108.534 44.9304 107.921 44.3194 107.921 43.5653C107.921 42.8113 108.534 42.2002 109.288 42.2002H116.66C117.413 42.2002 118.027 42.8112 118.027 43.5653C118.027 44.3194 117.413 44.9304 116.66 44.9304Z" fill="#FFA027"/>
</svg>
