<svg width="49" height="40" viewBox="0 0 49 40" fill="none" xmlns="http://www.w3.org/2000/svg">
<path d="M12.2734 16.8281L13.9453 18.125C14.9974 19 15.5234 20.3698 15.5234 22.2344V22.4531C15.3672 24.2448 14.8203 26.0312 13.8828 27.8125C12.9557 29.5938 11.7786 31.0052 10.3516 32.0469C8.92448 33.0885 7.39323 33.6094 5.75781 33.6094C4.02865 33.6094 2.67448 32.9635 1.69531 31.6719C0.726562 30.3906 0.242188 28.6406 0.242188 26.4219C0.242188 23.349 1.3099 19.8438 3.44531 15.9062C3.57031 15.7812 3.71615 15.7188 3.88281 15.7188C4.23698 15.7188 4.41406 15.9375 4.41406 16.375C4.41406 16.8438 4.22135 17.5781 3.83594 18.5781C2.88802 20.7344 2.41406 22.8333 2.41406 24.875C2.41406 26.2188 2.75781 27.2708 3.44531 28.0312C4.14323 28.7917 5.16927 29.1719 6.52344 29.1719C8.02344 29.1719 9.4349 28.651 10.7578 27.6094C12.0807 26.5677 12.9141 25.3438 13.2578 23.9375C13.112 23.5729 12.8568 23.224 12.4922 22.8906C12.138 22.5469 11.5911 22.1094 10.8516 21.5781C9.89323 20.9115 9.41406 20.1927 9.41406 19.4219L9.47656 18.8594C9.67448 18.349 10.0651 17.5365 10.6484 16.4219H12.2734V16.8281ZM4.97656 34.9219C5.04948 34.9219 5.75781 35.4323 7.10156 36.4531L8.88281 34.2969L9.00781 34.2188C9.10156 34.2188 9.8099 34.7188 11.1328 35.7188L11.2734 35.8438L11.3359 35.9531L11.2422 36.125L9.35156 38.4062C9.27865 38.5104 9.22135 38.5625 9.17969 38.5625C9.10677 38.5625 8.82031 38.375 8.32031 38C7.82031 37.6354 7.39844 37.2969 7.05469 36.9844L5.28906 39.1094C5.21615 39.2135 5.15885 39.2656 5.11719 39.2656C5.04427 39.2656 4.77865 39.0938 4.32031 38.75C3.8724 38.4062 3.42969 38.0417 2.99219 37.6562C2.88802 37.5833 2.83594 37.5208 2.83594 37.4688L2.92969 37.3281L4.85156 35L4.97656 34.9219ZM15.7109 12.9375L13.8672 14.6719L11.2422 19.0312H11.2109L9.64844 18.4375V18.4219C10.0443 17.5365 10.4818 16.6823 10.9609 15.8594C11.8047 14.4115 12.3203 13.4271 12.5078 12.9062C12.7057 12.375 12.8464 11.75 12.9297 11.0312C13.013 10.3125 13.0547 9.35417 13.0547 8.15625L13.0391 6.96875C13.0391 6.03125 13.2474 4.92708 13.6641 3.65625C14.0807 2.38542 14.487 1.4375 14.8828 0.8125L15.1016 0.765625C15.4245 0.765625 15.5964 1.03125 15.6172 1.5625C15.5651 2.96875 15.5391 4.93229 15.5391 7.45312C15.5391 9.26562 15.5964 11.0938 15.7109 12.9375ZM17.0391 27.25C17.1224 27.25 17.8047 27.7344 19.0859 28.7031L19.2266 28.8281L19.2891 28.9375L19.1953 29.1094L17.3047 31.3906C17.2318 31.4948 17.1745 31.5469 17.1328 31.5469C17.0599 31.5469 16.7839 31.3646 16.3047 31C15.8151 30.6354 15.3984 30.2969 15.0547 29.9844C14.9505 29.9115 14.8984 29.849 14.8984 29.7969L14.9922 29.6562L16.9141 27.3281L17.0391 27.25ZM22.3047 11.4531L22.1953 14.3906L22.1016 14.625C21.2995 15.875 20.4245 16.8281 19.4766 17.4844C18.5286 18.1406 17.5859 18.4688 16.6484 18.4688C16.388 18.4688 16.0859 18.4323 15.7422 18.3594C14.9505 18.099 14.3151 17.5781 13.8359 16.7969C13.3568 16.0156 13.1172 15.1354 13.1172 14.1562L13.1328 13.7188L13.2578 13.4844L15.4453 11.2812L15.4609 11.2969L15.5703 12.0312C15.7474 13.4062 16.5286 14.0938 17.9141 14.0938C18.2786 14.0938 18.6589 14.026 19.0547 13.8906C19.4609 13.7552 19.7995 13.5469 20.0703 13.2656L20.7266 12.5625C20.8724 12.4167 21.0234 12.2812 21.1797 12.1562C21.3464 12.0208 21.7214 11.7865 22.3047 11.4531ZM19.8203 15.2031L20.2578 14.1719C20.7891 12.7344 21.5391 11.9167 22.5078 11.7188C22.8724 11.8125 23.237 11.9323 23.6016 12.0781C24.0599 12.276 24.4505 12.375 24.7734 12.375C25.6172 12.375 26.3255 11.8125 26.8984 10.6875C27.2318 10.0104 27.4453 9.64062 27.5391 9.57812C27.6432 9.51562 27.7682 9.48438 27.9141 9.48438C28.1016 9.48438 28.2578 9.54688 28.3828 9.67188C28.5078 9.79688 28.5703 9.94271 28.5703 10.1094V10.2031L28.3984 10.8906C28.6589 10.8177 28.9141 10.7292 29.1641 10.625C29.4245 10.5208 29.6328 10.349 29.7891 10.1094L30.1016 9.4375C30.3828 8.80208 30.7005 8.48438 31.0547 8.48438L31.2578 8.5C31.4453 8.63542 31.5495 8.83333 31.5703 9.09375L31.5078 9.8125C31.6016 9.77083 31.7057 9.74479 31.8203 9.73438C31.9453 9.71354 32.0495 9.66146 32.1328 9.57812L32.3516 9C32.6224 8.15625 33.0026 7.73438 33.4922 7.73438L33.6328 7.75C33.8307 7.83333 33.9401 7.95833 33.9609 8.125C33.9922 8.28125 34.0078 8.42708 34.0078 8.5625L33.8672 9.64062L33.9766 11.5L33.9609 11.8594L33.1953 12.2188C29.5286 14.0104 27.2526 15.099 26.3672 15.4844C25.4818 15.8698 24.8099 16.0625 24.3516 16.0625C24.0391 16.0208 23.737 15.9479 23.4453 15.8438C23.1536 15.7396 22.862 15.6406 22.5703 15.5469C22.2682 15.4427 21.9766 15.3594 21.6953 15.2969C21.4141 15.224 21.1328 15.1875 20.8516 15.1875L19.8203 15.2031ZM31.9297 12.5938C31.7005 12.5938 31.5859 12.4583 31.5859 12.1875C31.5964 11.8438 31.8464 11.3021 32.3359 10.5625C32.7318 9.95833 32.9766 9.52604 33.0703 9.26562L33.3203 8.8125C33.3932 8.65625 33.4609 8.57812 33.5234 8.57812L33.9297 8.82812C34.1589 8.89062 34.3828 8.92188 34.6016 8.92188C35.5911 8.92188 36.6276 8.22396 37.7109 6.82812L38.6484 5.6875C38.3047 5.60417 37.9609 5.48958 37.6172 5.34375C37.2734 5.1875 36.9245 5.05729 36.5703 4.95312C36.2266 4.84896 35.8828 4.79167 35.5391 4.78125C34.9036 4.78125 34.4505 4.98958 34.1797 5.40625C33.9505 5.73958 33.7734 5.95833 33.6484 6.0625C33.5339 6.15625 33.4193 6.20312 33.3047 6.20312L33.0391 6.15625C32.862 6.03125 32.7734 5.84375 32.7734 5.59375C32.7734 5.27083 32.9557 4.76042 33.3203 4.0625C33.6745 3.35417 34.1484 2.79167 34.7422 2.375C35.3359 1.95833 35.9557 1.74479 36.6016 1.73438L36.8359 1.75H36.8984C37.1901 1.75 37.4818 1.8125 37.7734 1.9375C38.0755 2.0625 38.3776 2.19792 38.6797 2.34375C39.2526 2.61458 39.7005 2.75 40.0234 2.75C40.1901 2.75 40.3568 2.72396 40.5234 2.67188C41.0651 2.49479 41.4818 2.40625 41.7734 2.40625C42.2422 2.40625 42.4766 2.58854 42.4766 2.95312C42.4766 3.09896 42.4401 3.27604 42.3672 3.48438C41.1068 5.57812 40.1693 7.02604 39.5547 7.82812C38.9401 8.63021 38.2995 9.33854 37.6328 9.95312C36.9661 10.5677 36.3359 11.0208 35.7422 11.3125C35.1589 11.6042 34.4036 11.8906 33.4766 12.1719C32.5391 12.4531 32.0234 12.5938 31.9297 12.5938ZM48.6016 15.7812L48.6484 19.3438C48.6484 21.0833 48.5234 22.5677 48.2734 23.7969C48.0234 25.0156 47.6224 26.1146 47.0703 27.0938C46.9245 27.3229 46.7161 27.4375 46.4453 27.4375C46.2682 27.4375 46.1276 27.3802 46.0234 27.2656C45.9193 27.1406 45.8672 26.9896 45.8672 26.8125L45.8828 26.6562C45.9661 22.9688 46.0078 19.9427 46.0078 17.5781V16.0469C46.3411 13.9844 46.8984 12.25 47.6797 10.8438C47.7943 10.5833 48.0026 10.4531 48.3047 10.4531C48.4818 10.4531 48.6276 10.5104 48.7422 10.625C48.8568 10.7396 48.9141 10.875 48.9141 11.0312L48.8984 11.2031C48.7526 12.151 48.6536 13.6771 48.6016 15.7812Z" fill="#FFA027"/>
</svg>
